<ttFont>
    <TTGlyph name=".notdef" xMin="86" yMin="0" xMax="578" yMax="660">
      <contour>
        <pt x="86" y="660" on="1"/>
        <pt x="578" y="660" on="1"/>
        <pt x="578" y="0" on="1"/>
        <pt x="86" y="0" on="1"/>
      </contour>
      <contour>
        <pt x="334" y="395" on="1"/>
        <pt x="381" y="489" on="1"/>
        <pt x="437" y="591" on="1"/>
        <pt x="226" y="591" on="1"/>
        <pt x="282" y="489" on="1"/>
        <pt x="330" y="395" on="1"/>
      </contour>
      <contour>
        <pt x="279" y="340" on="1"/>
        <pt x="161" y="559" on="1"/>
        <pt x="161" y="123" on="1"/>
      </contour>
      <contour>
        <pt x="502" y="559" on="1"/>
        <pt x="385" y="340" on="1"/>
        <pt x="502" y="123" on="1"/>
      </contour>
      <contour>
        <pt x="446" y="68" on="1"/>
        <pt x="383" y="184" on="1"/>
        <pt x="334" y="285" on="1"/>
        <pt x="330" y="285" on="1"/>
        <pt x="280" y="184" on="1"/>
        <pt x="216" y="68" on="1"/>
      </contour>
    </TTGlyph>
    <TTGlyph name="A" xMin="0" yMin="0" xMax="552" yMax="655">
      <contour>
        <pt x="388" y="187" on="1"/>
        <pt x="160" y="187" on="1"/>
        <pt x="104" y="0" on="1"/>
        <pt x="0" y="0" on="1"/>
        <pt x="217" y="655" on="1"/>
        <pt x="335" y="655" on="1"/>
        <pt x="552" y="0" on="1"/>
        <pt x="444" y="0" on="1"/>
      </contour>
      <contour>
        <pt x="364" y="268" on="1"/>
        <pt x="338" y="356" on="1"/>
        <pt x="324" y="403" on="0"/>
        <pt x="289" y="527" on="0"/>
        <pt x="281" y="555" on="1"/>
        <pt x="280" y="563" on="0"/>
        <pt x="276" y="574" on="1"/>
        <pt x="272" y="574" on="1"/>
        <pt x="240" y="451" on="0"/>
        <pt x="211" y="356" on="1"/>
        <pt x="185" y="268" on="1"/>
      </contour>
    </TTGlyph>
    <TTGlyph name="AE" xMin="2" yMin="0" xMax="779" yMax="655">
      <contour>
        <pt x="779" y="86" on="1"/>
        <pt x="779" y="0" on="1"/>
        <pt x="397" y="0" on="1"/>
        <pt x="397" y="179" on="1"/>
        <pt x="199" y="179" on="1"/>
        <pt x="109" y="0" on="1"/>
        <pt x="2" y="0" on="1"/>
        <pt x="336" y="655" on="1"/>
        <pt x="769" y="655" on="1"/>
        <pt x="769" y="569" on="1"/>
        <pt x="499" y="569" on="1"/>
        <pt x="499" y="385" on="1"/>
        <pt x="725" y="385" on="1"/>
        <pt x="725" y="299" on="1"/>
        <pt x="499" y="299" on="1"/>
        <pt x="499" y="86" on="1"/>
      </contour>
      <contour>
        <pt x="397" y="260" on="1"/>
        <pt x="397" y="576" on="1"/>
        <pt x="393" y="576" on="1"/>
        <pt x="373" y="533" on="0"/>
        <pt x="368" y="524" on="1"/>
        <pt x="332" y="446" on="0"/>
        <pt x="294" y="370" on="1"/>
        <pt x="239" y="260" on="1"/>
      </contour>
    </TTGlyph>
    <TTGlyph name="Aacute" xMin="0" yMin="0" xMax="552" yMax="875">
      <component glyphName="A" x="0" y="0" flags="0x0"/>
      <component glyphName="acutecomb.cap" x="274" y="0" flags="0x0"/>
    </TTGlyph>
    <TTGlyph name="Abreve" xMin="0" yMin="0" xMax="552" yMax="844">
      <component glyphName="A" x="0" y="0" flags="0x0"/>
      <component glyphName="uni0306.cap" x="274" y="0" flags="0x0"/>
    </TTGlyph>
    <TTGlyph name="Acircumflex" xMin="0" yMin="0" xMax="552" yMax="837">
      <component glyphName="A" x="0" y="0" flags="0x0"/>
      <component glyphName="uni0302.cap" x="274" y="0" flags="0x0"/>
    </TTGlyph>
    <TTGlyph name="Adieresis" xMin="0" yMin="0" xMax="552" yMax="821">
      <component glyphName="A" x="0" y="0" flags="0x0"/>
      <component glyphName="uni0308.cap" x="274" y="0" flags="0x0"/>
    </TTGlyph>
    <TTGlyph name="Agrave" xMin="0" yMin="0" xMax="552" yMax="875">
      <component glyphName="A" x="0" y="0" flags="0x0"/>
      <component glyphName="gravecomb.cap" x="274" y="0" flags="0x0"/>
    </TTGlyph>
    <TTGlyph name="Amacron" xMin="0" yMin="0" xMax="552" yMax="799">
      <component glyphName="A" x="0" y="0" flags="0x0"/>
      <component glyphName="uni0304.cap" x="274" y="0" flags="0x0"/>
    </TTGlyph>
    <TTGlyph name="Aring" xMin="0" yMin="0" xMax="552" yMax="884">
      <component glyphName="A" x="0" y="0" flags="0x0"/>
      <component glyphName="uni030A.cap" x="274" y="0" flags="0x0"/>
    </TTGlyph>
    <TTGlyph name="Atilde" xMin="0" yMin="0" xMax="552" yMax="844">
      <component glyphName="A" x="0" y="0" flags="0x0"/>
      <component glyphName="tildecomb.cap" x="274" y="0" flags="0x0"/>
    </TTGlyph>
    <TTGlyph name="B" xMin="86" yMin="0" xMax="555" yMax="655">
      <contour>
        <pt x="86" y="655" on="1"/>
        <pt x="289" y="655" on="1"/>
        <pt x="396" y="655" on="0"/>
        <pt x="519" y="578" on="0"/>
        <pt x="519" y="494" on="1"/>
        <pt x="519" y="445" on="0"/>
        <pt x="469" y="367" on="0"/>
        <pt x="426" y="352" on="1"/>
        <pt x="426" y="348" on="1"/>
        <pt x="485" y="335" on="0"/>
        <pt x="555" y="256" on="0"/>
        <pt x="555" y="192" on="1"/>
        <pt x="555" y="98" on="0"/>
        <pt x="418" y="0" on="0"/>
        <pt x="305" y="0" on="1"/>
        <pt x="86" y="0" on="1"/>
      </contour>
      <contour>
        <pt x="277" y="381" on="1"/>
        <pt x="419" y="381" on="0"/>
        <pt x="419" y="480" on="1"/>
        <pt x="419" y="531" on="0"/>
        <pt x="351" y="575" on="0"/>
        <pt x="280" y="575" on="1"/>
        <pt x="188" y="575" on="1"/>
        <pt x="188" y="381" on="1"/>
      </contour>
      <contour>
        <pt x="293" y="80" on="1"/>
        <pt x="372" y="80" on="0"/>
        <pt x="455" y="138" on="0"/>
        <pt x="455" y="197" on="1"/>
        <pt x="455" y="304" on="0"/>
        <pt x="293" y="304" on="1"/>
        <pt x="188" y="304" on="1"/>
        <pt x="188" y="80" on="1"/>
      </contour>
    </TTGlyph>
    <TTGlyph name="C" xMin="50" yMin="-12" xMax="545" yMax="667">
      <contour>
        <pt x="258" y="-12" on="0"/>
        <pt x="126" y="68" on="0"/>
        <pt x="50" y="221" on="0"/>
        <pt x="50" y="326" on="1"/>
        <pt x="50" y="430" on="0"/>
        <pt x="128" y="584" on="0"/>
        <pt x="263" y="667" on="0"/>
        <pt x="346" y="667" on="1"/>
        <pt x="403" y="667" on="0"/>
        <pt x="498" y="621" on="0"/>
        <pt x="531" y="585" on="1"/>
        <pt x="476" y="519" on="1"/>
        <pt x="419" y="578" on="0"/>
        <pt x="348" y="578" on="1"/>
        <pt x="291" y="578" on="0"/>
        <pt x="204" y="517" on="0"/>
        <pt x="155" y="405" on="0"/>
        <pt x="155" y="329" on="1"/>
        <pt x="155" y="212" on="0"/>
        <pt x="258" y="77" on="0"/>
        <pt x="345" y="77" on="1"/>
        <pt x="427" y="77" on="0"/>
        <pt x="490" y="147" on="1"/>
        <pt x="545" y="83" on="1"/>
        <pt x="464" y="-12" on="0"/>
        <pt x="341" y="-12" on="1"/>
      </contour>
    </TTGlyph>
    <TTGlyph name="Ccaron" xMin="50" yMin="-12" xMax="545" yMax="847">
      <component glyphName="C" x="0" y="0" flags="0x0"/>
      <component glyphName="uni030C.cap" x="333" y="0" flags="0x0"/>
    </TTGlyph>
    <TTGlyph name="Ccedilla" xMin="50" yMin="-12" xMax="545" yMax="667">
      <contour>
        <pt x="258" y="-12" on="0"/>
        <pt x="126" y="68" on="0"/>
        <pt x="50" y="221" on="0"/>
        <pt x="50" y="326" on="1"/>
        <pt x="50" y="430" on="0"/>
        <pt x="128" y="584" on="0"/>
        <pt x="263" y="667" on="0"/>
        <pt x="346" y="667" on="1"/>
        <pt x="403" y="667" on="0"/>
        <pt x="498" y="621" on="0"/>
        <pt x="531" y="585" on="1"/>
        <pt x="476" y="519" on="1"/>
        <pt x="419" y="578" on="0"/>
        <pt x="348" y="578" on="1"/>
        <pt x="291" y="578" on="0"/>
        <pt x="204" y="517" on="0"/>
        <pt x="155" y="405" on="0"/>
        <pt x="155" y="329" on="1"/>
        <pt x="155" y="212" on="0"/>
        <pt x="258" y="77" on="0"/>
        <pt x="345" y="77" on="1"/>
        <pt x="427" y="77" on="0"/>
        <pt x="490" y="147" on="1"/>
        <pt x="545" y="83" on="1"/>
        <pt x="464" y="-12" on="0"/>
        <pt x="341" y="-12" on="1"/>
      </contour>
    </TTGlyph>
    <TTGlyph name="D" xMin="86" yMin="0" xMax="571" yMax="655">
      <contour>
        <pt x="86" y="655" on="1"/>
        <pt x="256" y="655" on="1"/>
        <pt x="408" y="655" on="0"/>
        <pt x="571" y="489" on="0"/>
        <pt x="571" y="330" on="1"/>
        <pt x="571" y="171" on="0"/>
        <pt x="409" y="0" on="0"/>
        <pt x="261" y="0" on="1"/>
        <pt x="86" y="0" on="1"/>
      </contour>
      <contour>
        <pt x="249" y="83" on="1"/>
        <pt x="355" y="83" on="0"/>
        <pt x="466" y="208" on="0"/>
        <pt x="466" y="330" on="1"/>
        <pt x="466" y="451" on="0"/>
        <pt x="356" y="572" on="0"/>
        <pt x="249" y="572" on="1"/>
        <pt x="188" y="572" on="1"/>
        <pt x="188" y="83" on="1"/>
      </contour>
    </TTGlyph>
    <TTGlyph name="E" xMin="86" yMin="0" xMax="483" yMax="655">
      <contour>
        <pt x="86" y="655" on="1"/>
        <pt x="473" y="655" on="1"/>
        <pt x="473" y="569" on="1"/>
        <pt x="188" y="569" on="1"/>
        <pt x="188" y="385" on="1"/>
        <pt x="429" y="385" on="1"/>
        <pt x="429" y="299" on="1"/>
        <pt x="188" y="299" on="1"/>
        <pt x="188" y="86" on="1"/>
        <pt x="483" y="86" on="1"/>
        <pt x="483" y="0" on="1"/>
        <pt x="86" y="0" on="1"/>
      </contour>
    </TTGlyph>
    <TTGlyph name="Eacute" xMin="86" yMin="0" xMax="483" yMax="875">
      <component glyphName="E" x="0" y="0" flags="0x0"/>
      <component glyphName="acutecomb.cap" x="286" y="0" flags="0x0"/>
    </TTGlyph>
    <TTGlyph name="Ebreve" xMin="86" yMin="0" xMax="483" yMax="844">
      <component glyphName="E" x="0" y="0" flags="0x0"/>
      <component glyphName="uni0306.cap" x="286" y="0" flags="0x0"/>
    </TTGlyph>
    <TTGlyph name="Ecircumflex" xMin="86" yMin="0" xMax="483" yMax="837">
      <component glyphName="E" x="0" y="0" flags="0x0"/>
      <component glyphName="uni0302.cap" x="286" y="0" flags="0x0"/>
    </TTGlyph>
    <TTGlyph name="Edieresis" xMin="86" yMin="0" xMax="483" yMax="821">
      <component glyphName="E" x="0" y="0" flags="0x0"/>
      <component glyphName="uni0308.cap" x="286" y="0" flags="0x0"/>
    </TTGlyph>
    <TTGlyph name="Egrave" xMin="86" yMin="0" xMax="483" yMax="875">
      <component glyphName="E" x="0" y="0" flags="0x0"/>
      <component glyphName="gravecomb.cap" x="286" y="0" flags="0x0"/>
    </TTGlyph>
    <TTGlyph name="Emacron" xMin="86" yMin="0" xMax="483" yMax="799">
      <component glyphName="E" x="0" y="0" flags="0x0"/>
      <component glyphName="uni0304.cap" x="286" y="0" flags="0x0"/>
    </TTGlyph>
    <TTGlyph name="Eogonek" xMin="86" yMin="-215" xMax="500" yMax="655">
      <contour>
        <pt x="369" y="-215" on="0"/>
        <pt x="312" y="-168" on="0"/>
        <pt x="312" y="-126" on="1"/>
        <pt x="312" y="-87" on="0"/>
        <pt x="357" y="-20" on="0"/>
        <pt x="388" y="0" on="1"/>
        <pt x="86" y="0" on="1"/>
        <pt x="86" y="655" on="1"/>
        <pt x="473" y="655" on="1"/>
        <pt x="473" y="569" on="1"/>
        <pt x="188" y="569" on="1"/>
        <pt x="188" y="385" on="1"/>
        <pt x="429" y="385" on="1"/>
        <pt x="429" y="299" on="1"/>
        <pt x="188" y="299" on="1"/>
        <pt x="188" y="86" on="1"/>
        <pt x="483" y="86" on="1"/>
        <pt x="483" y="0" on="1"/>
        <pt x="479" y="0" on="1"/>
        <pt x="445" y="-4" on="0"/>
        <pt x="389" y="-65" on="0"/>
        <pt x="389" y="-102" on="1"/>
        <pt x="389" y="-123" on="0"/>
        <pt x="416" y="-146" on="0"/>
        <pt x="435" y="-146" on="1"/>
        <pt x="455" y="-146" on="0"/>
        <pt x="474" y="-132" on="1"/>
        <pt x="500" y="-185" on="1"/>
        <pt x="484" y="-198" on="0"/>
        <pt x="435" y="-215" on="0"/>
        <pt x="413" y="-215" on="1"/>
      </contour>
    </TTGlyph>
    <TTGlyph name="Eth" xMin="31" yMin="0" xMax="594" yMax="655">
      <contour>
        <pt x="431" y="655" on="0"/>
        <pt x="594" y="489" on="0"/>
        <pt x="594" y="330" on="1"/>
        <pt x="594" y="171" on="0"/>
        <pt x="432" y="0" on="0"/>
        <pt x="284" y="0" on="1"/>
        <pt x="109" y="0" on="1"/>
        <pt x="109" y="315" on="1"/>
        <pt x="31" y="315" on="1"/>
        <pt x="31" y="365" on="1"/>
        <pt x="109" y="369" on="1"/>
        <pt x="109" y="655" on="1"/>
        <pt x="279" y="655" on="1"/>
      </contour>
      <contour>
        <pt x="378" y="83" on="0"/>
        <pt x="489" y="208" on="0"/>
        <pt x="489" y="330" on="1"/>
        <pt x="489" y="451" on="0"/>
        <pt x="379" y="572" on="0"/>
        <pt x="272" y="572" on="1"/>
        <pt x="211" y="572" on="1"/>
        <pt x="211" y="369" on="1"/>
        <pt x="353" y="369" on="1"/>
        <pt x="353" y="315" on="1"/>
        <pt x="211" y="315" on="1"/>
        <pt x="211" y="83" on="1"/>
        <pt x="272" y="83" on="1"/>
      </contour>
    </TTGlyph>
    <TTGlyph name="Euro" xMin="22" yMin="-12" xMax="499" yMax="649">
      <contour>
        <pt x="499" y="81" on="1"/>
        <pt x="428" y="-12" on="0"/>
        <pt x="324" y="-12" on="1"/>
        <pt x="232" y="-12" on="0"/>
        <pt x="105" y="115" on="0"/>
        <pt x="86" y="229" on="1"/>
        <pt x="22" y="229" on="1"/>
        <pt x="22" y="280" on="1"/>
        <pt x="80" y="284" on="1"/>
        <pt x="79" y="295" on="0"/>
        <pt x="79" y="317" on="1"/>
        <pt x="79" y="337" on="0"/>
        <pt x="80" y="347" on="1"/>
        <pt x="22" y="347" on="1"/>
        <pt x="22" y="398" on="1"/>
        <pt x="86" y="402" on="1"/>
        <pt x="105" y="518" on="0"/>
        <pt x="238" y="649" on="0"/>
        <pt x="337" y="649" on="1"/>
        <pt x="381" y="649" on="0"/>
        <pt x="461" y="607" on="0"/>
        <pt x="490" y="571" on="1"/>
        <pt x="432" y="515" on="1"/>
        <pt x="386" y="569" on="0"/>
        <pt x="334" y="569" on="1"/>
        <pt x="276" y="569" on="0"/>
        <pt x="201" y="482" on="0"/>
        <pt x="188" y="403" on="1"/>
        <pt x="431" y="403" on="1"/>
        <pt x="431" y="347" on="1"/>
        <pt x="183" y="347" on="1"/>
        <pt x="182" y="338" on="0"/>
        <pt x="182" y="320" on="1"/>
        <pt x="182" y="296" on="0"/>
        <pt x="183" y="285" on="1"/>
        <pt x="391" y="285" on="1"/>
        <pt x="391" y="229" on="1"/>
        <pt x="189" y="229" on="1"/>
        <pt x="203" y="152" on="0"/>
        <pt x="275" y="68" on="0"/>
        <pt x="330" y="68" on="1"/>
        <pt x="364" y="68" on="0"/>
        <pt x="417" y="101" on="0"/>
        <pt x="441" y="134" on="1"/>
      </contour>
    </TTGlyph>
    <TTGlyph name="Euro.001" xMin="22" yMin="-12" xMax="499" yMax="649">
      <contour>
        <pt x="499" y="81" on="1"/>
        <pt x="428" y="-12" on="0"/>
        <pt x="324" y="-12" on="1"/>
        <pt x="232" y="-12" on="0"/>
        <pt x="105" y="115" on="0"/>
        <pt x="86" y="229" on="1"/>
        <pt x="22" y="229" on="1"/>
        <pt x="22" y="280" on="1"/>
        <pt x="80" y="284" on="1"/>
        <pt x="79" y="295" on="0"/>
        <pt x="79" y="317" on="1"/>
        <pt x="79" y="337" on="0"/>
        <pt x="80" y="347" on="1"/>
        <pt x="22" y="347" on="1"/>
        <pt x="22" y="398" on="1"/>
        <pt x="86" y="402" on="1"/>
        <pt x="105" y="518" on="0"/>
        <pt x="238" y="649" on="0"/>
        <pt x="337" y="649" on="1"/>
        <pt x="381" y="649" on="0"/>
        <pt x="461" y="607" on="0"/>
        <pt x="490" y="571" on="1"/>
        <pt x="432" y="515" on="1"/>
        <pt x="386" y="569" on="0"/>
        <pt x="334" y="569" on="1"/>
        <pt x="276" y="569" on="0"/>
        <pt x="201" y="482" on="0"/>
        <pt x="188" y="403" on="1"/>
        <pt x="431" y="403" on="1"/>
        <pt x="431" y="347" on="1"/>
        <pt x="183" y="347" on="1"/>
        <pt x="182" y="338" on="0"/>
        <pt x="182" y="320" on="1"/>
        <pt x="182" y="296" on="0"/>
        <pt x="183" y="285" on="1"/>
        <pt x="391" y="285" on="1"/>
        <pt x="391" y="229" on="1"/>
        <pt x="189" y="229" on="1"/>
        <pt x="203" y="152" on="0"/>
        <pt x="275" y="68" on="0"/>
        <pt x="330" y="68" on="1"/>
        <pt x="364" y="68" on="0"/>
        <pt x="417" y="101" on="0"/>
        <pt x="441" y="134" on="1"/>
      </contour>
    </TTGlyph>
    <TTGlyph name="Euro.lat" xMin="22" yMin="-12" xMax="499" yMax="649">
      <contour>
        <pt x="499" y="81" on="1"/>
        <pt x="428" y="-12" on="0"/>
        <pt x="324" y="-12" on="1"/>
        <pt x="232" y="-12" on="0"/>
        <pt x="105" y="115" on="0"/>
        <pt x="86" y="229" on="1"/>
        <pt x="22" y="229" on="1"/>
        <pt x="22" y="280" on="1"/>
        <pt x="80" y="284" on="1"/>
        <pt x="79" y="295" on="0"/>
        <pt x="79" y="317" on="1"/>
        <pt x="79" y="337" on="0"/>
        <pt x="80" y="347" on="1"/>
        <pt x="22" y="347" on="1"/>
        <pt x="22" y="398" on="1"/>
        <pt x="86" y="402" on="1"/>
        <pt x="105" y="518" on="0"/>
        <pt x="238" y="649" on="0"/>
        <pt x="337" y="649" on="1"/>
        <pt x="381" y="649" on="0"/>
        <pt x="461" y="607" on="0"/>
        <pt x="490" y="571" on="1"/>
        <pt x="432" y="515" on="1"/>
        <pt x="386" y="569" on="0"/>
        <pt x="334" y="569" on="1"/>
        <pt x="276" y="569" on="0"/>
        <pt x="201" y="482" on="0"/>
        <pt x="188" y="403" on="1"/>
        <pt x="431" y="403" on="1"/>
        <pt x="431" y="347" on="1"/>
        <pt x="183" y="347" on="1"/>
        <pt x="182" y="338" on="0"/>
        <pt x="182" y="320" on="1"/>
        <pt x="182" y="296" on="0"/>
        <pt x="183" y="285" on="1"/>
        <pt x="391" y="285" on="1"/>
        <pt x="391" y="229" on="1"/>
        <pt x="189" y="229" on="1"/>
        <pt x="203" y="152" on="0"/>
        <pt x="275" y="68" on="0"/>
        <pt x="330" y="68" on="1"/>
        <pt x="364" y="68" on="0"/>
        <pt x="417" y="101" on="0"/>
        <pt x="441" y="134" on="1"/>
      </contour>
    </TTGlyph>
    <TTGlyph name="Euro.lat.001" xMin="22" yMin="-12" xMax="499" yMax="649">
      <contour>
        <pt x="499" y="81" on="1"/>
        <pt x="428" y="-12" on="0"/>
        <pt x="324" y="-12" on="1"/>
        <pt x="232" y="-12" on="0"/>
        <pt x="105" y="115" on="0"/>
        <pt x="86" y="229" on="1"/>
        <pt x="22" y="229" on="1"/>
        <pt x="22" y="280" on="1"/>
        <pt x="80" y="284" on="1"/>
        <pt x="79" y="295" on="0"/>
        <pt x="79" y="317" on="1"/>
        <pt x="79" y="337" on="0"/>
        <pt x="80" y="347" on="1"/>
        <pt x="22" y="347" on="1"/>
        <pt x="22" y="398" on="1"/>
        <pt x="86" y="402" on="1"/>
        <pt x="105" y="518" on="0"/>
        <pt x="238" y="649" on="0"/>
        <pt x="337" y="649" on="1"/>
        <pt x="381" y="649" on="0"/>
        <pt x="461" y="607" on="0"/>
        <pt x="490" y="571" on="1"/>
        <pt x="432" y="515" on="1"/>
        <pt x="386" y="569" on="0"/>
        <pt x="334" y="569" on="1"/>
        <pt x="276" y="569" on="0"/>
        <pt x="201" y="482" on="0"/>
        <pt x="188" y="403" on="1"/>
        <pt x="431" y="403" on="1"/>
        <pt x="431" y="347" on="1"/>
        <pt x="183" y="347" on="1"/>
        <pt x="182" y="338" on="0"/>
        <pt x="182" y="320" on="1"/>
        <pt x="182" y="296" on="0"/>
        <pt x="183" y="285" on="1"/>
        <pt x="391" y="285" on="1"/>
        <pt x="391" y="229" on="1"/>
        <pt x="189" y="229" on="1"/>
        <pt x="203" y="152" on="0"/>
        <pt x="275" y="68" on="0"/>
        <pt x="330" y="68" on="1"/>
        <pt x="364" y="68" on="0"/>
        <pt x="417" y="101" on="0"/>
        <pt x="441" y="134" on="1"/>
      </contour>
    </TTGlyph>
    <TTGlyph name="F" xMin="86" yMin="0" xMax="474" yMax="655">
      <contour>
        <pt x="86" y="655" on="1"/>
        <pt x="474" y="655" on="1"/>
        <pt x="474" y="569" on="1"/>
        <pt x="188" y="569" on="1"/>
        <pt x="188" y="368" on="1"/>
        <pt x="431" y="368" on="1"/>
        <pt x="431" y="282" on="1"/>
        <pt x="188" y="282" on="1"/>
        <pt x="188" y="0" on="1"/>
        <pt x="86" y="0" on="1"/>
      </contour>
    </TTGlyph>
    <TTGlyph name="G" xMin="50" yMin="-12" xMax="559" yMax="667">
      <contour>
        <pt x="265" y="-12" on="0"/>
        <pt x="128" y="68" on="0"/>
        <pt x="50" y="221" on="0"/>
        <pt x="50" y="326" on="1"/>
        <pt x="50" y="430" on="0"/>
        <pt x="130" y="585" on="0"/>
        <pt x="269" y="667" on="0"/>
        <pt x="356" y="667" on="1"/>
        <pt x="470" y="667" on="0"/>
        <pt x="550" y="585" on="1"/>
        <pt x="495" y="519" on="1"/>
        <pt x="467" y="547" on="0"/>
        <pt x="403" y="578" on="0"/>
        <pt x="359" y="578" on="1"/>
        <pt x="298" y="578" on="0"/>
        <pt x="206" y="518" on="0"/>
        <pt x="155" y="405" on="0"/>
        <pt x="155" y="329" on="1"/>
        <pt x="155" y="211" on="0"/>
        <pt x="263" y="77" on="0"/>
        <pt x="363" y="77" on="1"/>
        <pt x="394" y="77" on="0"/>
        <pt x="450" y="94" on="0"/>
        <pt x="467" y="110" on="1"/>
        <pt x="467" y="264" on="1"/>
        <pt x="337" y="264" on="1"/>
        <pt x="337" y="348" on="1"/>
        <pt x="559" y="348" on="1"/>
        <pt x="559" y="65" on="1"/>
        <pt x="525" y="30" on="0"/>
        <pt x="417" y="-12" on="0"/>
        <pt x="353" y="-12" on="1"/>
      </contour>
    </TTGlyph>
    <TTGlyph name="Gcaron" xMin="50" yMin="-12" xMax="559" yMax="847">
      <component glyphName="G" x="0" y="0" flags="0x0"/>
      <component glyphName="uni030C.cap" x="357" y="0" flags="0x0"/>
    </TTGlyph>
    <TTGlyph name="Gdotaccent" xMin="50" yMin="-12" xMax="559" yMax="831">
      <component glyphName="G" x="0" y="0" flags="0x0"/>
      <component glyphName="uni0307.cap" x="357" y="0" flags="0x0"/>
    </TTGlyph>
    <TTGlyph name="H" xMin="86" yMin="0" xMax="572" yMax="655">
      <contour>
        <pt x="86" y="655" on="1"/>
        <pt x="188" y="655" on="1"/>
        <pt x="188" y="387" on="1"/>
        <pt x="470" y="387" on="1"/>
        <pt x="470" y="655" on="1"/>
        <pt x="572" y="655" on="1"/>
        <pt x="572" y="0" on="1"/>
        <pt x="470" y="0" on="1"/>
        <pt x="470" y="298" on="1"/>
        <pt x="188" y="298" on="1"/>
        <pt x="188" y="0" on="1"/>
        <pt x="86" y="0" on="1"/>
      </contour>
    </TTGlyph>
    <TTGlyph name="Hbar" xMin="30" yMin="0" xMax="664" yMax="655">
      <contour>
        <pt x="664" y="490" on="1"/>
        <pt x="592" y="490" on="1"/>
        <pt x="592" y="0" on="1"/>
        <pt x="490" y="0" on="1"/>
        <pt x="490" y="298" on="1"/>
        <pt x="208" y="298" on="1"/>
        <pt x="208" y="0" on="1"/>
        <pt x="106" y="0" on="1"/>
        <pt x="106" y="490" on="1"/>
        <pt x="30" y="490" on="1"/>
        <pt x="30" y="539" on="1"/>
        <pt x="106" y="544" on="1"/>
        <pt x="106" y="655" on="1"/>
        <pt x="208" y="655" on="1"/>
        <pt x="208" y="544" on="1"/>
        <pt x="490" y="544" on="1"/>
        <pt x="490" y="655" on="1"/>
        <pt x="592" y="655" on="1"/>
        <pt x="592" y="544" on="1"/>
        <pt x="664" y="544" on="1"/>
      </contour>
      <contour>
        <pt x="490" y="490" on="1"/>
        <pt x="208" y="490" on="1"/>
        <pt x="208" y="387" on="1"/>
        <pt x="490" y="387" on="1"/>
      </contour>
    </TTGlyph>
    <TTGlyph name="I" xMin="86" yMin="0" xMax="188" yMax="655">
      <contour>
        <pt x="86" y="655" on="1"/>
        <pt x="188" y="655" on="1"/>
        <pt x="188" y="0" on="1"/>
        <pt x="86" y="0" on="1"/>
      </contour>
    </TTGlyph>
    <TTGlyph name="Iacute" xMin="77" yMin="0" xMax="283" yMax="875">
      <component glyphName="I" x="0" y="0" flags="0x0"/>
      <component glyphName="acutecomb.cap" x="137" y="0" flags="0x0"/>
    </TTGlyph>
    <TTGlyph name="Icircumflex" xMin="-17" yMin="0" xMax="291" yMax="837">
      <component glyphName="I" x="0" y="0" flags="0x0"/>
      <component glyphName="uni0302.cap" x="137" y="0" flags="0x0"/>
    </TTGlyph>
    <TTGlyph name="Idieresis" xMin="-23" yMin="0" xMax="297" yMax="821">
      <component glyphName="I" x="0" y="0" flags="0x0"/>
      <component glyphName="uni0308.cap" x="137" y="0" flags="0x0"/>
    </TTGlyph>
    <TTGlyph name="Igrave" xMin="-9" yMin="0" xMax="197" yMax="875">
      <component glyphName="I" x="0" y="0" flags="0x0"/>
      <component glyphName="gravecomb.cap" x="137" y="0" flags="0x0"/>
    </TTGlyph>
    <TTGlyph name="Imacron" xMin="-2" yMin="0" xMax="276" yMax="799">
      <component glyphName="I" x="0" y="0" flags="0x0"/>
      <component glyphName="uni0304.cap" x="137" y="0" flags="0x0"/>
    </TTGlyph>
    <TTGlyph name="J" xMin="27" yMin="-12" xMax="405" yMax="655">
      <contour>
        <pt x="88" y="-12" on="0"/>
        <pt x="27" y="97" on="1"/>
        <pt x="98" y="148" on="1"/>
        <pt x="138" y="77" on="0"/>
        <pt x="205" y="77" on="1"/>
        <pt x="255" y="77" on="0"/>
        <pt x="303" y="139" on="0"/>
        <pt x="303" y="209" on="1"/>
        <pt x="303" y="655" on="1"/>
        <pt x="405" y="655" on="1"/>
        <pt x="405" y="200" on="1"/>
        <pt x="405" y="106" on="0"/>
        <pt x="311" y="-12" on="0"/>
        <pt x="216" y="-12" on="1"/>
      </contour>
    </TTGlyph>
    <TTGlyph name="K" xMin="86" yMin="0" xMax="588" yMax="655">
      <contour>
        <pt x="86" y="655" on="1"/>
        <pt x="188" y="655" on="1"/>
        <pt x="188" y="344" on="1"/>
        <pt x="191" y="344" on="1"/>
        <pt x="441" y="655" on="1"/>
        <pt x="555" y="655" on="1"/>
        <pt x="352" y="402" on="1"/>
        <pt x="588" y="0" on="1"/>
        <pt x="475" y="0" on="1"/>
        <pt x="290" y="322" on="1"/>
        <pt x="188" y="198" on="1"/>
        <pt x="188" y="0" on="1"/>
        <pt x="86" y="0" on="1"/>
      </contour>
    </TTGlyph>
    <TTGlyph name="L" xMin="86" yMin="0" xMax="466" yMax="655">
      <contour>
        <pt x="86" y="655" on="1"/>
        <pt x="188" y="655" on="1"/>
        <pt x="188" y="86" on="1"/>
        <pt x="466" y="86" on="1"/>
        <pt x="466" y="0" on="1"/>
        <pt x="86" y="0" on="1"/>
      </contour>
    </TTGlyph>
    <TTGlyph name="Lslash" xMin="-11" yMin="0" xMax="472" yMax="655">
      <contour>
        <pt x="472" y="86" on="1"/>
        <pt x="472" y="0" on="1"/>
        <pt x="92" y="0" on="1"/>
        <pt x="92" y="232" on="1"/>
        <pt x="25" y="193" on="1"/>
        <pt x="-11" y="256" on="1"/>
        <pt x="92" y="313" on="1"/>
        <pt x="92" y="655" on="1"/>
        <pt x="194" y="655" on="1"/>
        <pt x="194" y="359" on="1"/>
        <pt x="364" y="451" on="1"/>
        <pt x="400" y="388" on="1"/>
        <pt x="194" y="278" on="1"/>
        <pt x="194" y="86" on="1"/>
      </contour>
    </TTGlyph>
    <TTGlyph name="M" xMin="86" yMin="0" xMax="651" yMax="655">
      <contour>
        <pt x="86" y="655" on="1"/>
        <pt x="204" y="655" on="1"/>
        <pt x="324" y="322" on="1"/>
        <pt x="348" y="249" on="1"/>
        <pt x="368" y="190" on="1"/>
        <pt x="372" y="190" on="1"/>
        <pt x="388" y="238" on="0"/>
        <pt x="392" y="252" on="1"/>
        <pt x="415" y="322" on="1"/>
        <pt x="533" y="655" on="1"/>
        <pt x="651" y="655" on="1"/>
        <pt x="651" y="0" on="1"/>
        <pt x="557" y="0" on="1"/>
        <pt x="557" y="326" on="1"/>
        <pt x="557" y="380" on="0"/>
        <pt x="568" y="505" on="1"/>
        <pt x="570" y="528" on="1"/>
        <pt x="566" y="528" on="1"/>
        <pt x="514" y="377" on="1"/>
        <pt x="399" y="64" on="1"/>
        <pt x="336" y="64" on="1"/>
        <pt x="221" y="377" on="1"/>
        <pt x="169" y="528" on="1"/>
        <pt x="165" y="528" on="1"/>
        <pt x="167" y="505" on="1"/>
        <pt x="178" y="380" on="0"/>
        <pt x="178" y="326" on="1"/>
        <pt x="178" y="0" on="1"/>
        <pt x="86" y="0" on="1"/>
      </contour>
    </TTGlyph>
    <TTGlyph name="N" xMin="86" yMin="0" xMax="566" yMax="655">
      <contour>
        <pt x="86" y="655" on="1"/>
        <pt x="191" y="655" on="1"/>
        <pt x="409" y="268" on="1"/>
        <pt x="478" y="130" on="1"/>
        <pt x="482" y="130" on="1"/>
        <pt x="480" y="162" on="0"/>
        <pt x="478" y="175" on="1"/>
        <pt x="477" y="186" on="0"/>
        <pt x="469" y="298" on="0"/>
        <pt x="469" y="347" on="1"/>
        <pt x="469" y="655" on="1"/>
        <pt x="566" y="655" on="1"/>
        <pt x="566" y="0" on="1"/>
        <pt x="461" y="0" on="1"/>
        <pt x="243" y="388" on="1"/>
        <pt x="174" y="525" on="1"/>
        <pt x="170" y="525" on="1"/>
        <pt x="174" y="475" on="1"/>
        <pt x="175" y="463" on="0"/>
        <pt x="183" y="357" on="0"/>
        <pt x="183" y="311" on="1"/>
        <pt x="183" y="0" on="1"/>
        <pt x="86" y="0" on="1"/>
      </contour>
    </TTGlyph>
    <TTGlyph name="Ntilde" xMin="86" yMin="0" xMax="566" yMax="844">
      <component glyphName="N" x="0" y="0" flags="0x0"/>
      <component glyphName="tildecomb.cap" x="329" y="0" flags="0x0"/>
    </TTGlyph>
    <TTGlyph name="O" xMin="50" yMin="-12" xMax="620" yMax="667">
      <contour>
        <pt x="251" y="-12" on="0"/>
        <pt x="122" y="71" on="0"/>
        <pt x="50" y="226" on="0"/>
        <pt x="50" y="330" on="1"/>
        <pt x="50" y="434" on="0"/>
        <pt x="122" y="586" on="0"/>
        <pt x="251" y="667" on="0"/>
        <pt x="335" y="667" on="1"/>
        <pt x="419" y="667" on="0"/>
        <pt x="548" y="586" on="0"/>
        <pt x="620" y="434" on="0"/>
        <pt x="620" y="330" on="1"/>
        <pt x="620" y="226" on="0"/>
        <pt x="548" y="71" on="0"/>
        <pt x="419" y="-12" on="0"/>
        <pt x="335" y="-12" on="1"/>
      </contour>
      <contour>
        <pt x="389" y="77" on="0"/>
        <pt x="471" y="139" on="0"/>
        <pt x="515" y="254" on="0"/>
        <pt x="515" y="330" on="1"/>
        <pt x="515" y="445" on="0"/>
        <pt x="417" y="578" on="0"/>
        <pt x="335" y="578" on="1"/>
        <pt x="253" y="578" on="0"/>
        <pt x="155" y="445" on="0"/>
        <pt x="155" y="330" on="1"/>
        <pt x="155" y="254" on="0"/>
        <pt x="199" y="139" on="0"/>
        <pt x="281" y="77" on="0"/>
        <pt x="335" y="77" on="1"/>
      </contour>
    </TTGlyph>
    <TTGlyph name="OE" xMin="50" yMin="0" xMax="804" yMax="655">
      <contour>
        <pt x="272" y="0" on="0"/>
        <pt x="128" y="77" on="0"/>
        <pt x="50" y="225" on="0"/>
        <pt x="50" y="330" on="1"/>
        <pt x="50" y="487" on="0"/>
        <pt x="223" y="655" on="0"/>
        <pt x="375" y="655" on="1"/>
        <pt x="794" y="655" on="1"/>
        <pt x="794" y="569" on="1"/>
        <pt x="525" y="569" on="1"/>
        <pt x="525" y="385" on="1"/>
        <pt x="750" y="385" on="1"/>
        <pt x="750" y="299" on="1"/>
        <pt x="525" y="299" on="1"/>
        <pt x="525" y="86" on="1"/>
        <pt x="804" y="86" on="1"/>
        <pt x="804" y="0" on="1"/>
        <pt x="370" y="0" on="1"/>
      </contour>
      <contour>
        <pt x="423" y="83" on="1"/>
        <pt x="423" y="572" on="1"/>
        <pt x="382" y="572" on="1"/>
        <pt x="272" y="572" on="0"/>
        <pt x="155" y="451" on="0"/>
        <pt x="155" y="330" on="1"/>
        <pt x="155" y="208" on="0"/>
        <pt x="272" y="83" on="0"/>
        <pt x="382" y="83" on="1"/>
      </contour>
    </TTGlyph>
    <TTGlyph name="Oacute" xMin="50" yMin="-12" xMax="620" yMax="875">
      <component glyphName="O" x="0" y="0" flags="0x0"/>
      <component glyphName="acutecomb.cap" x="335" y="0" flags="0x0"/>
    </TTGlyph>
    <TTGlyph name="Obreve" xMin="50" yMin="-12" xMax="620" yMax="844">
      <component glyphName="O" x="0" y="0" flags="0x0"/>
      <component glyphName="uni0306.cap" x="335" y="0" flags="0x0"/>
    </TTGlyph>
    <TTGlyph name="Ocircumflex" xMin="50" yMin="-12" xMax="620" yMax="837">
      <component glyphName="O" x="0" y="0" flags="0x0"/>
      <component glyphName="uni0302.cap" x="335" y="0" flags="0x0"/>
    </TTGlyph>
    <TTGlyph name="Odieresis" xMin="50" yMin="-12" xMax="620" yMax="821">
      <component glyphName="O" x="0" y="0" flags="0x0"/>
      <component glyphName="uni0308.cap" x="335" y="0" flags="0x0"/>
    </TTGlyph>
    <TTGlyph name="Ograve" xMin="50" yMin="-12" xMax="620" yMax="875">
      <component glyphName="O" x="0" y="0" flags="0x0"/>
      <component glyphName="gravecomb.cap" x="335" y="0" flags="0x0"/>
    </TTGlyph>
    <TTGlyph name="Omacron" xMin="50" yMin="-12" xMax="620" yMax="799">
      <component glyphName="O" x="0" y="0" flags="0x0"/>
      <component glyphName="uni0304.cap" x="335" y="0" flags="0x0"/>
    </TTGlyph>
    <TTGlyph name="Oslash" xMin="47" yMin="-33" xMax="631" yMax="688">
      <contour>
        <pt x="560" y="555" on="1"/>
        <pt x="622" y="468" on="0"/>
        <pt x="622" y="330" on="1"/>
        <pt x="622" y="226" on="0"/>
        <pt x="550" y="71" on="0"/>
        <pt x="421" y="-12" on="0"/>
        <pt x="337" y="-12" on="1"/>
        <pt x="236" y="-12" on="0"/>
        <pt x="165" y="47" on="1"/>
        <pt x="102" y="-33" on="1"/>
        <pt x="47" y="9" on="1"/>
        <pt x="117" y="99" on="1"/>
        <pt x="52" y="191" on="0"/>
        <pt x="52" y="330" on="1"/>
        <pt x="52" y="434" on="0"/>
        <pt x="124" y="586" on="0"/>
        <pt x="253" y="667" on="0"/>
        <pt x="337" y="667" on="1"/>
        <pt x="441" y="667" on="0"/>
        <pt x="513" y="607" on="1"/>
        <pt x="576" y="688" on="1"/>
        <pt x="631" y="646" on="1"/>
      </contour>
      <contour>
        <pt x="157" y="247" on="0"/>
        <pt x="184" y="185" on="1"/>
        <pt x="453" y="530" on="1"/>
        <pt x="407" y="578" on="0"/>
        <pt x="337" y="578" on="1"/>
        <pt x="255" y="578" on="0"/>
        <pt x="157" y="445" on="0"/>
        <pt x="157" y="330" on="1"/>
      </contour>
      <contour>
        <pt x="517" y="409" on="0"/>
        <pt x="492" y="468" on="1"/>
        <pt x="224" y="124" on="1"/>
        <pt x="271" y="77" on="0"/>
        <pt x="337" y="77" on="1"/>
        <pt x="391" y="77" on="0"/>
        <pt x="473" y="139" on="0"/>
        <pt x="517" y="254" on="0"/>
        <pt x="517" y="330" on="1"/>
      </contour>
    </TTGlyph>
    <TTGlyph name="Otilde" xMin="50" yMin="-12" xMax="620" yMax="844">
      <component glyphName="O" x="0" y="0" flags="0x0"/>
      <component glyphName="tildecomb.cap" x="335" y="0" flags="0x0"/>
    </TTGlyph>
    <TTGlyph name="P" xMin="86" yMin="0" xMax="534" yMax="655">
      <contour>
        <pt x="86" y="655" on="1"/>
        <pt x="284" y="655" on="1"/>
        <pt x="534" y="655" on="0"/>
        <pt x="534" y="457" on="1"/>
        <pt x="534" y="354" on="0"/>
        <pt x="399" y="249" on="0"/>
        <pt x="288" y="249" on="1"/>
        <pt x="188" y="249" on="1"/>
        <pt x="188" y="0" on="1"/>
        <pt x="86" y="0" on="1"/>
      </contour>
      <contour>
        <pt x="278" y="331" on="1"/>
        <pt x="357" y="331" on="0"/>
        <pt x="433" y="393" on="0"/>
        <pt x="433" y="457" on="1"/>
        <pt x="433" y="520" on="0"/>
        <pt x="356" y="573" on="0"/>
        <pt x="274" y="573" on="1"/>
        <pt x="188" y="573" on="1"/>
        <pt x="188" y="331" on="1"/>
      </contour>
    </TTGlyph>
    <TTGlyph name="Q" xMin="50" yMin="-170" xMax="640" yMax="667">
      <contour>
        <pt x="640" y="-153" on="1"/>
        <pt x="600" y="-170" on="0"/>
        <pt x="540" y="-170" on="1"/>
        <pt x="449" y="-170" on="0"/>
        <pt x="318" y="-82" on="0"/>
        <pt x="287" y="-8" on="1"/>
        <pt x="216" y="4" on="0"/>
        <pt x="109" y="92" on="0"/>
        <pt x="50" y="236" on="0"/>
        <pt x="50" y="330" on="1"/>
        <pt x="50" y="434" on="0"/>
        <pt x="122" y="586" on="0"/>
        <pt x="251" y="667" on="0"/>
        <pt x="335" y="667" on="1"/>
        <pt x="419" y="667" on="0"/>
        <pt x="548" y="586" on="0"/>
        <pt x="620" y="434" on="0"/>
        <pt x="620" y="330" on="1"/>
        <pt x="620" y="193" on="0"/>
        <pt x="498" y="15" on="0"/>
        <pt x="395" y="-6" on="1"/>
        <pt x="417" y="-46" on="0"/>
        <pt x="499" y="-86" on="0"/>
        <pt x="551" y="-86" on="1"/>
        <pt x="591" y="-86" on="0"/>
        <pt x="621" y="-76" on="1"/>
      </contour>
      <contour>
        <pt x="155" y="251" on="0"/>
        <pt x="199" y="135" on="0"/>
        <pt x="281" y="72" on="0"/>
        <pt x="335" y="72" on="1"/>
        <pt x="389" y="72" on="0"/>
        <pt x="471" y="135" on="0"/>
        <pt x="515" y="251" on="0"/>
        <pt x="515" y="330" on="1"/>
        <pt x="515" y="445" on="0"/>
        <pt x="417" y="578" on="0"/>
        <pt x="335" y="578" on="1"/>
        <pt x="253" y="578" on="0"/>
        <pt x="155" y="445" on="0"/>
        <pt x="155" y="330" on="1"/>
      </contour>
    </TTGlyph>
    <TTGlyph name="R" xMin="86" yMin="0" xMax="559" yMax="655">
      <contour>
        <pt x="444" y="0" on="1"/>
        <pt x="296" y="265" on="1"/>
        <pt x="188" y="265" on="1"/>
        <pt x="188" y="0" on="1"/>
        <pt x="86" y="0" on="1"/>
        <pt x="86" y="655" on="1"/>
        <pt x="300" y="655" on="1"/>
        <pt x="410" y="655" on="0"/>
        <pt x="536" y="566" on="0"/>
        <pt x="536" y="465" on="1"/>
        <pt x="536" y="392" on="0"/>
        <pt x="463" y="298" on="0"/>
        <pt x="398" y="278" on="1"/>
        <pt x="559" y="0" on="1"/>
      </contour>
      <contour>
        <pt x="188" y="347" on="1"/>
        <pt x="288" y="347" on="1"/>
        <pt x="360" y="347" on="0"/>
        <pt x="435" y="406" on="0"/>
        <pt x="435" y="465" on="1"/>
        <pt x="435" y="523" on="0"/>
        <pt x="362" y="573" on="0"/>
        <pt x="288" y="573" on="1"/>
        <pt x="188" y="573" on="1"/>
      </contour>
    </TTGlyph>
    <TTGlyph name="S" xMin="40" yMin="-12" xMax="503" yMax="667">
      <contour>
        <pt x="206" y="-12" on="0"/>
        <pt x="85" y="39" on="0"/>
        <pt x="40" y="85" on="1"/>
        <pt x="100" y="155" on="1"/>
        <pt x="136" y="119" on="0"/>
        <pt x="228" y="77" on="0"/>
        <pt x="275" y="77" on="1"/>
        <pt x="333" y="77" on="0"/>
        <pt x="399" y="128" on="0"/>
        <pt x="399" y="171" on="1"/>
        <pt x="399" y="199" on="0"/>
        <pt x="374" y="236" on="0"/>
        <pt x="333" y="260" on="0"/>
        <pt x="294" y="276" on="1"/>
        <pt x="203" y="316" on="1"/>
        <pt x="70" y="371" on="0"/>
        <pt x="70" y="487" on="1"/>
        <pt x="70" y="538" on="0"/>
        <pt x="125" y="620" on="0"/>
        <pt x="223" y="667" on="0"/>
        <pt x="284" y="667" on="1"/>
        <pt x="341" y="667" on="0"/>
        <pt x="445" y="623" on="0"/>
        <pt x="482" y="585" on="1"/>
        <pt x="429" y="520" on="1"/>
        <pt x="363" y="578" on="0"/>
        <pt x="284" y="578" on="1"/>
        <pt x="233" y="578" on="0"/>
        <pt x="173" y="532" on="0"/>
        <pt x="173" y="493" on="1"/>
        <pt x="173" y="467" on="0"/>
        <pt x="202" y="431" on="0"/>
        <pt x="243" y="409" on="0"/>
        <pt x="279" y="394" on="1"/>
        <pt x="370" y="355" on="1"/>
        <pt x="434" y="329" on="0"/>
        <pt x="503" y="246" on="0"/>
        <pt x="503" y="179" on="1"/>
        <pt x="503" y="126" on="0"/>
        <pt x="447" y="39" on="0"/>
        <pt x="343" y="-12" on="0"/>
        <pt x="273" y="-12" on="1"/>
      </contour>
    </TTGlyph>
    <TTGlyph name="Sacute" xMin="40" yMin="-12" xMax="503" yMax="875">
      <component glyphName="S" x="0" y="0" flags="0x0"/>
      <component glyphName="acutecomb.cap" x="282" y="0" flags="0x0"/>
    </TTGlyph>
    <TTGlyph name="Scaron" xMin="40" yMin="-12" xMax="503" yMax="847">
      <component glyphName="S" x="0" y="0" flags="0x0"/>
      <component glyphName="uni030C.cap" x="282" y="0" flags="0x0"/>
    </TTGlyph>
    <TTGlyph name="T" xMin="27" yMin="0" xMax="515" yMax="655">
      <contour>
        <pt x="220" y="569" on="1"/>
        <pt x="27" y="569" on="1"/>
        <pt x="27" y="655" on="1"/>
        <pt x="515" y="655" on="1"/>
        <pt x="515" y="569" on="1"/>
        <pt x="322" y="569" on="1"/>
        <pt x="322" y="0" on="1"/>
        <pt x="220" y="0" on="1"/>
      </contour>
    </TTGlyph>
    <TTGlyph name="Thorn" xMin="86" yMin="0" xMax="544" yMax="655">
      <contour>
        <pt x="86" y="655" on="1"/>
        <pt x="188" y="655" on="1"/>
        <pt x="188" y="548" on="1"/>
        <pt x="298" y="548" on="1"/>
        <pt x="544" y="548" on="0"/>
        <pt x="544" y="350" on="1"/>
        <pt x="544" y="247" on="0"/>
        <pt x="409" y="142" on="0"/>
        <pt x="298" y="142" on="1"/>
        <pt x="188" y="142" on="1"/>
        <pt x="188" y="0" on="1"/>
        <pt x="86" y="0" on="1"/>
      </contour>
      <contour>
        <pt x="288" y="224" on="1"/>
        <pt x="367" y="224" on="0"/>
        <pt x="443" y="286" on="0"/>
        <pt x="443" y="350" on="1"/>
        <pt x="443" y="413" on="0"/>
        <pt x="368" y="466" on="0"/>
        <pt x="288" y="466" on="1"/>
        <pt x="188" y="466" on="1"/>
        <pt x="188" y="224" on="1"/>
      </contour>
    </TTGlyph>
    <TTGlyph name="U" xMin="83" yMin="-12" xMax="568" yMax="655">
      <contour>
        <pt x="211" y="-12" on="0"/>
        <pt x="83" y="127" on="0"/>
        <pt x="83" y="280" on="1"/>
        <pt x="83" y="655" on="1"/>
        <pt x="185" y="655" on="1"/>
        <pt x="185" y="274" on="1"/>
        <pt x="185" y="168" on="0"/>
        <pt x="260" y="77" on="0"/>
        <pt x="326" y="77" on="1"/>
        <pt x="470" y="77" on="0"/>
        <pt x="470" y="274" on="1"/>
        <pt x="470" y="655" on="1"/>
        <pt x="568" y="655" on="1"/>
        <pt x="568" y="280" on="1"/>
        <pt x="568" y="127" on="0"/>
        <pt x="440" y="-12" on="0"/>
        <pt x="326" y="-12" on="1"/>
      </contour>
    </TTGlyph>
    <TTGlyph name="Uacute" xMin="83" yMin="-12" xMax="568" yMax="875">
      <component glyphName="U" x="0" y="0" flags="0x0"/>
      <component glyphName="acutecomb.cap" x="325" y="0" flags="0x0"/>
    </TTGlyph>
    <TTGlyph name="Ucircumflex" xMin="83" yMin="-12" xMax="568" yMax="837">
      <component glyphName="U" x="0" y="0" flags="0x0"/>
      <component glyphName="uni0302.cap" x="325" y="0" flags="0x0"/>
    </TTGlyph>
    <TTGlyph name="Udieresis" xMin="83" yMin="-12" xMax="568" yMax="821">
      <component glyphName="U" x="0" y="0" flags="0x0"/>
      <component glyphName="uni0308.cap" x="325" y="0" flags="0x0"/>
    </TTGlyph>
    <TTGlyph name="Ugrave" xMin="83" yMin="-12" xMax="568" yMax="875">
      <component glyphName="U" x="0" y="0" flags="0x0"/>
      <component glyphName="gravecomb.cap" x="325" y="0" flags="0x0"/>
    </TTGlyph>
    <TTGlyph name="Umacron" xMin="83" yMin="-12" xMax="568" yMax="799">
      <component glyphName="U" x="0" y="0" flags="0x0"/>
      <component glyphName="uni0304.cap" x="325" y="0" flags="0x0"/>
    </TTGlyph>
    <TTGlyph name="V" xMin="-2" yMin="0" xMax="529" yMax="655">
      <contour>
        <pt x="-2" y="655" on="1"/>
        <pt x="106" y="655" on="1"/>
        <pt x="204" y="315" on="1"/>
        <pt x="212" y="287" on="0"/>
        <pt x="225" y="239" on="0"/>
        <pt x="231" y="219" on="1"/>
        <pt x="251" y="143" on="0"/>
        <pt x="264" y="101" on="1"/>
        <pt x="268" y="101" on="1"/>
        <pt x="293" y="185" on="0"/>
        <pt x="308" y="243" on="1"/>
        <pt x="306" y="236" on="0"/>
        <pt x="328" y="315" on="1"/>
        <pt x="425" y="655" on="1"/>
        <pt x="529" y="655" on="1"/>
        <pt x="324" y="0" on="1"/>
        <pt x="204" y="0" on="1"/>
      </contour>
    </TTGlyph>
    <TTGlyph name="W" xMin="20" yMin="0" xMax="773" yMax="655">
      <contour>
        <pt x="20" y="655" on="1"/>
        <pt x="125" y="655" on="1"/>
        <pt x="187" y="313" on="1"/>
        <pt x="211" y="173" on="0"/>
        <pt x="222" y="103" on="1"/>
        <pt x="226" y="103" on="1"/>
        <pt x="245" y="198" on="0"/>
        <pt x="270" y="313" on="1"/>
        <pt x="355" y="655" on="1"/>
        <pt x="445" y="655" on="1"/>
        <pt x="530" y="313" on="1"/>
        <pt x="575" y="103" on="1"/>
        <pt x="579" y="103" on="1"/>
        <pt x="613" y="313" on="1"/>
        <pt x="675" y="655" on="1"/>
        <pt x="773" y="655" on="1"/>
        <pt x="643" y="0" on="1"/>
        <pt x="518" y="0" on="1"/>
        <pt x="429" y="366" on="1"/>
        <pt x="411" y="450" on="0"/>
        <pt x="399" y="516" on="1"/>
        <pt x="395" y="516" on="1"/>
        <pt x="380" y="437" on="0"/>
        <pt x="369" y="391" on="1"/>
        <pt x="368" y="381" on="0"/>
        <pt x="364" y="366" on="1"/>
        <pt x="277" y="0" on="1"/>
        <pt x="154" y="0" on="1"/>
      </contour>
    </TTGlyph>
    <TTGlyph name="X" xMin="14" yMin="0" xMax="515" yMax="655">
      <contour>
        <pt x="202" y="338" on="1"/>
        <pt x="26" y="655" on="1"/>
        <pt x="139" y="655" on="1"/>
        <pt x="219" y="500" on="1"/>
        <pt x="229" y="482" on="0"/>
        <pt x="248" y="444" on="1"/>
        <pt x="269" y="402" on="1"/>
        <pt x="273" y="402" on="1"/>
        <pt x="300" y="464" on="0"/>
        <pt x="318" y="500" on="1"/>
        <pt x="395" y="655" on="1"/>
        <pt x="503" y="655" on="1"/>
        <pt x="327" y="333" on="1"/>
        <pt x="515" y="0" on="1"/>
        <pt x="402" y="0" on="1"/>
        <pt x="315" y="164" on="1"/>
        <pt x="261" y="270" on="1"/>
        <pt x="257" y="270" on="1"/>
        <pt x="239" y="230" on="0"/>
        <pt x="207" y="164" on="1"/>
        <pt x="122" y="0" on="1"/>
        <pt x="14" y="0" on="1"/>
      </contour>
    </TTGlyph>
    <TTGlyph name="Y" xMin="-3" yMin="0" xMax="493" yMax="655">
      <contour>
        <pt x="194" y="248" on="1"/>
        <pt x="-3" y="655" on="1"/>
        <pt x="106" y="655" on="1"/>
        <pt x="183" y="480" on="1"/>
        <pt x="224" y="381" on="0"/>
        <pt x="244" y="337" on="1"/>
        <pt x="248" y="337" on="1"/>
        <pt x="272" y="391" on="1"/>
        <pt x="303" y="463" on="0"/>
        <pt x="310" y="480" on="1"/>
        <pt x="387" y="655" on="1"/>
        <pt x="493" y="655" on="1"/>
        <pt x="296" y="248" on="1"/>
        <pt x="296" y="0" on="1"/>
        <pt x="194" y="0" on="1"/>
      </contour>
    </TTGlyph>
    <TTGlyph name="Yacute" xMin="-3" yMin="0" xMax="493" yMax="875">
      <component glyphName="Y" x="0" y="0" flags="0x0"/>
      <component glyphName="acutecomb.cap" x="245" y="0" flags="0x0"/>
    </TTGlyph>
    <TTGlyph name="Ydieresis" xMin="-3" yMin="0" xMax="493" yMax="821">
      <component glyphName="Y" x="0" y="0" flags="0x0"/>
      <component glyphName="uni0308.cap" x="245" y="0" flags="0x0"/>
    </TTGlyph>
    <TTGlyph name="Z" xMin="42" yMin="0" xMax="500" yMax="655">
      <contour>
        <pt x="42" y="61" on="1"/>
        <pt x="371" y="569" on="1"/>
        <pt x="72" y="569" on="1"/>
        <pt x="72" y="655" on="1"/>
        <pt x="497" y="655" on="1"/>
        <pt x="497" y="594" on="1"/>
        <pt x="168" y="86" on="1"/>
        <pt x="500" y="86" on="1"/>
        <pt x="500" y="0" on="1"/>
        <pt x="42" y="0" on="1"/>
      </contour>
    </TTGlyph>
    <TTGlyph name="ZWJ" xMin="-150" yMin="785" xMax="151" yMax="894">
      <contour>
        <pt x="-150" y="894" on="1"/>
        <pt x="151" y="894" on="1"/>
        <pt x="151" y="785" on="1"/>
        <pt x="117" y="785" on="1"/>
        <pt x="117" y="858" on="1"/>
        <pt x="-116" y="858" on="1"/>
        <pt x="-116" y="785" on="1"/>
        <pt x="-150" y="785" on="1"/>
      </contour>
    </TTGlyph>
    <TTGlyph name="ZWNJ" xMin="-104" yMin="767" xMax="103" yMax="984">
      <contour>
        <pt x="-104" y="792" on="1"/>
        <pt x="-26" y="875" on="1"/>
        <pt x="-104" y="957" on="1"/>
        <pt x="-81" y="984" on="1"/>
        <pt x="0" y="900" on="1"/>
        <pt x="79" y="982" on="1"/>
        <pt x="103" y="957" on="1"/>
        <pt x="24" y="875" on="1"/>
        <pt x="103" y="792" on="1"/>
        <pt x="79" y="768" on="1"/>
        <pt x="0" y="848" on="1"/>
        <pt x="-81" y="767" on="1"/>
      </contour>
    </TTGlyph>
    <TTGlyph name="Zcaron" xMin="42" yMin="0" xMax="500" yMax="847">
      <component glyphName="Z" x="0" y="0" flags="0x0"/>
      <component glyphName="uni030C.cap" x="281" y="0" flags="0x0"/>
    </TTGlyph>
    <TTGlyph name="a" xMin="49" yMin="-12" xMax="443" yMax="501">
      <contour>
        <pt x="129" y="-12" on="0"/>
        <pt x="49" y="65" on="0"/>
        <pt x="49" y="130" on="1"/>
        <pt x="49" y="209" on="0"/>
        <pt x="189" y="294" on="0"/>
        <pt x="342" y="311" on="1"/>
        <pt x="340" y="419" on="0"/>
        <pt x="248" y="419" on="1"/>
        <pt x="186" y="419" on="0"/>
        <pt x="107" y="369" on="1"/>
        <pt x="69" y="437" on="1"/>
        <pt x="169" y="501" on="0"/>
        <pt x="266" y="501" on="1"/>
        <pt x="355" y="501" on="0"/>
        <pt x="443" y="394" on="0"/>
        <pt x="443" y="294" on="1"/>
        <pt x="443" y="0" on="1"/>
        <pt x="360" y="0" on="1"/>
        <pt x="352" y="56" on="1"/>
        <pt x="349" y="56" on="1"/>
        <pt x="268" y="-12" on="0"/>
        <pt x="193" y="-12" on="1"/>
      </contour>
      <contour>
        <pt x="255" y="68" on="0"/>
        <pt x="309" y="96" on="0"/>
        <pt x="342" y="126" on="1"/>
        <pt x="342" y="247" on="1"/>
        <pt x="236" y="234" on="0"/>
        <pt x="147" y="180" on="0"/>
        <pt x="147" y="137" on="1"/>
        <pt x="147" y="103" on="0"/>
        <pt x="189" y="68" on="0"/>
        <pt x="224" y="68" on="1"/>
      </contour>
    </TTGlyph>
    <TTGlyph name="a.sups" xMin="35" yMin="381" xMax="304" yMax="721">
      <contour>
        <pt x="89" y="381" on="0"/>
        <pt x="35" y="435" on="0"/>
        <pt x="35" y="477" on="1"/>
        <pt x="35" y="529" on="0"/>
        <pt x="128" y="586" on="0"/>
        <pt x="230" y="596" on="1"/>
        <pt x="229" y="627" on="0"/>
        <pt x="203" y="661" on="0"/>
        <pt x="172" y="661" on="1"/>
        <pt x="130" y="661" on="0"/>
        <pt x="74" y="628" on="1"/>
        <pt x="47" y="678" on="1"/>
        <pt x="117" y="721" on="0"/>
        <pt x="184" y="721" on="1"/>
        <pt x="244" y="721" on="0"/>
        <pt x="304" y="651" on="0"/>
        <pt x="304" y="583" on="1"/>
        <pt x="304" y="389" on="1"/>
        <pt x="245" y="389" on="1"/>
        <pt x="237" y="425" on="1"/>
        <pt x="233" y="425" on="1"/>
        <pt x="185" y="381" on="0"/>
        <pt x="134" y="381" on="1"/>
      </contour>
      <contour>
        <pt x="193" y="439" on="0"/>
        <pt x="230" y="475" on="1"/>
        <pt x="230" y="551" on="1"/>
        <pt x="164" y="544" on="0"/>
        <pt x="107" y="509" on="0"/>
        <pt x="107" y="483" on="1"/>
        <pt x="107" y="439" on="0"/>
        <pt x="158" y="439" on="1"/>
      </contour>
    </TTGlyph>
    <TTGlyph name="aacute" xMin="49" yMin="-12" xMax="443" yMax="794">
      <component glyphName="a" x="0" y="0" flags="0x0"/>
      <component glyphName="acutecomb" x="275" y="0" flags="0x0"/>
    </TTGlyph>
    <TTGlyph name="abreve" xMin="49" yMin="-12" xMax="443" yMax="734">
      <component glyphName="a" x="0" y="0" flags="0x0"/>
      <component glyphName="uni0306" x="275" y="0" flags="0x0"/>
    </TTGlyph>
    <TTGlyph name="acircumflex" xMin="49" yMin="-12" xMax="443" yMax="741">
      <component glyphName="a" x="0" y="0" flags="0x0"/>
      <component glyphName="uni0302" x="275" y="0" flags="0x0"/>
    </TTGlyph>
    <TTGlyph name="acute" xMin="215" yMin="573" xMax="430" yMax="794">
      <component glyphName="acutecomb" x="273" y="0" flags="0x0"/>
    </TTGlyph>
    <TTGlyph name="acutecomb" xMin="-58" yMin="573" xMax="157" yMax="794">
      <contour>
        <pt x="-58" y="623" on="1"/>
        <pt x="87" y="794" on="1"/>
        <pt x="157" y="727" on="1"/>
        <pt x="-7" y="573" on="1"/>
      </contour>
    </TTGlyph>
    <TTGlyph name="acutecomb.cap" xMin="-60" yMin="692" xMax="146" yMax="875">
      <contour>
        <pt x="-60" y="743" on="1"/>
        <pt x="90" y="875" on="1"/>
        <pt x="146" y="808" on="1"/>
        <pt x="-15" y="692" on="1"/>
      </contour>
    </TTGlyph>
    <TTGlyph name="adieresis" xMin="49" yMin="-12" xMax="443" yMax="694">
      <component glyphName="a" x="0" y="0" flags="0x0"/>
      <component glyphName="uni0308" x="275" y="0" flags="0x0"/>
    </TTGlyph>
    <TTGlyph name="ae" xMin="55" yMin="-12" xMax="748" yMax="501">
      <contour>
        <pt x="135" y="-12" on="0"/>
        <pt x="55" y="65" on="0"/>
        <pt x="55" y="129" on="1"/>
        <pt x="55" y="208" on="0"/>
        <pt x="194" y="295" on="0"/>
        <pt x="344" y="312" on="1"/>
        <pt x="342" y="419" on="0"/>
        <pt x="251" y="419" on="1"/>
        <pt x="192" y="419" on="0"/>
        <pt x="113" y="369" on="1"/>
        <pt x="75" y="437" on="1"/>
        <pt x="175" y="501" on="0"/>
        <pt x="264" y="501" on="1"/>
        <pt x="314" y="501" on="0"/>
        <pt x="385" y="451" on="0"/>
        <pt x="403" y="406" on="1"/>
        <pt x="433" y="451" on="0"/>
        <pt x="512" y="501" on="0"/>
        <pt x="559" y="501" on="1"/>
        <pt x="649" y="501" on="0"/>
        <pt x="748" y="374" on="0"/>
        <pt x="748" y="268" on="1"/>
        <pt x="748" y="242" on="0"/>
        <pt x="744" y="218" on="1"/>
        <pt x="437" y="218" on="1"/>
        <pt x="441" y="150" on="0"/>
        <pt x="521" y="69" on="0"/>
        <pt x="579" y="69" on="1"/>
        <pt x="610" y="69" on="0"/>
        <pt x="663" y="89" on="0"/>
        <pt x="693" y="108" on="1"/>
        <pt x="729" y="40" on="1"/>
        <pt x="651" y="-12" on="0"/>
        <pt x="566" y="-12" on="1"/>
        <pt x="467" y="-12" on="0"/>
        <pt x="395" y="75" on="1"/>
        <pt x="295" y="-12" on="0"/>
        <pt x="199" y="-12" on="1"/>
      </contour>
      <contour>
        <pt x="660" y="283" on="1"/>
        <pt x="660" y="350" on="0"/>
        <pt x="607" y="422" on="0"/>
        <pt x="556" y="422" on="1"/>
        <pt x="509" y="422" on="0"/>
        <pt x="444" y="347" on="0"/>
        <pt x="437" y="283" on="1"/>
      </contour>
      <contour>
        <pt x="262" y="68" on="0"/>
        <pt x="332" y="103" on="0"/>
        <pt x="361" y="133" on="1"/>
        <pt x="346" y="170" on="0"/>
        <pt x="344" y="224" on="1"/>
        <pt x="343" y="247" on="1"/>
        <pt x="242" y="234" on="0"/>
        <pt x="153" y="180" on="0"/>
        <pt x="153" y="137" on="1"/>
        <pt x="153" y="103" on="0"/>
        <pt x="195" y="68" on="0"/>
        <pt x="230" y="68" on="1"/>
      </contour>
    </TTGlyph>
    <TTGlyph name="agrave" xMin="49" yMin="-12" xMax="443" yMax="794">
      <component glyphName="a" x="0" y="0" flags="0x0"/>
      <component glyphName="gravecomb" x="275" y="0" flags="0x0"/>
    </TTGlyph>
    <TTGlyph name="alphalatin" xMin="45" yMin="-12" xMax="519" yMax="501">
      <contour>
        <pt x="154" y="-12" on="0"/>
        <pt x="45" y="124" on="0"/>
        <pt x="45" y="244" on="1"/>
        <pt x="45" y="321" on="0"/>
        <pt x="104" y="438" on="0"/>
        <pt x="201" y="501" on="0"/>
        <pt x="256" y="501" on="1"/>
        <pt x="295" y="501" on="0"/>
        <pt x="359" y="472" on="0"/>
        <pt x="391" y="441" on="1"/>
        <pt x="394" y="441" on="1"/>
        <pt x="402" y="489" on="1"/>
        <pt x="483" y="489" on="1"/>
        <pt x="483" y="103" on="1"/>
        <pt x="483" y="71" on="0"/>
        <pt x="503" y="71" on="1"/>
        <pt x="510" y="71" on="0"/>
        <pt x="518" y="73" on="1"/>
        <pt x="519" y="-4" on="1"/>
        <pt x="500" y="-12" on="0"/>
        <pt x="473" y="-12" on="1"/>
        <pt x="409" y="-12" on="0"/>
        <pt x="395" y="58" on="1"/>
        <pt x="392" y="58" on="1"/>
        <pt x="364" y="28" on="0"/>
        <pt x="286" y="-12" on="0"/>
        <pt x="246" y="-12" on="1"/>
      </contour>
      <contour>
        <pt x="301" y="72" on="0"/>
        <pt x="355" y="101" on="0"/>
        <pt x="382" y="132" on="1"/>
        <pt x="382" y="372" on="1"/>
        <pt x="332" y="417" on="0"/>
        <pt x="274" y="417" on="1"/>
        <pt x="239" y="417" on="0"/>
        <pt x="182" y="375" on="0"/>
        <pt x="149" y="297" on="0"/>
        <pt x="149" y="245" on="1"/>
        <pt x="149" y="162" on="0"/>
        <pt x="212" y="72" on="0"/>
        <pt x="270" y="72" on="1"/>
      </contour>
    </TTGlyph>
    <TTGlyph name="amacron" xMin="49" yMin="-12" xMax="443" yMax="666">
      <component glyphName="a" x="0" y="0" flags="0x0"/>
      <component glyphName="uni0304" x="275" y="0" flags="0x0"/>
    </TTGlyph>
    <TTGlyph name="ampersand" xMin="30" yMin="-12" xMax="610" yMax="667">
      <contour>
        <pt x="584" y="-12" on="1"/>
        <pt x="511" y="6" on="0"/>
        <pt x="429" y="61" on="1"/>
        <pt x="346" y="-12" on="0"/>
        <pt x="235" y="-12" on="1"/>
        <pt x="174" y="-12" on="0"/>
        <pt x="81" y="36" on="0"/>
        <pt x="30" y="119" on="0"/>
        <pt x="30" y="171" on="1"/>
        <pt x="30" y="232" on="0"/>
        <pt x="97" y="319" on="0"/>
        <pt x="156" y="359" on="1"/>
        <pt x="114" y="441" on="0"/>
        <pt x="114" y="507" on="1"/>
        <pt x="114" y="551" on="0"/>
        <pt x="154" y="625" on="0"/>
        <pt x="226" y="667" on="0"/>
        <pt x="273" y="667" on="1"/>
        <pt x="337" y="667" on="0"/>
        <pt x="411" y="593" on="0"/>
        <pt x="411" y="532" on="1"/>
        <pt x="411" y="474" on="0"/>
        <pt x="336" y="390" on="0"/>
        <pt x="266" y="340" on="1"/>
        <pt x="333" y="247" on="0"/>
        <pt x="423" y="176" on="1"/>
        <pt x="482" y="254" on="0"/>
        <pt x="510" y="358" on="1"/>
        <pt x="603" y="358" on="1"/>
        <pt x="563" y="223" on="0"/>
        <pt x="490" y="128" on="1"/>
        <pt x="559" y="84" on="0"/>
        <pt x="610" y="71" on="1"/>
      </contour>
      <contour>
        <pt x="200" y="461" on="0"/>
        <pt x="228" y="405" on="1"/>
        <pt x="278" y="437" on="0"/>
        <pt x="331" y="494" on="0"/>
        <pt x="331" y="531" on="1"/>
        <pt x="331" y="560" on="0"/>
        <pt x="303" y="597" on="0"/>
        <pt x="274" y="597" on="1"/>
        <pt x="241" y="597" on="0"/>
        <pt x="200" y="547" on="0"/>
        <pt x="200" y="508" on="1"/>
      </contour>
      <contour>
        <pt x="127" y="128" on="0"/>
        <pt x="195" y="67" on="0"/>
        <pt x="247" y="67" on="1"/>
        <pt x="303" y="67" on="0"/>
        <pt x="361" y="112" on="1"/>
        <pt x="263" y="196" on="0"/>
        <pt x="198" y="290" on="1"/>
        <pt x="164" y="263" on="0"/>
        <pt x="127" y="209" on="0"/>
        <pt x="127" y="177" on="1"/>
      </contour>
    </TTGlyph>
    <TTGlyph name="ampersand.lat" xMin="30" yMin="-12" xMax="610" yMax="667">
      <contour>
        <pt x="584" y="-12" on="1"/>
        <pt x="511" y="6" on="0"/>
        <pt x="429" y="61" on="1"/>
        <pt x="346" y="-12" on="0"/>
        <pt x="235" y="-12" on="1"/>
        <pt x="174" y="-12" on="0"/>
        <pt x="81" y="36" on="0"/>
        <pt x="30" y="119" on="0"/>
        <pt x="30" y="171" on="1"/>
        <pt x="30" y="232" on="0"/>
        <pt x="97" y="319" on="0"/>
        <pt x="156" y="359" on="1"/>
        <pt x="114" y="441" on="0"/>
        <pt x="114" y="507" on="1"/>
        <pt x="114" y="551" on="0"/>
        <pt x="154" y="625" on="0"/>
        <pt x="226" y="667" on="0"/>
        <pt x="273" y="667" on="1"/>
        <pt x="337" y="667" on="0"/>
        <pt x="411" y="593" on="0"/>
        <pt x="411" y="532" on="1"/>
        <pt x="411" y="474" on="0"/>
        <pt x="336" y="390" on="0"/>
        <pt x="266" y="340" on="1"/>
        <pt x="333" y="247" on="0"/>
        <pt x="423" y="176" on="1"/>
        <pt x="482" y="254" on="0"/>
        <pt x="510" y="358" on="1"/>
        <pt x="603" y="358" on="1"/>
        <pt x="563" y="223" on="0"/>
        <pt x="490" y="128" on="1"/>
        <pt x="559" y="84" on="0"/>
        <pt x="610" y="71" on="1"/>
      </contour>
      <contour>
        <pt x="200" y="461" on="0"/>
        <pt x="228" y="405" on="1"/>
        <pt x="278" y="437" on="0"/>
        <pt x="331" y="494" on="0"/>
        <pt x="331" y="531" on="1"/>
        <pt x="331" y="560" on="0"/>
        <pt x="303" y="597" on="0"/>
        <pt x="274" y="597" on="1"/>
        <pt x="241" y="597" on="0"/>
        <pt x="200" y="547" on="0"/>
        <pt x="200" y="508" on="1"/>
      </contour>
      <contour>
        <pt x="127" y="128" on="0"/>
        <pt x="195" y="67" on="0"/>
        <pt x="247" y="67" on="1"/>
        <pt x="303" y="67" on="0"/>
        <pt x="361" y="112" on="1"/>
        <pt x="263" y="196" on="0"/>
        <pt x="198" y="290" on="1"/>
        <pt x="164" y="263" on="0"/>
        <pt x="127" y="209" on="0"/>
        <pt x="127" y="177" on="1"/>
      </contour>
    </TTGlyph>
    <TTGlyph name="approxequal" xMin="34" yMin="142" xMax="472" yMax="518">
      <component glyphName="asciitilde" x="0" y="110" flags="0x4"/>
      <component glyphName="asciitilde" x="0" y="-110" flags="0x4"/>
    </TTGlyph>
    <TTGlyph name="aring" xMin="49" yMin="-12" xMax="443" yMax="757">
      <component glyphName="a" x="0" y="0" flags="0x0"/>
      <component glyphName="uni030A" x="275" y="0" flags="0x0"/>
    </TTGlyph>
    <TTGlyph name="asciicircum" xMin="57" yMin="281" xMax="449" yMax="670">
      <contour>
        <pt x="210" y="670" on="1"/>
        <pt x="296" y="670" on="1"/>
        <pt x="449" y="281" on="1"/>
        <pt x="363" y="281" on="1"/>
        <pt x="303" y="443" on="1"/>
        <pt x="255" y="577" on="1"/>
        <pt x="251" y="577" on="1"/>
        <pt x="203" y="443" on="1"/>
        <pt x="143" y="281" on="1"/>
        <pt x="57" y="281" on="1"/>
      </contour>
    </TTGlyph>
    <TTGlyph name="asciicircum.lat" xMin="57" yMin="281" xMax="449" yMax="670">
      <contour>
        <pt x="210" y="670" on="1"/>
        <pt x="296" y="670" on="1"/>
        <pt x="449" y="281" on="1"/>
        <pt x="363" y="281" on="1"/>
        <pt x="303" y="443" on="1"/>
        <pt x="255" y="577" on="1"/>
        <pt x="251" y="577" on="1"/>
        <pt x="203" y="443" on="1"/>
        <pt x="143" y="281" on="1"/>
        <pt x="57" y="281" on="1"/>
      </contour>
    </TTGlyph>
    <TTGlyph name="asciitilde" xMin="34" yMin="252" xMax="472" yMax="408">
      <contour>
        <pt x="311" y="252" on="0"/>
        <pt x="266" y="275" on="0"/>
        <pt x="236" y="298" on="1"/>
        <pt x="213" y="316" on="0"/>
        <pt x="181" y="334" on="0"/>
        <pt x="164" y="334" on="1"/>
        <pt x="121" y="334" on="0"/>
        <pt x="89" y="274" on="1"/>
        <pt x="34" y="314" on="1"/>
        <pt x="63" y="362" on="0"/>
        <pt x="130" y="408" on="0"/>
        <pt x="166" y="408" on="1"/>
        <pt x="195" y="408" on="0"/>
        <pt x="240" y="385" on="0"/>
        <pt x="270" y="362" on="1"/>
        <pt x="293" y="344" on="0"/>
        <pt x="325" y="326" on="0"/>
        <pt x="342" y="326" on="1"/>
        <pt x="385" y="326" on="0"/>
        <pt x="417" y="386" on="1"/>
        <pt x="472" y="345" on="1"/>
        <pt x="443" y="297" on="0"/>
        <pt x="375" y="252" on="0"/>
        <pt x="340" y="252" on="1"/>
      </contour>
    </TTGlyph>
    <TTGlyph name="asterisk" xMin="52" yMin="400" xMax="377" yMax="712">
      <contour>
        <pt x="95" y="433" on="1"/>
        <pt x="152" y="530" on="1"/>
        <pt x="52" y="573" on="1"/>
        <pt x="70" y="626" on="1"/>
        <pt x="176" y="601" on="1"/>
        <pt x="186" y="712" on="1"/>
        <pt x="243" y="712" on="1"/>
        <pt x="253" y="602" on="1"/>
        <pt x="360" y="626" on="1"/>
        <pt x="377" y="573" on="1"/>
        <pt x="277" y="530" on="1"/>
        <pt x="334" y="433" on="1"/>
        <pt x="288" y="400" on="1"/>
        <pt x="215" y="486" on="1"/>
        <pt x="141" y="400" on="1"/>
      </contour>
    </TTGlyph>
    <TTGlyph name="asterisk.lat" xMin="52" yMin="400" xMax="377" yMax="712">
      <contour>
        <pt x="95" y="433" on="1"/>
        <pt x="152" y="530" on="1"/>
        <pt x="52" y="573" on="1"/>
        <pt x="70" y="626" on="1"/>
        <pt x="176" y="601" on="1"/>
        <pt x="186" y="712" on="1"/>
        <pt x="243" y="712" on="1"/>
        <pt x="253" y="602" on="1"/>
        <pt x="360" y="626" on="1"/>
        <pt x="377" y="573" on="1"/>
        <pt x="277" y="530" on="1"/>
        <pt x="334" y="433" on="1"/>
        <pt x="288" y="400" on="1"/>
        <pt x="215" y="486" on="1"/>
        <pt x="141" y="400" on="1"/>
      </contour>
    </TTGlyph>
    <TTGlyph name="at" xMin="50" yMin="-160" xMax="813" yMax="653">
      <contour>
        <pt x="309" y="-160" on="0"/>
        <pt x="146" y="-76" on="0"/>
        <pt x="50" y="88" on="0"/>
        <pt x="50" y="204" on="1"/>
        <pt x="50" y="336" on="0"/>
        <pt x="166" y="540" on="0"/>
        <pt x="362" y="653" on="0"/>
        <pt x="477" y="653" on="1"/>
        <pt x="579" y="653" on="0"/>
        <pt x="731" y="568" on="0"/>
        <pt x="813" y="414" on="0"/>
        <pt x="813" y="314" on="1"/>
        <pt x="813" y="230" on="0"/>
        <pt x="751" y="109" on="0"/>
        <pt x="655" y="46" on="0"/>
        <pt x="605" y="46" on="1"/>
        <pt x="562" y="46" on="0"/>
        <pt x="504" y="86" on="0"/>
        <pt x="498" y="122" on="1"/>
        <pt x="496" y="122" on="1"/>
        <pt x="472" y="92" on="0"/>
        <pt x="406" y="54" on="0"/>
        <pt x="375" y="54" on="1"/>
        <pt x="320" y="54" on="0"/>
        <pt x="251" y="131" on="0"/>
        <pt x="251" y="198" on="1"/>
        <pt x="251" y="254" on="0"/>
        <pt x="301" y="364" on="0"/>
        <pt x="391" y="434" on="0"/>
        <pt x="446" y="434" on="1"/>
        <pt x="499" y="434" on="0"/>
        <pt x="525" y="385" on="1"/>
        <pt x="527" y="385" on="1"/>
        <pt x="539" y="426" on="1"/>
        <pt x="604" y="426" on="1"/>
        <pt x="563" y="220" on="1"/>
        <pt x="556" y="195" on="0"/>
        <pt x="556" y="172" on="1"/>
        <pt x="556" y="112" on="0"/>
        <pt x="615" y="112" on="1"/>
        <pt x="647" y="112" on="0"/>
        <pt x="707" y="161" on="0"/>
        <pt x="745" y="252" on="0"/>
        <pt x="745" y="311" on="1"/>
        <pt x="745" y="391" on="0"/>
        <pt x="683" y="516" on="0"/>
        <pt x="559" y="588" on="0"/>
        <pt x="469" y="588" on="1"/>
        <pt x="380" y="588" on="0"/>
        <pt x="220" y="492" on="0"/>
        <pt x="122" y="318" on="0"/>
        <pt x="122" y="207" on="1"/>
        <pt x="122" y="112" on="0"/>
        <pt x="199" y="-25" on="0"/>
        <pt x="334" y="-95" on="0"/>
        <pt x="418" y="-95" on="1"/>
        <pt x="460" y="-95" on="0"/>
        <pt x="542" y="-72" on="0"/>
        <pt x="577" y="-52" on="1"/>
        <pt x="602" y="-110" on="1"/>
        <pt x="515" y="-160" on="0"/>
        <pt x="410" y="-160" on="1"/>
      </contour>
      <contour>
        <pt x="435" y="121" on="0"/>
        <pt x="480" y="176" on="1"/>
        <pt x="507" y="328" on="1"/>
        <pt x="495" y="348" on="0"/>
        <pt x="467" y="366" on="0"/>
        <pt x="448" y="366" on="1"/>
        <pt x="413" y="366" on="0"/>
        <pt x="360" y="316" on="0"/>
        <pt x="330" y="241" on="0"/>
        <pt x="330" y="204" on="1"/>
        <pt x="330" y="162" on="0"/>
        <pt x="365" y="121" on="0"/>
        <pt x="395" y="121" on="1"/>
      </contour>
    </TTGlyph>
    <TTGlyph name="at.lat" xMin="50" yMin="-160" xMax="813" yMax="653">
      <contour>
        <pt x="309" y="-160" on="0"/>
        <pt x="146" y="-76" on="0"/>
        <pt x="50" y="88" on="0"/>
        <pt x="50" y="204" on="1"/>
        <pt x="50" y="336" on="0"/>
        <pt x="166" y="540" on="0"/>
        <pt x="362" y="653" on="0"/>
        <pt x="477" y="653" on="1"/>
        <pt x="579" y="653" on="0"/>
        <pt x="731" y="568" on="0"/>
        <pt x="813" y="414" on="0"/>
        <pt x="813" y="314" on="1"/>
        <pt x="813" y="230" on="0"/>
        <pt x="751" y="109" on="0"/>
        <pt x="655" y="46" on="0"/>
        <pt x="605" y="46" on="1"/>
        <pt x="562" y="46" on="0"/>
        <pt x="504" y="86" on="0"/>
        <pt x="498" y="122" on="1"/>
        <pt x="496" y="122" on="1"/>
        <pt x="472" y="92" on="0"/>
        <pt x="406" y="54" on="0"/>
        <pt x="375" y="54" on="1"/>
        <pt x="320" y="54" on="0"/>
        <pt x="251" y="131" on="0"/>
        <pt x="251" y="198" on="1"/>
        <pt x="251" y="254" on="0"/>
        <pt x="301" y="364" on="0"/>
        <pt x="391" y="434" on="0"/>
        <pt x="446" y="434" on="1"/>
        <pt x="499" y="434" on="0"/>
        <pt x="525" y="385" on="1"/>
        <pt x="527" y="385" on="1"/>
        <pt x="539" y="426" on="1"/>
        <pt x="604" y="426" on="1"/>
        <pt x="563" y="220" on="1"/>
        <pt x="556" y="195" on="0"/>
        <pt x="556" y="172" on="1"/>
        <pt x="556" y="112" on="0"/>
        <pt x="615" y="112" on="1"/>
        <pt x="647" y="112" on="0"/>
        <pt x="707" y="161" on="0"/>
        <pt x="745" y="252" on="0"/>
        <pt x="745" y="311" on="1"/>
        <pt x="745" y="391" on="0"/>
        <pt x="683" y="516" on="0"/>
        <pt x="559" y="588" on="0"/>
        <pt x="469" y="588" on="1"/>
        <pt x="380" y="588" on="0"/>
        <pt x="220" y="492" on="0"/>
        <pt x="122" y="318" on="0"/>
        <pt x="122" y="207" on="1"/>
        <pt x="122" y="112" on="0"/>
        <pt x="199" y="-25" on="0"/>
        <pt x="334" y="-95" on="0"/>
        <pt x="418" y="-95" on="1"/>
        <pt x="460" y="-95" on="0"/>
        <pt x="542" y="-72" on="0"/>
        <pt x="577" y="-52" on="1"/>
        <pt x="602" y="-110" on="1"/>
        <pt x="515" y="-160" on="0"/>
        <pt x="410" y="-160" on="1"/>
      </contour>
      <contour>
        <pt x="435" y="121" on="0"/>
        <pt x="480" y="176" on="1"/>
        <pt x="507" y="328" on="1"/>
        <pt x="495" y="348" on="0"/>
        <pt x="467" y="366" on="0"/>
        <pt x="448" y="366" on="1"/>
        <pt x="413" y="366" on="0"/>
        <pt x="360" y="316" on="0"/>
        <pt x="330" y="241" on="0"/>
        <pt x="330" y="204" on="1"/>
        <pt x="330" y="162" on="0"/>
        <pt x="365" y="121" on="0"/>
        <pt x="395" y="121" on="1"/>
      </contour>
    </TTGlyph>
    <TTGlyph name="atilde" xMin="49" yMin="-12" xMax="453" yMax="726">
      <component glyphName="a" x="0" y="0" flags="0x0"/>
      <component glyphName="tildecomb" x="275" y="0" flags="0x0"/>
    </TTGlyph>
    <TTGlyph name="b" xMin="77" yMin="-12" xMax="515" yMax="709">
      <contour>
        <pt x="271" y="-12" on="0"/>
        <pt x="201" y="21" on="0"/>
        <pt x="169" y="51" on="1"/>
        <pt x="166" y="51" on="1"/>
        <pt x="157" y="0" on="1"/>
        <pt x="77" y="0" on="1"/>
        <pt x="77" y="709" on="1"/>
        <pt x="178" y="709" on="1"/>
        <pt x="178" y="521" on="1"/>
        <pt x="175" y="437" on="1"/>
        <pt x="209" y="466" on="0"/>
        <pt x="285" y="501" on="0"/>
        <pt x="322" y="501" on="1"/>
        <pt x="414" y="501" on="0"/>
        <pt x="515" y="367" on="0"/>
        <pt x="515" y="253" on="1"/>
        <pt x="515" y="172" on="0"/>
        <pt x="457" y="52" on="0"/>
        <pt x="361" y="-12" on="0"/>
        <pt x="305" y="-12" on="1"/>
      </contour>
      <contour>
        <pt x="341" y="72" on="0"/>
        <pt x="411" y="167" on="0"/>
        <pt x="411" y="251" on="1"/>
        <pt x="411" y="417" on="0"/>
        <pt x="295" y="417" on="1"/>
        <pt x="240" y="417" on="0"/>
        <pt x="178" y="357" on="1"/>
        <pt x="178" y="117" on="1"/>
        <pt x="205" y="94" on="0"/>
        <pt x="260" y="72" on="0"/>
        <pt x="285" y="72" on="1"/>
      </contour>
    </TTGlyph>
    <TTGlyph name="backslash" xMin="18" yMin="-160" xMax="336" yMax="710">
      <contour>
        <pt x="18" y="710" on="1"/>
        <pt x="88" y="710" on="1"/>
        <pt x="336" y="-160" on="1"/>
        <pt x="266" y="-160" on="1"/>
      </contour>
    </TTGlyph>
    <TTGlyph name="backslash.lat" xMin="18" yMin="-160" xMax="336" yMax="710">
      <contour>
        <pt x="18" y="710" on="1"/>
        <pt x="88" y="710" on="1"/>
        <pt x="336" y="-160" on="1"/>
        <pt x="266" y="-160" on="1"/>
      </contour>
    </TTGlyph>
    <TTGlyph name="bar" xMin="90" yMin="-250" xMax="159" yMax="750">
      <contour>
        <pt x="90" y="750" on="1"/>
        <pt x="159" y="750" on="1"/>
        <pt x="159" y="-250" on="1"/>
        <pt x="90" y="-250" on="1"/>
      </contour>
    </TTGlyph>
    <TTGlyph name="braceleft" xMin="33" yMin="-152" xMax="280" yMax="708">
      <contour>
        <pt x="166" y="-152" on="0"/>
        <pt x="110" y="-92" on="0"/>
        <pt x="110" y="-16" on="1"/>
        <pt x="110" y="31" on="0"/>
        <pt x="115" y="81" on="1"/>
        <pt x="119" y="139" on="0"/>
        <pt x="119" y="170" on="1"/>
        <pt x="119" y="203" on="0"/>
        <pt x="79" y="246" on="0"/>
        <pt x="33" y="247" on="1"/>
        <pt x="33" y="309" on="1"/>
        <pt x="79" y="310" on="0"/>
        <pt x="119" y="353" on="0"/>
        <pt x="119" y="385" on="1"/>
        <pt x="119" y="417" on="0"/>
        <pt x="115" y="475" on="1"/>
        <pt x="110" y="525" on="0"/>
        <pt x="110" y="572" on="1"/>
        <pt x="110" y="648" on="0"/>
        <pt x="166" y="708" on="0"/>
        <pt x="230" y="708" on="1"/>
        <pt x="280" y="708" on="1"/>
        <pt x="280" y="652" on="1"/>
        <pt x="256" y="652" on="1"/>
        <pt x="219" y="652" on="0"/>
        <pt x="192" y="614" on="0"/>
        <pt x="192" y="567" on="1"/>
        <pt x="192" y="539" on="0"/>
        <pt x="194" y="485" on="1"/>
        <pt x="197" y="440" on="0"/>
        <pt x="197" y="391" on="1"/>
        <pt x="197" y="340" on="0"/>
        <pt x="168" y="289" on="0"/>
        <pt x="133" y="280" on="1"/>
        <pt x="133" y="276" on="1"/>
        <pt x="167" y="267" on="0"/>
        <pt x="197" y="215" on="0"/>
        <pt x="197" y="165" on="1"/>
        <pt x="197" y="116" on="0"/>
        <pt x="194" y="72" on="1"/>
        <pt x="192" y="16" on="0"/>
        <pt x="192" y="-11" on="1"/>
        <pt x="192" y="-58" on="0"/>
        <pt x="219" y="-96" on="0"/>
        <pt x="256" y="-96" on="1"/>
        <pt x="280" y="-96" on="1"/>
        <pt x="280" y="-152" on="1"/>
        <pt x="230" y="-152" on="1"/>
      </contour>
    </TTGlyph>
    <TTGlyph name="braceleft.lat" xMin="33" yMin="-152" xMax="280" yMax="708">
      <contour>
        <pt x="166" y="-152" on="0"/>
        <pt x="110" y="-92" on="0"/>
        <pt x="110" y="-16" on="1"/>
        <pt x="110" y="31" on="0"/>
        <pt x="115" y="81" on="1"/>
        <pt x="119" y="139" on="0"/>
        <pt x="119" y="170" on="1"/>
        <pt x="119" y="203" on="0"/>
        <pt x="79" y="246" on="0"/>
        <pt x="33" y="247" on="1"/>
        <pt x="33" y="309" on="1"/>
        <pt x="79" y="310" on="0"/>
        <pt x="119" y="353" on="0"/>
        <pt x="119" y="385" on="1"/>
        <pt x="119" y="417" on="0"/>
        <pt x="115" y="475" on="1"/>
        <pt x="110" y="525" on="0"/>
        <pt x="110" y="572" on="1"/>
        <pt x="110" y="648" on="0"/>
        <pt x="166" y="708" on="0"/>
        <pt x="230" y="708" on="1"/>
        <pt x="280" y="708" on="1"/>
        <pt x="280" y="652" on="1"/>
        <pt x="256" y="652" on="1"/>
        <pt x="219" y="652" on="0"/>
        <pt x="192" y="614" on="0"/>
        <pt x="192" y="567" on="1"/>
        <pt x="192" y="539" on="0"/>
        <pt x="194" y="485" on="1"/>
        <pt x="197" y="440" on="0"/>
        <pt x="197" y="391" on="1"/>
        <pt x="197" y="340" on="0"/>
        <pt x="168" y="289" on="0"/>
        <pt x="133" y="280" on="1"/>
        <pt x="133" y="276" on="1"/>
        <pt x="167" y="267" on="0"/>
        <pt x="197" y="215" on="0"/>
        <pt x="197" y="165" on="1"/>
        <pt x="197" y="116" on="0"/>
        <pt x="194" y="72" on="1"/>
        <pt x="192" y="16" on="0"/>
        <pt x="192" y="-11" on="1"/>
        <pt x="192" y="-58" on="0"/>
        <pt x="219" y="-96" on="0"/>
        <pt x="256" y="-96" on="1"/>
        <pt x="280" y="-96" on="1"/>
        <pt x="280" y="-152" on="1"/>
        <pt x="230" y="-152" on="1"/>
      </contour>
    </TTGlyph>
    <TTGlyph name="braceright" xMin="35" yMin="-152" xMax="282" yMax="708">
      <contour>
        <pt x="35" y="-96" on="1"/>
        <pt x="59" y="-96" on="1"/>
        <pt x="96" y="-96" on="0"/>
        <pt x="123" y="-59" on="0"/>
        <pt x="123" y="-11" on="1"/>
        <pt x="123" y="16" on="0"/>
        <pt x="121" y="72" on="1"/>
        <pt x="118" y="116" on="0"/>
        <pt x="118" y="165" on="1"/>
        <pt x="118" y="215" on="0"/>
        <pt x="148" y="267" on="0"/>
        <pt x="182" y="276" on="1"/>
        <pt x="182" y="280" on="1"/>
        <pt x="148" y="289" on="0"/>
        <pt x="118" y="340" on="0"/>
        <pt x="118" y="391" on="1"/>
        <pt x="118" y="440" on="0"/>
        <pt x="121" y="485" on="1"/>
        <pt x="123" y="539" on="0"/>
        <pt x="123" y="567" on="1"/>
        <pt x="123" y="615" on="0"/>
        <pt x="96" y="652" on="0"/>
        <pt x="59" y="652" on="1"/>
        <pt x="35" y="652" on="1"/>
        <pt x="35" y="708" on="1"/>
        <pt x="85" y="708" on="1"/>
        <pt x="149" y="708" on="0"/>
        <pt x="205" y="648" on="0"/>
        <pt x="205" y="572" on="1"/>
        <pt x="205" y="525" on="0"/>
        <pt x="200" y="475" on="1"/>
        <pt x="196" y="417" on="0"/>
        <pt x="196" y="385" on="1"/>
        <pt x="196" y="353" on="0"/>
        <pt x="236" y="310" on="0"/>
        <pt x="282" y="309" on="1"/>
        <pt x="282" y="247" on="1"/>
        <pt x="236" y="246" on="0"/>
        <pt x="196" y="203" on="0"/>
        <pt x="196" y="170" on="1"/>
        <pt x="196" y="139" on="0"/>
        <pt x="200" y="81" on="1"/>
        <pt x="205" y="31" on="0"/>
        <pt x="205" y="-16" on="1"/>
        <pt x="205" y="-92" on="0"/>
        <pt x="149" y="-152" on="0"/>
        <pt x="85" y="-152" on="1"/>
        <pt x="35" y="-152" on="1"/>
      </contour>
    </TTGlyph>
    <TTGlyph name="braceright.lat" xMin="35" yMin="-152" xMax="282" yMax="708">
      <contour>
        <pt x="35" y="-96" on="1"/>
        <pt x="59" y="-96" on="1"/>
        <pt x="96" y="-96" on="0"/>
        <pt x="123" y="-59" on="0"/>
        <pt x="123" y="-11" on="1"/>
        <pt x="123" y="16" on="0"/>
        <pt x="121" y="72" on="1"/>
        <pt x="118" y="116" on="0"/>
        <pt x="118" y="165" on="1"/>
        <pt x="118" y="215" on="0"/>
        <pt x="148" y="267" on="0"/>
        <pt x="182" y="276" on="1"/>
        <pt x="182" y="280" on="1"/>
        <pt x="148" y="289" on="0"/>
        <pt x="118" y="340" on="0"/>
        <pt x="118" y="391" on="1"/>
        <pt x="118" y="440" on="0"/>
        <pt x="121" y="485" on="1"/>
        <pt x="123" y="539" on="0"/>
        <pt x="123" y="567" on="1"/>
        <pt x="123" y="615" on="0"/>
        <pt x="96" y="652" on="0"/>
        <pt x="59" y="652" on="1"/>
        <pt x="35" y="652" on="1"/>
        <pt x="35" y="708" on="1"/>
        <pt x="85" y="708" on="1"/>
        <pt x="149" y="708" on="0"/>
        <pt x="205" y="648" on="0"/>
        <pt x="205" y="572" on="1"/>
        <pt x="205" y="525" on="0"/>
        <pt x="200" y="475" on="1"/>
        <pt x="196" y="417" on="0"/>
        <pt x="196" y="385" on="1"/>
        <pt x="196" y="353" on="0"/>
        <pt x="236" y="310" on="0"/>
        <pt x="282" y="309" on="1"/>
        <pt x="282" y="247" on="1"/>
        <pt x="236" y="246" on="0"/>
        <pt x="196" y="203" on="0"/>
        <pt x="196" y="170" on="1"/>
        <pt x="196" y="139" on="0"/>
        <pt x="200" y="81" on="1"/>
        <pt x="205" y="31" on="0"/>
        <pt x="205" y="-16" on="1"/>
        <pt x="205" y="-92" on="0"/>
        <pt x="149" y="-152" on="0"/>
        <pt x="85" y="-152" on="1"/>
        <pt x="35" y="-152" on="1"/>
      </contour>
    </TTGlyph>
    <TTGlyph name="bracketleft" xMin="92" yMin="-152" xMax="280" yMax="708">
      <contour>
        <pt x="92" y="708" on="1"/>
        <pt x="280" y="708" on="1"/>
        <pt x="280" y="652" on="1"/>
        <pt x="168" y="652" on="1"/>
        <pt x="168" y="-96" on="1"/>
        <pt x="280" y="-96" on="1"/>
        <pt x="280" y="-152" on="1"/>
        <pt x="92" y="-152" on="1"/>
      </contour>
    </TTGlyph>
    <TTGlyph name="bracketleft.lat" xMin="92" yMin="-152" xMax="280" yMax="708">
      <contour>
        <pt x="92" y="708" on="1"/>
        <pt x="280" y="708" on="1"/>
        <pt x="280" y="652" on="1"/>
        <pt x="168" y="652" on="1"/>
        <pt x="168" y="-96" on="1"/>
        <pt x="280" y="-96" on="1"/>
        <pt x="280" y="-152" on="1"/>
        <pt x="92" y="-152" on="1"/>
      </contour>
    </TTGlyph>
    <TTGlyph name="bracketright" xMin="35" yMin="-152" xMax="223" yMax="708">
      <contour>
        <pt x="35" y="-96" on="1"/>
        <pt x="147" y="-96" on="1"/>
        <pt x="147" y="652" on="1"/>
        <pt x="35" y="652" on="1"/>
        <pt x="35" y="708" on="1"/>
        <pt x="223" y="708" on="1"/>
        <pt x="223" y="-152" on="1"/>
        <pt x="35" y="-152" on="1"/>
      </contour>
    </TTGlyph>
    <TTGlyph name="bracketright.lat" xMin="35" yMin="-152" xMax="223" yMax="708">
      <contour>
        <pt x="35" y="-96" on="1"/>
        <pt x="147" y="-96" on="1"/>
        <pt x="147" y="652" on="1"/>
        <pt x="35" y="652" on="1"/>
        <pt x="35" y="708" on="1"/>
        <pt x="223" y="708" on="1"/>
        <pt x="223" y="-152" on="1"/>
        <pt x="35" y="-152" on="1"/>
      </contour>
    </TTGlyph>
    <TTGlyph name="breve" xMin="113" yMin="571" xMax="433" yMax="734">
      <component glyphName="uni0306" x="273" y="0" flags="0x0"/>
    </TTGlyph>
    <TTGlyph name="brokenbar" xMin="90" yMin="12" xMax="159" yMax="486">
      <contour>
        <pt x="159" y="486" on="1"/>
        <pt x="159" y="12" on="1"/>
        <pt x="90" y="12" on="1"/>
        <pt x="90" y="486" on="1"/>
      </contour>
    </TTGlyph>
    <TTGlyph name="bullet" xMin="40" yMin="137" xMax="276" yMax="389">
      <contour>
        <pt x="109" y="137" on="0"/>
        <pt x="40" y="208" on="0"/>
        <pt x="40" y="263" on="1"/>
        <pt x="40" y="318" on="0"/>
        <pt x="109" y="389" on="0"/>
        <pt x="158" y="389" on="1"/>
        <pt x="207" y="389" on="0"/>
        <pt x="276" y="318" on="0"/>
        <pt x="276" y="263" on="1"/>
        <pt x="276" y="208" on="0"/>
        <pt x="207" y="137" on="0"/>
        <pt x="158" y="137" on="1"/>
      </contour>
    </TTGlyph>
    <TTGlyph name="bullet.lat" xMin="40" yMin="137" xMax="276" yMax="389">
      <contour>
        <pt x="109" y="137" on="0"/>
        <pt x="40" y="208" on="0"/>
        <pt x="40" y="263" on="1"/>
        <pt x="40" y="318" on="0"/>
        <pt x="109" y="389" on="0"/>
        <pt x="158" y="389" on="1"/>
        <pt x="207" y="389" on="0"/>
        <pt x="276" y="318" on="0"/>
        <pt x="276" y="263" on="1"/>
        <pt x="276" y="208" on="0"/>
        <pt x="207" y="137" on="0"/>
        <pt x="158" y="137" on="1"/>
      </contour>
    </TTGlyph>
    <TTGlyph name="c" xMin="43" yMin="-12" xMax="435" yMax="501">
      <contour>
        <pt x="210" y="-12" on="0"/>
        <pt x="104" y="49" on="0"/>
        <pt x="43" y="165" on="0"/>
        <pt x="43" y="244" on="1"/>
        <pt x="43" y="323" on="0"/>
        <pt x="109" y="439" on="0"/>
        <pt x="219" y="501" on="0"/>
        <pt x="284" y="501" on="1"/>
        <pt x="364" y="501" on="0"/>
        <pt x="427" y="445" on="1"/>
        <pt x="377" y="379" on="1"/>
        <pt x="355" y="398" on="0"/>
        <pt x="313" y="418" on="0"/>
        <pt x="289" y="418" on="1"/>
        <pt x="226" y="418" on="0"/>
        <pt x="147" y="322" on="0"/>
        <pt x="147" y="244" on="1"/>
        <pt x="147" y="166" on="0"/>
        <pt x="224" y="71" on="0"/>
        <pt x="286" y="71" on="1"/>
        <pt x="341" y="71" on="0"/>
        <pt x="393" y="116" on="1"/>
        <pt x="435" y="49" on="1"/>
        <pt x="402" y="19" on="0"/>
        <pt x="319" y="-12" on="0"/>
        <pt x="276" y="-12" on="1"/>
      </contour>
    </TTGlyph>
    <TTGlyph name="caron" xMin="110" yMin="575" xMax="436" yMax="750">
      <component glyphName="uni030C" x="273" y="0" flags="0x0"/>
    </TTGlyph>
    <TTGlyph name="ccaron" xMin="43" yMin="-12" xMax="437" yMax="750">
      <component glyphName="c" x="0" y="0" flags="0x0"/>
      <component glyphName="uni030C" x="274" y="0" flags="0x0"/>
    </TTGlyph>
    <TTGlyph name="ccedilla" xMin="43" yMin="-230" xMax="435" yMax="501">
      <contour>
        <pt x="319" y="-72" on="0"/>
        <pt x="356" y="-105" on="0"/>
        <pt x="356" y="-135" on="1"/>
        <pt x="356" y="-222" on="0"/>
        <pt x="182" y="-230" on="1"/>
        <pt x="173" y="-184" on="1"/>
        <pt x="233" y="-180" on="0"/>
        <pt x="280" y="-158" on="0"/>
        <pt x="280" y="-136" on="1"/>
        <pt x="280" y="-117" on="0"/>
        <pt x="245" y="-96" on="0"/>
        <pt x="203" y="-90" on="1"/>
        <pt x="242" y="-10" on="1"/>
        <pt x="153" y="2" on="0"/>
        <pt x="43" y="136" on="0"/>
        <pt x="43" y="244" on="1"/>
        <pt x="43" y="323" on="0"/>
        <pt x="109" y="439" on="0"/>
        <pt x="219" y="501" on="0"/>
        <pt x="284" y="501" on="1"/>
        <pt x="364" y="501" on="0"/>
        <pt x="427" y="445" on="1"/>
        <pt x="377" y="379" on="1"/>
        <pt x="355" y="398" on="0"/>
        <pt x="313" y="418" on="0"/>
        <pt x="289" y="418" on="1"/>
        <pt x="226" y="418" on="0"/>
        <pt x="147" y="322" on="0"/>
        <pt x="147" y="244" on="1"/>
        <pt x="147" y="166" on="0"/>
        <pt x="224" y="71" on="0"/>
        <pt x="286" y="71" on="1"/>
        <pt x="341" y="71" on="0"/>
        <pt x="393" y="116" on="1"/>
        <pt x="435" y="49" on="1"/>
        <pt x="380" y="0" on="0"/>
        <pt x="305" y="-10" on="1"/>
        <pt x="282" y="-63" on="1"/>
      </contour>
    </TTGlyph>
    <TTGlyph name="cedilla" xMin="173" yMin="-230" xMax="356" yMax="3">
      <component glyphName="uni0327" x="273" y="0" flags="0x0"/>
    </TTGlyph>
    <TTGlyph name="cent" xMin="61" yMin="-35" xMax="464" yMax="654">
      <contour>
        <pt x="435" y="101" on="0"/>
        <pt x="364" y="69" on="0"/>
        <pt x="326" y="65" on="1"/>
        <pt x="326" y="-35" on="1"/>
        <pt x="266" y="-35" on="1"/>
        <pt x="266" y="66" on="1"/>
        <pt x="172" y="78" on="0"/>
        <pt x="61" y="205" on="0"/>
        <pt x="61" y="309" on="1"/>
        <pt x="61" y="410" on="0"/>
        <pt x="175" y="537" on="0"/>
        <pt x="266" y="551" on="1"/>
        <pt x="266" y="654" on="1"/>
        <pt x="326" y="654" on="1"/>
        <pt x="326" y="554" on="1"/>
        <pt x="401" y="549" on="0"/>
        <pt x="455" y="496" on="1"/>
        <pt x="407" y="433" on="1"/>
        <pt x="369" y="467" on="0"/>
        <pt x="326" y="471" on="1"/>
        <pt x="326" y="148" on="1"/>
        <pt x="374" y="152" on="0"/>
        <pt x="421" y="191" on="1"/>
        <pt x="464" y="127" on="1"/>
      </contour>
      <contour>
        <pt x="160" y="249" on="0"/>
        <pt x="216" y="166" on="0"/>
        <pt x="266" y="153" on="1"/>
        <pt x="266" y="464" on="1"/>
        <pt x="216" y="451" on="0"/>
        <pt x="160" y="368" on="0"/>
        <pt x="160" y="309" on="1"/>
      </contour>
    </TTGlyph>
    <TTGlyph name="cent.lat" xMin="61" yMin="-35" xMax="464" yMax="654">
      <contour>
        <pt x="435" y="101" on="0"/>
        <pt x="364" y="69" on="0"/>
        <pt x="326" y="65" on="1"/>
        <pt x="326" y="-35" on="1"/>
        <pt x="266" y="-35" on="1"/>
        <pt x="266" y="66" on="1"/>
        <pt x="172" y="78" on="0"/>
        <pt x="61" y="205" on="0"/>
        <pt x="61" y="309" on="1"/>
        <pt x="61" y="410" on="0"/>
        <pt x="175" y="537" on="0"/>
        <pt x="266" y="551" on="1"/>
        <pt x="266" y="654" on="1"/>
        <pt x="326" y="654" on="1"/>
        <pt x="326" y="554" on="1"/>
        <pt x="401" y="549" on="0"/>
        <pt x="455" y="496" on="1"/>
        <pt x="407" y="433" on="1"/>
        <pt x="369" y="467" on="0"/>
        <pt x="326" y="471" on="1"/>
        <pt x="326" y="148" on="1"/>
        <pt x="374" y="152" on="0"/>
        <pt x="421" y="191" on="1"/>
        <pt x="464" y="127" on="1"/>
      </contour>
      <contour>
        <pt x="160" y="249" on="0"/>
        <pt x="216" y="166" on="0"/>
        <pt x="266" y="153" on="1"/>
        <pt x="266" y="464" on="1"/>
        <pt x="216" y="451" on="0"/>
        <pt x="160" y="368" on="0"/>
        <pt x="160" y="309" on="1"/>
      </contour>
    </TTGlyph>
    <TTGlyph name="chi" xMin="9" yMin="-190" xMax="503" yMax="501">
      <contour>
        <pt x="9" y="-178" on="1"/>
        <pt x="201" y="164" on="1"/>
        <pt x="11" y="477" on="1"/>
        <pt x="111" y="501" on="1"/>
        <pt x="249" y="254" on="1"/>
        <pt x="253" y="254" on="1"/>
        <pt x="367" y="489" on="1"/>
        <pt x="473" y="489" on="1"/>
        <pt x="301" y="166" on="1"/>
        <pt x="503" y="-166" on="1"/>
        <pt x="404" y="-190" on="1"/>
        <pt x="253" y="82" on="1"/>
        <pt x="249" y="82" on="1"/>
        <pt x="112" y="-190" on="1"/>
      </contour>
    </TTGlyph>
    <TTGlyph name="circledotted" xMin="43" yMin="-13" xMax="540" yMax="488">
      <contour>
        <pt x="473" y="377" on="0"/>
        <pt x="453" y="356" on="0"/>
        <pt x="436" y="356" on="1"/>
        <pt x="415" y="356" on="0"/>
        <pt x="404" y="374" on="1"/>
        <pt x="394" y="369" on="0"/>
        <pt x="383" y="369" on="1"/>
        <pt x="368" y="369" on="0"/>
        <pt x="347" y="391" on="0"/>
        <pt x="347" y="409" on="1"/>
        <pt x="347" y="410" on="1"/>
        <pt x="344" y="410" on="1"/>
        <pt x="329" y="410" on="0"/>
        <pt x="307" y="432" on="0"/>
        <pt x="307" y="449" on="1"/>
        <pt x="307" y="467" on="0"/>
        <pt x="328" y="488" on="0"/>
        <pt x="344" y="488" on="1"/>
        <pt x="360" y="488" on="0"/>
        <pt x="382" y="467" on="0"/>
        <pt x="382" y="449" on="1"/>
        <pt x="382" y="446" on="1"/>
        <pt x="383" y="446" on="1"/>
        <pt x="406" y="446" on="0"/>
        <pt x="417" y="428" on="1"/>
        <pt x="425" y="433" on="0"/>
        <pt x="436" y="433" on="1"/>
        <pt x="452" y="433" on="0"/>
        <pt x="473" y="413" on="0"/>
        <pt x="473" y="395" on="1"/>
      </contour>
      <contour>
        <pt x="202" y="475" on="0"/>
        <pt x="223" y="455" on="0"/>
        <pt x="223" y="436" on="1"/>
        <pt x="223" y="418" on="0"/>
        <pt x="202" y="398" on="0"/>
        <pt x="185" y="398" on="1"/>
        <pt x="169" y="398" on="0"/>
        <pt x="148" y="419" on="0"/>
        <pt x="148" y="436" on="1"/>
        <pt x="148" y="455" on="0"/>
        <pt x="169" y="475" on="0"/>
        <pt x="185" y="475" on="1"/>
      </contour>
      <contour>
        <pt x="124" y="394" on="0"/>
        <pt x="145" y="374" on="0"/>
        <pt x="145" y="356" on="1"/>
        <pt x="145" y="337" on="0"/>
        <pt x="124" y="316" on="0"/>
        <pt x="107" y="316" on="1"/>
        <pt x="92" y="316" on="0"/>
        <pt x="71" y="338" on="0"/>
        <pt x="71" y="356" on="1"/>
        <pt x="71" y="374" on="0"/>
        <pt x="92" y="394" on="0"/>
        <pt x="107" y="394" on="1"/>
      </contour>
      <contour>
        <pt x="118" y="226" on="0"/>
        <pt x="97" y="206" on="0"/>
        <pt x="79" y="206" on="1"/>
        <pt x="64" y="206" on="0"/>
        <pt x="43" y="227" on="0"/>
        <pt x="43" y="245" on="1"/>
        <pt x="43" y="263" on="0"/>
        <pt x="64" y="283" on="0"/>
        <pt x="79" y="283" on="1"/>
        <pt x="97" y="283" on="0"/>
        <pt x="118" y="263" on="0"/>
        <pt x="118" y="245" on="1"/>
      </contour>
      <contour>
        <pt x="518" y="283" on="0"/>
        <pt x="540" y="263" on="0"/>
        <pt x="540" y="245" on="1"/>
        <pt x="540" y="227" on="0"/>
        <pt x="520" y="206" on="0"/>
        <pt x="503" y="206" on="1"/>
        <pt x="487" y="206" on="0"/>
        <pt x="465" y="227" on="0"/>
        <pt x="465" y="245" on="1"/>
        <pt x="465" y="263" on="0"/>
        <pt x="487" y="283" on="0"/>
        <pt x="503" y="283" on="1"/>
      </contour>
      <contour>
        <pt x="124" y="174" on="0"/>
        <pt x="145" y="153" on="0"/>
        <pt x="145" y="135" on="1"/>
        <pt x="145" y="117" on="0"/>
        <pt x="124" y="97" on="0"/>
        <pt x="107" y="97" on="1"/>
        <pt x="92" y="97" on="0"/>
        <pt x="71" y="118" on="0"/>
        <pt x="71" y="135" on="1"/>
        <pt x="71" y="153" on="0"/>
        <pt x="92" y="174" on="0"/>
        <pt x="107" y="174" on="1"/>
      </contour>
      <contour>
        <pt x="492" y="174" on="0"/>
        <pt x="513" y="153" on="0"/>
        <pt x="513" y="135" on="1"/>
        <pt x="513" y="117" on="0"/>
        <pt x="493" y="97" on="0"/>
        <pt x="476" y="97" on="1"/>
        <pt x="460" y="97" on="0"/>
        <pt x="438" y="118" on="0"/>
        <pt x="438" y="135" on="1"/>
        <pt x="438" y="153" on="0"/>
        <pt x="460" y="174" on="0"/>
        <pt x="476" y="174" on="1"/>
      </contour>
      <contour>
        <pt x="201" y="92" on="0"/>
        <pt x="223" y="72" on="0"/>
        <pt x="223" y="55" on="1"/>
        <pt x="223" y="36" on="0"/>
        <pt x="202" y="15" on="0"/>
        <pt x="185" y="15" on="1"/>
        <pt x="169" y="15" on="0"/>
        <pt x="148" y="36" on="0"/>
        <pt x="148" y="55" on="1"/>
        <pt x="148" y="72" on="0"/>
        <pt x="169" y="92" on="0"/>
        <pt x="185" y="92" on="1"/>
      </contour>
      <contour>
        <pt x="412" y="92" on="0"/>
        <pt x="434" y="72" on="0"/>
        <pt x="434" y="55" on="1"/>
        <pt x="434" y="36" on="0"/>
        <pt x="414" y="15" on="0"/>
        <pt x="396" y="15" on="1"/>
        <pt x="381" y="15" on="0"/>
        <pt x="360" y="36" on="0"/>
        <pt x="360" y="55" on="1"/>
        <pt x="360" y="72" on="0"/>
        <pt x="381" y="92" on="0"/>
        <pt x="396" y="92" on="1"/>
      </contour>
      <contour>
        <pt x="308" y="65" on="0"/>
        <pt x="329" y="45" on="0"/>
        <pt x="329" y="27" on="1"/>
        <pt x="329" y="8" on="0"/>
        <pt x="308" y="-13" on="0"/>
        <pt x="291" y="-13" on="1"/>
        <pt x="276" y="-13" on="0"/>
        <pt x="255" y="9" on="0"/>
        <pt x="255" y="27" on="1"/>
        <pt x="255" y="44" on="0"/>
        <pt x="276" y="65" on="0"/>
        <pt x="291" y="65" on="1"/>
      </contour>
    </TTGlyph>
    <TTGlyph name="circumflex" xMin="110" yMin="566" xMax="436" yMax="741">
      <component glyphName="uni0302" x="273" y="0" flags="0x0"/>
    </TTGlyph>
    <TTGlyph name="colon" xMin="64" yMin="-12" xMax="200" yMax="481">
      <component glyphName="period" x="0" y="350" flags="0x4"/>
      <component glyphName="period" x="0" y="0" flags="0x0"/>
    </TTGlyph>
    <TTGlyph name="comma" xMin="47" yMin="-177" xMax="215" yMax="131">
      <contour>
        <pt x="173" y="131" on="0"/>
        <pt x="215" y="73" on="0"/>
        <pt x="215" y="22" on="1"/>
        <pt x="215" y="-47" on="0"/>
        <pt x="139" y="-151" on="0"/>
        <pt x="70" y="-177" on="1"/>
        <pt x="47" y="-120" on="1"/>
        <pt x="93" y="-101" on="0"/>
        <pt x="143" y="-38" on="0"/>
        <pt x="144" y="2" on="1"/>
        <pt x="141" y="1" on="0"/>
        <pt x="134" y="1" on="1"/>
        <pt x="106" y="1" on="0"/>
        <pt x="66" y="36" on="0"/>
        <pt x="66" y="66" on="1"/>
        <pt x="66" y="95" on="0"/>
        <pt x="107" y="131" on="0"/>
        <pt x="136" y="131" on="1"/>
      </contour>
    </TTGlyph>
    <TTGlyph name="copyright" xMin="48" yMin="-10" xMax="698" yMax="654">
      <contour>
        <pt x="285" y="-10" on="0"/>
        <pt x="136" y="73" on="0"/>
        <pt x="48" y="225" on="0"/>
        <pt x="48" y="324" on="1"/>
        <pt x="48" y="423" on="0"/>
        <pt x="136" y="573" on="0"/>
        <pt x="285" y="654" on="0"/>
        <pt x="373" y="654" on="1"/>
        <pt x="461" y="654" on="0"/>
        <pt x="610" y="573" on="0"/>
        <pt x="698" y="423" on="0"/>
        <pt x="698" y="324" on="1"/>
        <pt x="698" y="225" on="0"/>
        <pt x="610" y="73" on="0"/>
        <pt x="461" y="-10" on="0"/>
        <pt x="373" y="-10" on="1"/>
      </contour>
      <contour>
        <pt x="448" y="37" on="0"/>
        <pt x="572" y="109" on="0"/>
        <pt x="645" y="240" on="0"/>
        <pt x="645" y="324" on="1"/>
        <pt x="645" y="407" on="0"/>
        <pt x="572" y="536" on="0"/>
        <pt x="448" y="607" on="0"/>
        <pt x="373" y="607" on="1"/>
        <pt x="298" y="607" on="0"/>
        <pt x="174" y="536" on="0"/>
        <pt x="101" y="407" on="0"/>
        <pt x="101" y="324" on="1"/>
        <pt x="101" y="240" on="0"/>
        <pt x="174" y="109" on="0"/>
        <pt x="298" y="37" on="0"/>
        <pt x="373" y="37" on="1"/>
      </contour>
      <contour>
        <pt x="330" y="126" on="0"/>
        <pt x="246" y="174" on="0"/>
        <pt x="197" y="263" on="0"/>
        <pt x="197" y="323" on="1"/>
        <pt x="197" y="380" on="0"/>
        <pt x="249" y="466" on="0"/>
        <pt x="335" y="513" on="0"/>
        <pt x="384" y="513" on="1"/>
        <pt x="424" y="513" on="0"/>
        <pt x="484" y="483" on="0"/>
        <pt x="511" y="456" on="1"/>
        <pt x="471" y="410" on="1"/>
        <pt x="450" y="430" on="0"/>
        <pt x="413" y="449" on="0"/>
        <pt x="389" y="449" on="1"/>
        <pt x="337" y="449" on="0"/>
        <pt x="275" y="379" on="0"/>
        <pt x="275" y="323" on="1"/>
        <pt x="275" y="262" on="0"/>
        <pt x="335" y="190" on="0"/>
        <pt x="385" y="190" on="1"/>
        <pt x="413" y="190" on="0"/>
        <pt x="457" y="211" on="0"/>
        <pt x="481" y="231" on="1"/>
        <pt x="516" y="181" on="1"/>
        <pt x="484" y="154" on="0"/>
        <pt x="422" y="126" on="0"/>
        <pt x="382" y="126" on="1"/>
      </contour>
    </TTGlyph>
    <TTGlyph name="copyright.lat" xMin="48" yMin="-10" xMax="698" yMax="654">
      <contour>
        <pt x="285" y="-10" on="0"/>
        <pt x="136" y="73" on="0"/>
        <pt x="48" y="225" on="0"/>
        <pt x="48" y="324" on="1"/>
        <pt x="48" y="423" on="0"/>
        <pt x="136" y="573" on="0"/>
        <pt x="285" y="654" on="0"/>
        <pt x="373" y="654" on="1"/>
        <pt x="461" y="654" on="0"/>
        <pt x="610" y="573" on="0"/>
        <pt x="698" y="423" on="0"/>
        <pt x="698" y="324" on="1"/>
        <pt x="698" y="225" on="0"/>
        <pt x="610" y="73" on="0"/>
        <pt x="461" y="-10" on="0"/>
        <pt x="373" y="-10" on="1"/>
      </contour>
      <contour>
        <pt x="448" y="37" on="0"/>
        <pt x="572" y="109" on="0"/>
        <pt x="645" y="240" on="0"/>
        <pt x="645" y="324" on="1"/>
        <pt x="645" y="407" on="0"/>
        <pt x="572" y="536" on="0"/>
        <pt x="448" y="607" on="0"/>
        <pt x="373" y="607" on="1"/>
        <pt x="298" y="607" on="0"/>
        <pt x="174" y="536" on="0"/>
        <pt x="101" y="407" on="0"/>
        <pt x="101" y="324" on="1"/>
        <pt x="101" y="240" on="0"/>
        <pt x="174" y="109" on="0"/>
        <pt x="298" y="37" on="0"/>
        <pt x="373" y="37" on="1"/>
      </contour>
      <contour>
        <pt x="330" y="126" on="0"/>
        <pt x="246" y="174" on="0"/>
        <pt x="197" y="263" on="0"/>
        <pt x="197" y="323" on="1"/>
        <pt x="197" y="380" on="0"/>
        <pt x="249" y="466" on="0"/>
        <pt x="335" y="513" on="0"/>
        <pt x="384" y="513" on="1"/>
        <pt x="424" y="513" on="0"/>
        <pt x="484" y="483" on="0"/>
        <pt x="511" y="456" on="1"/>
        <pt x="471" y="410" on="1"/>
        <pt x="450" y="430" on="0"/>
        <pt x="413" y="449" on="0"/>
        <pt x="389" y="449" on="1"/>
        <pt x="337" y="449" on="0"/>
        <pt x="275" y="379" on="0"/>
        <pt x="275" y="323" on="1"/>
        <pt x="275" y="262" on="0"/>
        <pt x="335" y="190" on="0"/>
        <pt x="385" y="190" on="1"/>
        <pt x="413" y="190" on="0"/>
        <pt x="457" y="211" on="0"/>
        <pt x="481" y="231" on="1"/>
        <pt x="516" y="181" on="1"/>
        <pt x="484" y="154" on="0"/>
        <pt x="422" y="126" on="0"/>
        <pt x="382" y="126" on="1"/>
      </contour>
    </TTGlyph>
    <TTGlyph name="currency" xMin="24" yMin="97" xMax="481" yMax="562">
      <contour>
        <pt x="24" y="151" on="1"/>
        <pt x="87" y="215" on="1"/>
        <pt x="52" y="264" on="0"/>
        <pt x="52" y="329" on="1"/>
        <pt x="52" y="396" on="0"/>
        <pt x="87" y="444" on="1"/>
        <pt x="24" y="509" on="1"/>
        <pt x="77" y="562" on="1"/>
        <pt x="145" y="493" on="1"/>
        <pt x="194" y="526" on="0"/>
        <pt x="253" y="526" on="1"/>
        <pt x="311" y="526" on="0"/>
        <pt x="361" y="493" on="1"/>
        <pt x="429" y="562" on="1"/>
        <pt x="481" y="509" on="1"/>
        <pt x="418" y="444" on="1"/>
        <pt x="454" y="395" on="0"/>
        <pt x="454" y="329" on="1"/>
        <pt x="454" y="266" on="0"/>
        <pt x="418" y="215" on="1"/>
        <pt x="481" y="151" on="1"/>
        <pt x="429" y="97" on="1"/>
        <pt x="360" y="167" on="1"/>
        <pt x="312" y="133" on="0"/>
        <pt x="253" y="133" on="1"/>
        <pt x="193" y="133" on="0"/>
        <pt x="145" y="167" on="1"/>
        <pt x="77" y="97" on="1"/>
      </contour>
      <contour>
        <pt x="299" y="206" on="0"/>
        <pt x="362" y="275" on="0"/>
        <pt x="362" y="329" on="1"/>
        <pt x="362" y="384" on="0"/>
        <pt x="299" y="453" on="0"/>
        <pt x="253" y="453" on="1"/>
        <pt x="207" y="453" on="0"/>
        <pt x="144" y="384" on="0"/>
        <pt x="144" y="329" on="1"/>
        <pt x="144" y="275" on="0"/>
        <pt x="207" y="206" on="0"/>
        <pt x="253" y="206" on="1"/>
      </contour>
    </TTGlyph>
    <TTGlyph name="d" xMin="45" yMin="-12" xMax="483" yMax="709">
      <contour>
        <pt x="154" y="-12" on="0"/>
        <pt x="45" y="124" on="0"/>
        <pt x="45" y="244" on="1"/>
        <pt x="45" y="321" on="0"/>
        <pt x="103" y="438" on="0"/>
        <pt x="199" y="501" on="0"/>
        <pt x="254" y="501" on="1"/>
        <pt x="293" y="501" on="0"/>
        <pt x="353" y="474" on="0"/>
        <pt x="386" y="446" on="1"/>
        <pt x="382" y="527" on="1"/>
        <pt x="382" y="709" on="1"/>
        <pt x="483" y="709" on="1"/>
        <pt x="483" y="0" on="1"/>
        <pt x="400" y="0" on="1"/>
        <pt x="392" y="55" on="1"/>
        <pt x="389" y="55" on="1"/>
        <pt x="359" y="25" on="0"/>
        <pt x="285" y="-12" on="0"/>
        <pt x="246" y="-12" on="1"/>
      </contour>
      <contour>
        <pt x="301" y="72" on="0"/>
        <pt x="355" y="101" on="0"/>
        <pt x="382" y="132" on="1"/>
        <pt x="382" y="372" on="1"/>
        <pt x="332" y="417" on="0"/>
        <pt x="274" y="417" on="1"/>
        <pt x="239" y="417" on="0"/>
        <pt x="182" y="375" on="0"/>
        <pt x="149" y="297" on="0"/>
        <pt x="149" y="245" on="1"/>
        <pt x="149" y="162" on="0"/>
        <pt x="212" y="72" on="0"/>
        <pt x="270" y="72" on="1"/>
      </contour>
    </TTGlyph>
    <TTGlyph name="dagger" xMin="51" yMin="-80" xMax="419" yMax="712">
      <contour>
        <pt x="199" y="476" on="1"/>
        <pt x="51" y="470" on="1"/>
        <pt x="51" y="554" on="1"/>
        <pt x="199" y="548" on="1"/>
        <pt x="193" y="712" on="1"/>
        <pt x="277" y="712" on="1"/>
        <pt x="271" y="548" on="1"/>
        <pt x="419" y="554" on="1"/>
        <pt x="419" y="470" on="1"/>
        <pt x="271" y="476" on="1"/>
        <pt x="277" y="-80" on="1"/>
        <pt x="193" y="-80" on="1"/>
      </contour>
    </TTGlyph>
    <TTGlyph name="dagger.lat" xMin="51" yMin="-80" xMax="419" yMax="712">
      <contour>
        <pt x="199" y="476" on="1"/>
        <pt x="51" y="470" on="1"/>
        <pt x="51" y="554" on="1"/>
        <pt x="199" y="548" on="1"/>
        <pt x="193" y="712" on="1"/>
        <pt x="277" y="712" on="1"/>
        <pt x="271" y="548" on="1"/>
        <pt x="419" y="554" on="1"/>
        <pt x="419" y="470" on="1"/>
        <pt x="271" y="476" on="1"/>
        <pt x="277" y="-80" on="1"/>
        <pt x="193" y="-80" on="1"/>
      </contour>
    </TTGlyph>
    <TTGlyph name="daggerdbl" xMin="51" yMin="-80" xMax="419" yMax="712">
      <contour>
        <pt x="199" y="84" on="1"/>
        <pt x="51" y="78" on="1"/>
        <pt x="51" y="162" on="1"/>
        <pt x="199" y="154" on="1"/>
        <pt x="193" y="316" on="1"/>
        <pt x="199" y="478" on="1"/>
        <pt x="51" y="470" on="1"/>
        <pt x="51" y="554" on="1"/>
        <pt x="199" y="548" on="1"/>
        <pt x="193" y="712" on="1"/>
        <pt x="277" y="712" on="1"/>
        <pt x="271" y="548" on="1"/>
        <pt x="419" y="554" on="1"/>
        <pt x="419" y="470" on="1"/>
        <pt x="271" y="478" on="1"/>
        <pt x="277" y="316" on="1"/>
        <pt x="271" y="154" on="1"/>
        <pt x="419" y="162" on="1"/>
        <pt x="419" y="78" on="1"/>
        <pt x="271" y="84" on="1"/>
        <pt x="277" y="-80" on="1"/>
        <pt x="193" y="-80" on="1"/>
      </contour>
    </TTGlyph>
    <TTGlyph name="daggerdbl.lat" xMin="51" yMin="-80" xMax="419" yMax="712">
      <contour>
        <pt x="199" y="84" on="1"/>
        <pt x="51" y="78" on="1"/>
        <pt x="51" y="162" on="1"/>
        <pt x="199" y="154" on="1"/>
        <pt x="193" y="316" on="1"/>
        <pt x="199" y="478" on="1"/>
        <pt x="51" y="470" on="1"/>
        <pt x="51" y="554" on="1"/>
        <pt x="199" y="548" on="1"/>
        <pt x="193" y="712" on="1"/>
        <pt x="277" y="712" on="1"/>
        <pt x="271" y="548" on="1"/>
        <pt x="419" y="554" on="1"/>
        <pt x="419" y="470" on="1"/>
        <pt x="271" y="478" on="1"/>
        <pt x="277" y="316" on="1"/>
        <pt x="271" y="154" on="1"/>
        <pt x="419" y="162" on="1"/>
        <pt x="419" y="78" on="1"/>
        <pt x="271" y="84" on="1"/>
        <pt x="277" y="-80" on="1"/>
        <pt x="193" y="-80" on="1"/>
      </contour>
    </TTGlyph>
    <TTGlyph name="degree" xMin="40" yMin="420" xMax="302" yMax="685">
      <contour>
        <pt x="116" y="420" on="0"/>
        <pt x="40" y="494" on="0"/>
        <pt x="40" y="552" on="1"/>
        <pt x="40" y="611" on="0"/>
        <pt x="116" y="685" on="0"/>
        <pt x="171" y="685" on="1"/>
        <pt x="226" y="685" on="0"/>
        <pt x="302" y="611" on="0"/>
        <pt x="302" y="552" on="1"/>
        <pt x="302" y="494" on="0"/>
        <pt x="226" y="420" on="0"/>
        <pt x="171" y="420" on="1"/>
      </contour>
      <contour>
        <pt x="203" y="473" on="0"/>
        <pt x="244" y="517" on="0"/>
        <pt x="244" y="552" on="1"/>
        <pt x="244" y="587" on="0"/>
        <pt x="203" y="632" on="0"/>
        <pt x="171" y="632" on="1"/>
        <pt x="139" y="632" on="0"/>
        <pt x="98" y="587" on="0"/>
        <pt x="98" y="552" on="1"/>
        <pt x="98" y="517" on="0"/>
        <pt x="139" y="473" on="0"/>
        <pt x="171" y="473" on="1"/>
      </contour>
    </TTGlyph>
    <TTGlyph name="degree.lat" xMin="40" yMin="420" xMax="302" yMax="685">
      <contour>
        <pt x="116" y="420" on="0"/>
        <pt x="40" y="494" on="0"/>
        <pt x="40" y="552" on="1"/>
        <pt x="40" y="611" on="0"/>
        <pt x="116" y="685" on="0"/>
        <pt x="171" y="685" on="1"/>
        <pt x="226" y="685" on="0"/>
        <pt x="302" y="611" on="0"/>
        <pt x="302" y="552" on="1"/>
        <pt x="302" y="494" on="0"/>
        <pt x="226" y="420" on="0"/>
        <pt x="171" y="420" on="1"/>
      </contour>
      <contour>
        <pt x="203" y="473" on="0"/>
        <pt x="244" y="517" on="0"/>
        <pt x="244" y="552" on="1"/>
        <pt x="244" y="587" on="0"/>
        <pt x="203" y="632" on="0"/>
        <pt x="171" y="632" on="1"/>
        <pt x="139" y="632" on="0"/>
        <pt x="98" y="587" on="0"/>
        <pt x="98" y="552" on="1"/>
        <pt x="98" y="517" on="0"/>
        <pt x="139" y="473" on="0"/>
        <pt x="171" y="473" on="1"/>
      </contour>
    </TTGlyph>
    <TTGlyph name="dieresis" xMin="117" yMin="582" xMax="429" yMax="694">
      <component glyphName="uni0308" x="273" y="0" flags="0x0"/>
    </TTGlyph>
    <TTGlyph name="divide" xMin="34" yMin="89" xMax="472" yMax="570">
      <contour>
        <pt x="226" y="449" on="0"/>
        <pt x="191" y="483" on="0"/>
        <pt x="191" y="510" on="1"/>
        <pt x="191" y="536" on="0"/>
        <pt x="227" y="570" on="0"/>
        <pt x="253" y="570" on="1"/>
        <pt x="279" y="570" on="0"/>
        <pt x="315" y="536" on="0"/>
        <pt x="315" y="510" on="1"/>
        <pt x="315" y="483" on="0"/>
        <pt x="280" y="449" on="0"/>
        <pt x="253" y="449" on="1"/>
      </contour>
      <contour>
        <pt x="34" y="367" on="1"/>
        <pt x="472" y="367" on="1"/>
        <pt x="472" y="293" on="1"/>
        <pt x="34" y="293" on="1"/>
      </contour>
      <contour>
        <pt x="226" y="89" on="0"/>
        <pt x="191" y="123" on="0"/>
        <pt x="191" y="150" on="1"/>
        <pt x="191" y="176" on="0"/>
        <pt x="227" y="210" on="0"/>
        <pt x="253" y="210" on="1"/>
        <pt x="279" y="210" on="0"/>
        <pt x="315" y="176" on="0"/>
        <pt x="315" y="150" on="1"/>
        <pt x="315" y="123" on="0"/>
        <pt x="280" y="89" on="0"/>
        <pt x="253" y="89" on="1"/>
      </contour>
    </TTGlyph>
    <TTGlyph name="dollar" xMin="48" yMin="-110" xMax="446" yMax="747">
      <contour>
        <pt x="446" y="100" on="0"/>
        <pt x="364" y="4" on="0"/>
        <pt x="291" y="-8" on="1"/>
        <pt x="291" y="-110" on="1"/>
        <pt x="220" y="-110" on="1"/>
        <pt x="220" y="-11" on="1"/>
        <pt x="173" y="-6" on="0"/>
        <pt x="81" y="35" on="0"/>
        <pt x="48" y="66" on="1"/>
        <pt x="94" y="135" on="1"/>
        <pt x="172" y="71" on="0"/>
        <pt x="245" y="71" on="1"/>
        <pt x="296" y="71" on="0"/>
        <pt x="348" y="120" on="0"/>
        <pt x="348" y="164" on="1"/>
        <pt x="348" y="196" on="0"/>
        <pt x="315" y="242" on="0"/>
        <pt x="267" y="273" on="0"/>
        <pt x="224" y="295" on="1"/>
        <pt x="176" y="319" on="0"/>
        <pt x="115" y="361" on="0"/>
        <pt x="73" y="427" on="0"/>
        <pt x="73" y="474" on="1"/>
        <pt x="73" y="542" on="0"/>
        <pt x="153" y="635" on="0"/>
        <pt x="220" y="646" on="1"/>
        <pt x="220" y="747" on="1"/>
        <pt x="291" y="747" on="1"/>
        <pt x="291" y="647" on="1"/>
        <pt x="336" y="642" on="0"/>
        <pt x="404" y="603" on="0"/>
        <pt x="435" y="570" on="1"/>
        <pt x="382" y="511" on="1"/>
        <pt x="352" y="540" on="0"/>
        <pt x="300" y="566" on="0"/>
        <pt x="264" y="566" on="1"/>
        <pt x="221" y="566" on="0"/>
        <pt x="171" y="519" on="0"/>
        <pt x="171" y="479" on="1"/>
        <pt x="171" y="452" on="0"/>
        <pt x="201" y="412" on="0"/>
        <pt x="246" y="385" on="0"/>
        <pt x="285" y="366" on="1"/>
        <pt x="336" y="341" on="0"/>
        <pt x="401" y="298" on="0"/>
        <pt x="446" y="225" on="0"/>
        <pt x="446" y="171" on="1"/>
      </contour>
    </TTGlyph>
    <TTGlyph name="dollar.lat" xMin="48" yMin="-110" xMax="446" yMax="747">
      <contour>
        <pt x="446" y="100" on="0"/>
        <pt x="364" y="4" on="0"/>
        <pt x="291" y="-8" on="1"/>
        <pt x="291" y="-110" on="1"/>
        <pt x="220" y="-110" on="1"/>
        <pt x="220" y="-11" on="1"/>
        <pt x="173" y="-6" on="0"/>
        <pt x="81" y="35" on="0"/>
        <pt x="48" y="66" on="1"/>
        <pt x="94" y="135" on="1"/>
        <pt x="172" y="71" on="0"/>
        <pt x="245" y="71" on="1"/>
        <pt x="296" y="71" on="0"/>
        <pt x="348" y="120" on="0"/>
        <pt x="348" y="164" on="1"/>
        <pt x="348" y="196" on="0"/>
        <pt x="315" y="242" on="0"/>
        <pt x="267" y="273" on="0"/>
        <pt x="224" y="295" on="1"/>
        <pt x="176" y="319" on="0"/>
        <pt x="115" y="361" on="0"/>
        <pt x="73" y="427" on="0"/>
        <pt x="73" y="474" on="1"/>
        <pt x="73" y="542" on="0"/>
        <pt x="153" y="635" on="0"/>
        <pt x="220" y="646" on="1"/>
        <pt x="220" y="747" on="1"/>
        <pt x="291" y="747" on="1"/>
        <pt x="291" y="647" on="1"/>
        <pt x="336" y="642" on="0"/>
        <pt x="404" y="603" on="0"/>
        <pt x="435" y="570" on="1"/>
        <pt x="382" y="511" on="1"/>
        <pt x="352" y="540" on="0"/>
        <pt x="300" y="566" on="0"/>
        <pt x="264" y="566" on="1"/>
        <pt x="221" y="566" on="0"/>
        <pt x="171" y="519" on="0"/>
        <pt x="171" y="479" on="1"/>
        <pt x="171" y="452" on="0"/>
        <pt x="201" y="412" on="0"/>
        <pt x="246" y="385" on="0"/>
        <pt x="285" y="366" on="1"/>
        <pt x="336" y="341" on="0"/>
        <pt x="401" y="298" on="0"/>
        <pt x="446" y="225" on="0"/>
        <pt x="446" y="171" on="1"/>
      </contour>
    </TTGlyph>
    <TTGlyph name="dotaccent" xMin="211" yMin="581" xMax="335" yMax="702">
      <component glyphName="uni0307" x="273" y="0" flags="0x0"/>
    </TTGlyph>
    <TTGlyph name="dotbelowcomb" xMin="-62" yMin="-212" xMax="62" yMax="-91">
      <contour>
        <pt x="-27" y="-212" on="0"/>
        <pt x="-62" y="-178" on="0"/>
        <pt x="-62" y="-151" on="1"/>
        <pt x="-62" y="-125" on="0"/>
        <pt x="-27" y="-91" on="0"/>
        <pt x="0" y="-91" on="1"/>
        <pt x="27" y="-91" on="0"/>
        <pt x="62" y="-125" on="0"/>
        <pt x="62" y="-151" on="1"/>
        <pt x="62" y="-178" on="0"/>
        <pt x="27" y="-212" on="0"/>
        <pt x="0" y="-212" on="1"/>
      </contour>
    </TTGlyph>
    <TTGlyph name="dotlessi" xMin="77" yMin="0" xMax="178" yMax="489">
      <contour>
        <pt x="77" y="489" on="1"/>
        <pt x="178" y="489" on="1"/>
        <pt x="178" y="0" on="1"/>
        <pt x="77" y="0" on="1"/>
      </contour>
    </TTGlyph>
    <TTGlyph name="dotlessj" xMin="-40" yMin="-211" xMax="183" yMax="489">
      <contour>
        <pt x="-7" y="-211" on="0"/>
        <pt x="-40" y="-198" on="1"/>
        <pt x="-21" y="-122" on="1"/>
        <pt x="5" y="-130" on="0"/>
        <pt x="23" y="-130" on="1"/>
        <pt x="56" y="-130" on="0"/>
        <pt x="81" y="-85" on="0"/>
        <pt x="81" y="-39" on="1"/>
        <pt x="82" y="489" on="1"/>
        <pt x="183" y="489" on="1"/>
        <pt x="182" y="-38" on="1"/>
        <pt x="182" y="-211" on="0"/>
        <pt x="36" y="-211" on="1"/>
      </contour>
    </TTGlyph>
    <TTGlyph name="e" xMin="43" yMin="-12" xMax="465" yMax="501">
      <contour>
        <pt x="465" y="242" on="0"/>
        <pt x="461" y="218" on="1"/>
        <pt x="138" y="218" on="1"/>
        <pt x="145" y="144" on="0"/>
        <pt x="232" y="67" on="0"/>
        <pt x="294" y="67" on="1"/>
        <pt x="353" y="67" on="0"/>
        <pt x="411" y="104" on="1"/>
        <pt x="446" y="40" on="1"/>
        <pt x="368" y="-12" on="0"/>
        <pt x="281" y="-12" on="1"/>
        <pt x="214" y="-12" on="0"/>
        <pt x="106" y="50" on="0"/>
        <pt x="43" y="166" on="0"/>
        <pt x="43" y="244" on="1"/>
        <pt x="43" y="321" on="0"/>
        <pt x="106" y="438" on="0"/>
        <pt x="208" y="501" on="0"/>
        <pt x="266" y="501" on="1"/>
        <pt x="361" y="501" on="0"/>
        <pt x="465" y="376" on="0"/>
        <pt x="465" y="270" on="1"/>
      </contour>
      <contour>
        <pt x="377" y="288" on="1"/>
        <pt x="377" y="352" on="0"/>
        <pt x="321" y="422" on="0"/>
        <pt x="268" y="422" on="1"/>
        <pt x="222" y="422" on="0"/>
        <pt x="150" y="354" on="0"/>
        <pt x="140" y="288" on="1"/>
      </contour>
    </TTGlyph>
    <TTGlyph name="e.sups" xMin="27" yMin="381" xMax="314" yMax="721">
      <contour>
        <pt x="118" y="381" on="0"/>
        <pt x="27" y="472" on="0"/>
        <pt x="27" y="551" on="1"/>
        <pt x="27" y="602" on="0"/>
        <pt x="68" y="679" on="0"/>
        <pt x="138" y="721" on="0"/>
        <pt x="179" y="721" on="1"/>
        <pt x="248" y="721" on="0"/>
        <pt x="314" y="630" on="0"/>
        <pt x="314" y="570" on="1"/>
        <pt x="314" y="553" on="0"/>
        <pt x="310" y="533" on="1"/>
        <pt x="99" y="533" on="1"/>
        <pt x="103" y="488" on="0"/>
        <pt x="155" y="439" on="0"/>
        <pt x="197" y="439" on="1"/>
        <pt x="239" y="439" on="0"/>
        <pt x="276" y="463" on="1"/>
        <pt x="303" y="417" on="1"/>
        <pt x="248" y="381" on="0"/>
        <pt x="188" y="381" on="1"/>
      </contour>
      <contour>
        <pt x="250" y="579" on="1"/>
        <pt x="250" y="614" on="0"/>
        <pt x="216" y="663" on="0"/>
        <pt x="180" y="663" on="1"/>
        <pt x="147" y="663" on="0"/>
        <pt x="103" y="619" on="0"/>
        <pt x="98" y="579" on="1"/>
      </contour>
    </TTGlyph>
    <TTGlyph name="eacute" xMin="43" yMin="-12" xMax="465" yMax="794">
      <component glyphName="e" x="0" y="0" flags="0x0"/>
      <component glyphName="acutecomb" x="270" y="0" flags="0x0"/>
    </TTGlyph>
    <TTGlyph name="ebreve" xMin="43" yMin="-12" xMax="465" yMax="734">
      <component glyphName="e" x="0" y="0" flags="0x0"/>
      <component glyphName="uni0306" x="270" y="0" flags="0x0"/>
    </TTGlyph>
    <TTGlyph name="ecircumflex" xMin="43" yMin="-12" xMax="465" yMax="741">
      <component glyphName="e" x="0" y="0" flags="0x0"/>
      <component glyphName="uni0302" x="270" y="0" flags="0x0"/>
    </TTGlyph>
    <TTGlyph name="edieresis" xMin="43" yMin="-12" xMax="465" yMax="694">
      <component glyphName="e" x="0" y="0" flags="0x0"/>
      <component glyphName="uni0308" x="270" y="0" flags="0x0"/>
    </TTGlyph>
    <TTGlyph name="egrave" xMin="43" yMin="-12" xMax="465" yMax="794">
      <component glyphName="e" x="0" y="0" flags="0x0"/>
      <component glyphName="gravecomb" x="270" y="0" flags="0x0"/>
    </TTGlyph>
    <TTGlyph name="eight" xMin="41" yMin="-12" xMax="465" yMax="649">
      <contour>
        <pt x="194" y="-12" on="0"/>
        <pt x="96" y="33" on="0"/>
        <pt x="41" y="113" on="0"/>
        <pt x="41" y="163" on="1"/>
        <pt x="41" y="219" on="0"/>
        <pt x="107" y="303" on="0"/>
        <pt x="158" y="330" on="1"/>
        <pt x="158" y="334" on="1"/>
        <pt x="70" y="396" on="0"/>
        <pt x="70" y="482" on="1"/>
        <pt x="70" y="532" on="0"/>
        <pt x="119" y="607" on="0"/>
        <pt x="204" y="649" on="0"/>
        <pt x="257" y="649" on="1"/>
        <pt x="341" y="649" on="0"/>
        <pt x="441" y="554" on="0"/>
        <pt x="441" y="478" on="1"/>
        <pt x="441" y="433" on="0"/>
        <pt x="390" y="354" on="0"/>
        <pt x="355" y="329" on="1"/>
        <pt x="355" y="325" on="1"/>
        <pt x="406" y="295" on="0"/>
        <pt x="465" y="218" on="0"/>
        <pt x="465" y="160" on="1"/>
        <pt x="465" y="112" on="0"/>
        <pt x="412" y="33" on="0"/>
        <pt x="316" y="-12" on="0"/>
        <pt x="254" y="-12" on="1"/>
      </contour>
      <contour>
        <pt x="356" y="410" on="0"/>
        <pt x="356" y="472" on="1"/>
        <pt x="356" y="518" on="0"/>
        <pt x="302" y="576" on="0"/>
        <pt x="255" y="576" on="1"/>
        <pt x="214" y="576" on="0"/>
        <pt x="161" y="525" on="0"/>
        <pt x="161" y="482" on="1"/>
        <pt x="161" y="435" on="0"/>
        <pt x="230" y="381" on="0"/>
        <pt x="297" y="354" on="1"/>
      </contour>
      <contour>
        <pt x="307" y="61" on="0"/>
        <pt x="369" y="117" on="0"/>
        <pt x="369" y="163" on="1"/>
        <pt x="369" y="198" on="0"/>
        <pt x="328" y="246" on="0"/>
        <pt x="268" y="276" on="0"/>
        <pt x="208" y="301" on="1"/>
        <pt x="172" y="276" on="0"/>
        <pt x="130" y="211" on="0"/>
        <pt x="130" y="173" on="1"/>
        <pt x="130" y="124" on="0"/>
        <pt x="202" y="61" on="0"/>
        <pt x="256" y="61" on="1"/>
      </contour>
    </TTGlyph>
    <TTGlyph name="eight.heb" xMin="41" yMin="-12" xMax="465" yMax="649">
      <contour>
        <pt x="194" y="-12" on="0"/>
        <pt x="96" y="33" on="0"/>
        <pt x="41" y="113" on="0"/>
        <pt x="41" y="163" on="1"/>
        <pt x="41" y="219" on="0"/>
        <pt x="107" y="303" on="0"/>
        <pt x="158" y="330" on="1"/>
        <pt x="158" y="334" on="1"/>
        <pt x="70" y="396" on="0"/>
        <pt x="70" y="482" on="1"/>
        <pt x="70" y="532" on="0"/>
        <pt x="119" y="607" on="0"/>
        <pt x="204" y="649" on="0"/>
        <pt x="257" y="649" on="1"/>
        <pt x="341" y="649" on="0"/>
        <pt x="441" y="554" on="0"/>
        <pt x="441" y="478" on="1"/>
        <pt x="441" y="433" on="0"/>
        <pt x="390" y="354" on="0"/>
        <pt x="355" y="329" on="1"/>
        <pt x="355" y="325" on="1"/>
        <pt x="406" y="295" on="0"/>
        <pt x="465" y="218" on="0"/>
        <pt x="465" y="160" on="1"/>
        <pt x="465" y="112" on="0"/>
        <pt x="412" y="33" on="0"/>
        <pt x="316" y="-12" on="0"/>
        <pt x="254" y="-12" on="1"/>
      </contour>
      <contour>
        <pt x="356" y="410" on="0"/>
        <pt x="356" y="472" on="1"/>
        <pt x="356" y="518" on="0"/>
        <pt x="302" y="576" on="0"/>
        <pt x="255" y="576" on="1"/>
        <pt x="214" y="576" on="0"/>
        <pt x="161" y="525" on="0"/>
        <pt x="161" y="482" on="1"/>
        <pt x="161" y="435" on="0"/>
        <pt x="230" y="381" on="0"/>
        <pt x="297" y="354" on="1"/>
      </contour>
      <contour>
        <pt x="307" y="61" on="0"/>
        <pt x="369" y="117" on="0"/>
        <pt x="369" y="163" on="1"/>
        <pt x="369" y="198" on="0"/>
        <pt x="328" y="246" on="0"/>
        <pt x="268" y="276" on="0"/>
        <pt x="208" y="301" on="1"/>
        <pt x="172" y="276" on="0"/>
        <pt x="130" y="211" on="0"/>
        <pt x="130" y="173" on="1"/>
        <pt x="130" y="124" on="0"/>
        <pt x="202" y="61" on="0"/>
        <pt x="256" y="61" on="1"/>
      </contour>
    </TTGlyph>
    <TTGlyph name="eight.lat" xMin="41" yMin="-12" xMax="465" yMax="649">
      <contour>
        <pt x="194" y="-12" on="0"/>
        <pt x="96" y="33" on="0"/>
        <pt x="41" y="113" on="0"/>
        <pt x="41" y="163" on="1"/>
        <pt x="41" y="219" on="0"/>
        <pt x="107" y="303" on="0"/>
        <pt x="158" y="330" on="1"/>
        <pt x="158" y="334" on="1"/>
        <pt x="70" y="396" on="0"/>
        <pt x="70" y="482" on="1"/>
        <pt x="70" y="532" on="0"/>
        <pt x="119" y="607" on="0"/>
        <pt x="204" y="649" on="0"/>
        <pt x="257" y="649" on="1"/>
        <pt x="341" y="649" on="0"/>
        <pt x="441" y="554" on="0"/>
        <pt x="441" y="478" on="1"/>
        <pt x="441" y="433" on="0"/>
        <pt x="390" y="354" on="0"/>
        <pt x="355" y="329" on="1"/>
        <pt x="355" y="325" on="1"/>
        <pt x="406" y="295" on="0"/>
        <pt x="465" y="218" on="0"/>
        <pt x="465" y="160" on="1"/>
        <pt x="465" y="112" on="0"/>
        <pt x="412" y="33" on="0"/>
        <pt x="316" y="-12" on="0"/>
        <pt x="254" y="-12" on="1"/>
      </contour>
      <contour>
        <pt x="356" y="410" on="0"/>
        <pt x="356" y="472" on="1"/>
        <pt x="356" y="518" on="0"/>
        <pt x="302" y="576" on="0"/>
        <pt x="255" y="576" on="1"/>
        <pt x="214" y="576" on="0"/>
        <pt x="161" y="525" on="0"/>
        <pt x="161" y="482" on="1"/>
        <pt x="161" y="435" on="0"/>
        <pt x="230" y="381" on="0"/>
        <pt x="297" y="354" on="1"/>
      </contour>
      <contour>
        <pt x="307" y="61" on="0"/>
        <pt x="369" y="117" on="0"/>
        <pt x="369" y="163" on="1"/>
        <pt x="369" y="198" on="0"/>
        <pt x="328" y="246" on="0"/>
        <pt x="268" y="276" on="0"/>
        <pt x="208" y="301" on="1"/>
        <pt x="172" y="276" on="0"/>
        <pt x="130" y="211" on="0"/>
        <pt x="130" y="173" on="1"/>
        <pt x="130" y="124" on="0"/>
        <pt x="202" y="61" on="0"/>
        <pt x="256" y="61" on="1"/>
      </contour>
    </TTGlyph>
    <TTGlyph name="ellipsis" xMin="98" yMin="-12" xMax="902" yMax="131">
      <component glyphName="period" x="34" y="0" flags="0x0"/>
      <component glyphName="period" x="368" y="0" flags="0x0"/>
      <component glyphName="period" x="702" y="0" flags="0x0"/>
    </TTGlyph>
    <TTGlyph name="emacron" xMin="43" yMin="-12" xMax="465" yMax="666">
      <component glyphName="e" x="0" y="0" flags="0x0"/>
      <component glyphName="uni0304" x="270" y="0" flags="0x0"/>
    </TTGlyph>
    <TTGlyph name="emdash" xMin="42" yMin="218" xMax="758" yMax="286">
      <contour>
        <pt x="42" y="286" on="1"/>
        <pt x="758" y="286" on="1"/>
        <pt x="758" y="218" on="1"/>
        <pt x="42" y="218" on="1"/>
      </contour>
    </TTGlyph>
    <TTGlyph name="emdash.lat" xMin="42" yMin="218" xMax="758" yMax="286">
      <contour>
        <pt x="42" y="286" on="1"/>
        <pt x="758" y="286" on="1"/>
        <pt x="758" y="218" on="1"/>
        <pt x="42" y="218" on="1"/>
      </contour>
    </TTGlyph>
    <TTGlyph name="endash" xMin="42" yMin="218" xMax="438" yMax="286">
      <contour>
        <pt x="42" y="286" on="1"/>
        <pt x="438" y="286" on="1"/>
        <pt x="438" y="218" on="1"/>
        <pt x="42" y="218" on="1"/>
      </contour>
    </TTGlyph>
    <TTGlyph name="endash.lat" xMin="42" yMin="218" xMax="438" yMax="286">
      <contour>
        <pt x="42" y="286" on="1"/>
        <pt x="438" y="286" on="1"/>
        <pt x="438" y="218" on="1"/>
        <pt x="42" y="218" on="1"/>
      </contour>
    </TTGlyph>
    <TTGlyph name="eogonek" xMin="43" yMin="-207" xMax="465" yMax="501">
      <contour>
        <pt x="317" y="-207" on="0"/>
        <pt x="265" y="-162" on="0"/>
        <pt x="265" y="-120" on="1"/>
        <pt x="265" y="-87" on="0"/>
        <pt x="300" y="-27" on="0"/>
        <pt x="324" y="-6" on="1"/>
        <pt x="305" y="-12" on="0"/>
        <pt x="281" y="-12" on="1"/>
        <pt x="214" y="-12" on="0"/>
        <pt x="106" y="50" on="0"/>
        <pt x="43" y="166" on="0"/>
        <pt x="43" y="244" on="1"/>
        <pt x="43" y="321" on="0"/>
        <pt x="106" y="438" on="0"/>
        <pt x="208" y="501" on="0"/>
        <pt x="266" y="501" on="1"/>
        <pt x="361" y="501" on="0"/>
        <pt x="465" y="376" on="0"/>
        <pt x="465" y="270" on="1"/>
        <pt x="465" y="242" on="0"/>
        <pt x="461" y="218" on="1"/>
        <pt x="142" y="218" on="1"/>
        <pt x="148" y="148" on="0"/>
        <pt x="230" y="67" on="0"/>
        <pt x="294" y="67" on="1"/>
        <pt x="353" y="67" on="0"/>
        <pt x="411" y="104" on="1"/>
        <pt x="446" y="40" on="1"/>
        <pt x="383" y="-5" on="0"/>
        <pt x="336" y="-67" on="0"/>
        <pt x="336" y="-99" on="1"/>
        <pt x="336" y="-120" on="0"/>
        <pt x="362" y="-143" on="0"/>
        <pt x="382" y="-143" on="1"/>
        <pt x="402" y="-143" on="0"/>
        <pt x="420" y="-130" on="1"/>
        <pt x="444" y="-178" on="1"/>
        <pt x="428" y="-191" on="0"/>
        <pt x="380" y="-207" on="0"/>
        <pt x="359" y="-207" on="1"/>
      </contour>
      <contour>
        <pt x="377" y="288" on="1"/>
        <pt x="377" y="352" on="0"/>
        <pt x="321" y="422" on="0"/>
        <pt x="268" y="422" on="1"/>
        <pt x="220" y="422" on="0"/>
        <pt x="148" y="351" on="0"/>
        <pt x="141" y="288" on="1"/>
      </contour>
    </TTGlyph>
    <TTGlyph name="eogonek.sups" xMin="27" yMin="381" xMax="314" yMax="721">
      <contour>
        <pt x="118" y="381" on="0"/>
        <pt x="27" y="472" on="0"/>
        <pt x="27" y="551" on="1"/>
        <pt x="27" y="602" on="0"/>
        <pt x="68" y="679" on="0"/>
        <pt x="138" y="721" on="0"/>
        <pt x="179" y="721" on="1"/>
        <pt x="248" y="721" on="0"/>
        <pt x="314" y="630" on="0"/>
        <pt x="314" y="570" on="1"/>
        <pt x="314" y="553" on="0"/>
        <pt x="310" y="533" on="1"/>
        <pt x="99" y="533" on="1"/>
        <pt x="103" y="488" on="0"/>
        <pt x="155" y="439" on="0"/>
        <pt x="197" y="439" on="1"/>
        <pt x="239" y="439" on="0"/>
        <pt x="276" y="463" on="1"/>
        <pt x="303" y="417" on="1"/>
        <pt x="248" y="381" on="0"/>
        <pt x="188" y="381" on="1"/>
      </contour>
      <contour>
        <pt x="250" y="579" on="1"/>
        <pt x="250" y="614" on="0"/>
        <pt x="216" y="663" on="0"/>
        <pt x="180" y="663" on="1"/>
        <pt x="147" y="663" on="0"/>
        <pt x="103" y="619" on="0"/>
        <pt x="98" y="579" on="1"/>
      </contour>
    </TTGlyph>
    <TTGlyph name="equal" xMin="34" yMin="183" xMax="472" yMax="477">
      <component glyphName="minus" x="0" y="110" flags="0x4"/>
      <component glyphName="minus" x="0" y="-110" flags="0x4"/>
    </TTGlyph>
    <TTGlyph name="estimated" xMin="46" yMin="-12" xMax="755" yMax="661">
      <contour>
        <pt x="305" y="-12" on="0"/>
        <pt x="142" y="79" on="0"/>
        <pt x="46" y="234" on="0"/>
        <pt x="46" y="325" on="1"/>
        <pt x="46" y="416" on="0"/>
        <pt x="142" y="571" on="0"/>
        <pt x="305" y="661" on="0"/>
        <pt x="401" y="661" on="1"/>
        <pt x="497" y="661" on="0"/>
        <pt x="660" y="571" on="0"/>
        <pt x="755" y="417" on="0"/>
        <pt x="755" y="325" on="1"/>
        <pt x="755" y="316" on="1"/>
        <pt x="180" y="316" on="1"/>
        <pt x="176" y="316" on="0"/>
        <pt x="176" y="312" on="1"/>
        <pt x="176" y="129" on="1"/>
        <pt x="176" y="120" on="0"/>
        <pt x="184" y="108" on="1"/>
        <pt x="225" y="61" on="0"/>
        <pt x="339" y="9" on="0"/>
        <pt x="402" y="9" on="1"/>
        <pt x="469" y="9" on="0"/>
        <pt x="588" y="68" on="0"/>
        <pt x="630" y="120" on="1"/>
        <pt x="682" y="120" on="1"/>
        <pt x="632" y="59" on="0"/>
        <pt x="485" y="-12" on="0"/>
        <pt x="401" y="-12" on="1"/>
      </contour>
      <contour>
        <pt x="621" y="335" on="1"/>
        <pt x="626" y="335" on="0"/>
        <pt x="626" y="340" on="1"/>
        <pt x="626" y="524" on="1"/>
        <pt x="626" y="535" on="0"/>
        <pt x="617" y="546" on="1"/>
        <pt x="574" y="591" on="0"/>
        <pt x="463" y="641" on="0"/>
        <pt x="402" y="641" on="1"/>
        <pt x="339" y="641" on="0"/>
        <pt x="227" y="589" on="0"/>
        <pt x="185" y="543" on="1"/>
        <pt x="176" y="532" on="0"/>
        <pt x="176" y="520" on="1"/>
        <pt x="176" y="340" on="1"/>
        <pt x="176" y="335" on="0"/>
        <pt x="180" y="335" on="1"/>
      </contour>
    </TTGlyph>
    <TTGlyph name="eth" xMin="50" yMin="-12" xMax="492" yMax="733">
      <contour>
        <pt x="492" y="466" on="0"/>
        <pt x="492" y="260" on="1"/>
        <pt x="492" y="180" on="0"/>
        <pt x="437" y="57" on="0"/>
        <pt x="337" y="-12" on="0"/>
        <pt x="270" y="-12" on="1"/>
        <pt x="211" y="-12" on="0"/>
        <pt x="111" y="46" on="0"/>
        <pt x="50" y="153" on="0"/>
        <pt x="50" y="224" on="1"/>
        <pt x="50" y="291" on="0"/>
        <pt x="105" y="394" on="0"/>
        <pt x="198" y="449" on="0"/>
        <pt x="255" y="449" on="1"/>
        <pt x="292" y="449" on="0"/>
        <pt x="358" y="420" on="0"/>
        <pt x="381" y="391" on="1"/>
        <pt x="354" y="494" on="0"/>
        <pt x="281" y="565" on="1"/>
        <pt x="139" y="493" on="1"/>
        <pt x="111" y="541" on="1"/>
        <pt x="235" y="604" on="1"/>
        <pt x="195" y="634" on="0"/>
        <pt x="130" y="670" on="1"/>
        <pt x="175" y="733" on="1"/>
        <pt x="255" y="692" on="0"/>
        <pt x="313" y="644" on="1"/>
        <pt x="455" y="717" on="1"/>
        <pt x="483" y="668" on="1"/>
        <pt x="357" y="604" on="1"/>
      </contour>
      <contour>
        <pt x="332" y="71" on="0"/>
        <pt x="396" y="169" on="0"/>
        <pt x="396" y="255" on="1"/>
        <pt x="396" y="274" on="0"/>
        <pt x="394" y="308" on="1"/>
        <pt x="367" y="344" on="0"/>
        <pt x="307" y="372" on="0"/>
        <pt x="273" y="372" on="1"/>
        <pt x="213" y="372" on="0"/>
        <pt x="144" y="291" on="0"/>
        <pt x="144" y="224" on="1"/>
        <pt x="144" y="178" on="0"/>
        <pt x="179" y="109" on="0"/>
        <pt x="238" y="71" on="0"/>
        <pt x="273" y="71" on="1"/>
      </contour>
    </TTGlyph>
    <TTGlyph name="exclam" xMin="84" yMin="-12" xMax="220" yMax="670">
      <contour>
        <pt x="104" y="565" on="1"/>
        <pt x="101" y="670" on="1"/>
        <pt x="203" y="670" on="1"/>
        <pt x="200" y="565" on="1"/>
        <pt x="186" y="208" on="1"/>
        <pt x="118" y="208" on="1"/>
      </contour>
      <contour>
        <pt x="123" y="-12" on="0"/>
        <pt x="84" y="28" on="0"/>
        <pt x="84" y="59" on="1"/>
        <pt x="84" y="90" on="0"/>
        <pt x="123" y="131" on="0"/>
        <pt x="152" y="131" on="1"/>
        <pt x="181" y="131" on="0"/>
        <pt x="220" y="90" on="0"/>
        <pt x="220" y="59" on="1"/>
        <pt x="220" y="28" on="0"/>
        <pt x="181" y="-12" on="0"/>
        <pt x="152" y="-12" on="1"/>
      </contour>
    </TTGlyph>
    <TTGlyph name="exclam.lat" xMin="84" yMin="-12" xMax="220" yMax="670">
      <contour>
        <pt x="104" y="565" on="1"/>
        <pt x="101" y="670" on="1"/>
        <pt x="203" y="670" on="1"/>
        <pt x="200" y="565" on="1"/>
        <pt x="186" y="208" on="1"/>
        <pt x="118" y="208" on="1"/>
      </contour>
      <contour>
        <pt x="123" y="-12" on="0"/>
        <pt x="84" y="28" on="0"/>
        <pt x="84" y="59" on="1"/>
        <pt x="84" y="90" on="0"/>
        <pt x="123" y="131" on="0"/>
        <pt x="152" y="131" on="1"/>
        <pt x="181" y="131" on="0"/>
        <pt x="220" y="90" on="0"/>
        <pt x="220" y="59" on="1"/>
        <pt x="220" y="28" on="0"/>
        <pt x="181" y="-12" on="0"/>
        <pt x="152" y="-12" on="1"/>
      </contour>
    </TTGlyph>
    <TTGlyph name="exclamdown" xMin="84" yMin="-181" xMax="220" yMax="501">
      <contour>
        <pt x="123" y="358" on="0"/>
        <pt x="84" y="399" on="0"/>
        <pt x="84" y="430" on="1"/>
        <pt x="84" y="461" on="0"/>
        <pt x="123" y="501" on="0"/>
        <pt x="152" y="501" on="1"/>
        <pt x="181" y="501" on="0"/>
        <pt x="220" y="461" on="0"/>
        <pt x="220" y="430" on="1"/>
        <pt x="220" y="399" on="0"/>
        <pt x="181" y="358" on="0"/>
        <pt x="152" y="358" on="1"/>
      </contour>
      <contour>
        <pt x="104" y="-76" on="1"/>
        <pt x="118" y="281" on="1"/>
        <pt x="186" y="281" on="1"/>
        <pt x="200" y="-76" on="1"/>
        <pt x="203" y="-181" on="1"/>
        <pt x="101" y="-181" on="1"/>
      </contour>
    </TTGlyph>
    <TTGlyph name="f" xMin="28" yMin="0" xMax="334" yMax="721">
      <contour>
        <pt x="195" y="640" on="0"/>
        <pt x="195" y="552" on="1"/>
        <pt x="195" y="489" on="1"/>
        <pt x="294" y="489" on="1"/>
        <pt x="294" y="408" on="1"/>
        <pt x="195" y="408" on="1"/>
        <pt x="195" y="0" on="1"/>
        <pt x="94" y="0" on="1"/>
        <pt x="94" y="408" on="1"/>
        <pt x="28" y="408" on="1"/>
        <pt x="28" y="484" on="1"/>
        <pt x="94" y="489" on="1"/>
        <pt x="94" y="551" on="1"/>
        <pt x="94" y="630" on="0"/>
        <pt x="170" y="721" on="0"/>
        <pt x="248" y="721" on="1"/>
        <pt x="292" y="721" on="0"/>
        <pt x="334" y="704" on="1"/>
        <pt x="314" y="628" on="1"/>
        <pt x="287" y="640" on="0"/>
        <pt x="260" y="640" on="1"/>
      </contour>
    </TTGlyph>
    <TTGlyph name="fi" xMin="28" yMin="0" xMax="496" yMax="721">
      <component glyphName="f" x="0" y="0" flags="0x0"/>
      <component glyphName="dotlessi" x="306" y="0" flags="0x0"/>
      <component glyphName="uni0307" x="434" y="0" flags="0x0"/>
    </TTGlyph>
    <TTGlyph name="five" xMin="24" yMin="-12" xMax="458" yMax="637">
      <contour>
        <pt x="167" y="-12" on="0"/>
        <pt x="64" y="36" on="0"/>
        <pt x="24" y="76" on="1"/>
        <pt x="72" y="141" on="1"/>
        <pt x="105" y="109" on="0"/>
        <pt x="179" y="71" on="0"/>
        <pt x="226" y="71" on="1"/>
        <pt x="283" y="71" on="0"/>
        <pt x="356" y="143" on="0"/>
        <pt x="356" y="203" on="1"/>
        <pt x="356" y="263" on="0"/>
        <pt x="288" y="331" on="0"/>
        <pt x="231" y="331" on="1"/>
        <pt x="201" y="331" on="0"/>
        <pt x="157" y="314" on="0"/>
        <pt x="126" y="294" on="1"/>
        <pt x="76" y="326" on="1"/>
        <pt x="96" y="637" on="1"/>
        <pt x="427" y="637" on="1"/>
        <pt x="427" y="551" on="1"/>
        <pt x="184" y="551" on="1"/>
        <pt x="169" y="382" on="1"/>
        <pt x="212" y="405" on="0"/>
        <pt x="259" y="405" on="1"/>
        <pt x="346" y="405" on="0"/>
        <pt x="458" y="304" on="0"/>
        <pt x="458" y="206" on="1"/>
        <pt x="458" y="139" on="0"/>
        <pt x="397" y="40" on="0"/>
        <pt x="297" y="-12" on="0"/>
        <pt x="238" y="-12" on="1"/>
      </contour>
    </TTGlyph>
    <TTGlyph name="five.heb" xMin="24" yMin="-12" xMax="458" yMax="637">
      <contour>
        <pt x="167" y="-12" on="0"/>
        <pt x="64" y="36" on="0"/>
        <pt x="24" y="76" on="1"/>
        <pt x="72" y="141" on="1"/>
        <pt x="105" y="109" on="0"/>
        <pt x="179" y="71" on="0"/>
        <pt x="226" y="71" on="1"/>
        <pt x="283" y="71" on="0"/>
        <pt x="356" y="143" on="0"/>
        <pt x="356" y="203" on="1"/>
        <pt x="356" y="263" on="0"/>
        <pt x="288" y="331" on="0"/>
        <pt x="231" y="331" on="1"/>
        <pt x="201" y="331" on="0"/>
        <pt x="157" y="314" on="0"/>
        <pt x="126" y="294" on="1"/>
        <pt x="76" y="326" on="1"/>
        <pt x="96" y="637" on="1"/>
        <pt x="427" y="637" on="1"/>
        <pt x="427" y="551" on="1"/>
        <pt x="184" y="551" on="1"/>
        <pt x="169" y="382" on="1"/>
        <pt x="212" y="405" on="0"/>
        <pt x="259" y="405" on="1"/>
        <pt x="346" y="405" on="0"/>
        <pt x="458" y="304" on="0"/>
        <pt x="458" y="206" on="1"/>
        <pt x="458" y="139" on="0"/>
        <pt x="397" y="40" on="0"/>
        <pt x="297" y="-12" on="0"/>
        <pt x="238" y="-12" on="1"/>
      </contour>
    </TTGlyph>
    <TTGlyph name="five.lat" xMin="24" yMin="-12" xMax="458" yMax="637">
      <contour>
        <pt x="167" y="-12" on="0"/>
        <pt x="64" y="36" on="0"/>
        <pt x="24" y="76" on="1"/>
        <pt x="72" y="141" on="1"/>
        <pt x="105" y="109" on="0"/>
        <pt x="179" y="71" on="0"/>
        <pt x="226" y="71" on="1"/>
        <pt x="283" y="71" on="0"/>
        <pt x="356" y="143" on="0"/>
        <pt x="356" y="203" on="1"/>
        <pt x="356" y="263" on="0"/>
        <pt x="288" y="331" on="0"/>
        <pt x="231" y="331" on="1"/>
        <pt x="201" y="331" on="0"/>
        <pt x="157" y="314" on="0"/>
        <pt x="126" y="294" on="1"/>
        <pt x="76" y="326" on="1"/>
        <pt x="96" y="637" on="1"/>
        <pt x="427" y="637" on="1"/>
        <pt x="427" y="551" on="1"/>
        <pt x="184" y="551" on="1"/>
        <pt x="169" y="382" on="1"/>
        <pt x="212" y="405" on="0"/>
        <pt x="259" y="405" on="1"/>
        <pt x="346" y="405" on="0"/>
        <pt x="458" y="304" on="0"/>
        <pt x="458" y="206" on="1"/>
        <pt x="458" y="139" on="0"/>
        <pt x="397" y="40" on="0"/>
        <pt x="297" y="-12" on="0"/>
        <pt x="238" y="-12" on="1"/>
      </contour>
    </TTGlyph>
    <TTGlyph name="fl" xMin="28" yMin="-12" xMax="539" yMax="721">
      <component glyphName="f" x="0" y="0" flags="0x0"/>
      <component glyphName="l" x="306" y="0" flags="0x0"/>
    </TTGlyph>
    <TTGlyph name="florin" xMin="21" yMin="-97" xMax="471" yMax="667">
      <contour>
        <pt x="324" y="585" on="0"/>
        <pt x="311" y="470" on="1"/>
        <pt x="304" y="410" on="1"/>
        <pt x="423" y="410" on="1"/>
        <pt x="423" y="334" on="1"/>
        <pt x="295" y="334" on="1"/>
        <pt x="270" y="111" on="1"/>
        <pt x="258" y="11" on="0"/>
        <pt x="181" y="-97" on="0"/>
        <pt x="98" y="-97" on="1"/>
        <pt x="48" y="-97" on="0"/>
        <pt x="21" y="-82" on="1"/>
        <pt x="38" y="-6" on="1"/>
        <pt x="59" y="-16" on="0"/>
        <pt x="86" y="-16" on="1"/>
        <pt x="128" y="-15" on="0"/>
        <pt x="168" y="54" on="0"/>
        <pt x="177" y="136" on="1"/>
        <pt x="199" y="334" on="1"/>
        <pt x="115" y="334" on="1"/>
        <pt x="115" y="405" on="1"/>
        <pt x="186" y="410" on="1"/>
        <pt x="207" y="410" on="1"/>
        <pt x="213" y="462" on="1"/>
        <pt x="225" y="567" on="0"/>
        <pt x="307" y="667" on="0"/>
        <pt x="390" y="667" on="1"/>
        <pt x="411" y="667" on="0"/>
        <pt x="455" y="656" on="0"/>
        <pt x="471" y="649" on="1"/>
        <pt x="450" y="572" on="1"/>
        <pt x="422" y="585" on="0"/>
        <pt x="397" y="585" on="1"/>
      </contour>
    </TTGlyph>
    <TTGlyph name="florin.lat" xMin="21" yMin="-97" xMax="471" yMax="667">
      <contour>
        <pt x="324" y="585" on="0"/>
        <pt x="311" y="470" on="1"/>
        <pt x="304" y="410" on="1"/>
        <pt x="423" y="410" on="1"/>
        <pt x="423" y="334" on="1"/>
        <pt x="295" y="334" on="1"/>
        <pt x="270" y="111" on="1"/>
        <pt x="258" y="11" on="0"/>
        <pt x="181" y="-97" on="0"/>
        <pt x="98" y="-97" on="1"/>
        <pt x="48" y="-97" on="0"/>
        <pt x="21" y="-82" on="1"/>
        <pt x="38" y="-6" on="1"/>
        <pt x="59" y="-16" on="0"/>
        <pt x="86" y="-16" on="1"/>
        <pt x="128" y="-15" on="0"/>
        <pt x="168" y="54" on="0"/>
        <pt x="177" y="136" on="1"/>
        <pt x="199" y="334" on="1"/>
        <pt x="115" y="334" on="1"/>
        <pt x="115" y="405" on="1"/>
        <pt x="186" y="410" on="1"/>
        <pt x="207" y="410" on="1"/>
        <pt x="213" y="462" on="1"/>
        <pt x="225" y="567" on="0"/>
        <pt x="307" y="667" on="0"/>
        <pt x="390" y="667" on="1"/>
        <pt x="411" y="667" on="0"/>
        <pt x="455" y="656" on="0"/>
        <pt x="471" y="649" on="1"/>
        <pt x="450" y="572" on="1"/>
        <pt x="422" y="585" on="0"/>
        <pt x="397" y="585" on="1"/>
      </contour>
    </TTGlyph>
    <TTGlyph name="four" xMin="18" yMin="0" xMax="479" yMax="637">
      <contour>
        <pt x="479" y="169" on="1"/>
        <pt x="396" y="169" on="1"/>
        <pt x="396" y="0" on="1"/>
        <pt x="301" y="0" on="1"/>
        <pt x="301" y="169" on="1"/>
        <pt x="18" y="169" on="1"/>
        <pt x="18" y="237" on="1"/>
        <pt x="279" y="637" on="1"/>
        <pt x="396" y="637" on="1"/>
        <pt x="396" y="248" on="1"/>
        <pt x="479" y="248" on="1"/>
      </contour>
      <contour>
        <pt x="301" y="248" on="1"/>
        <pt x="301" y="410" on="1"/>
        <pt x="301" y="451" on="0"/>
        <pt x="306" y="538" on="1"/>
        <pt x="302" y="538" on="1"/>
        <pt x="298" y="531" on="0"/>
        <pt x="269" y="477" on="1"/>
        <pt x="265" y="471" on="0"/>
        <pt x="256" y="454" on="0"/>
        <pt x="250" y="443" on="1"/>
        <pt x="120" y="248" on="1"/>
      </contour>
    </TTGlyph>
    <TTGlyph name="four.heb" xMin="18" yMin="0" xMax="479" yMax="637">
      <contour>
        <pt x="479" y="169" on="1"/>
        <pt x="396" y="169" on="1"/>
        <pt x="396" y="0" on="1"/>
        <pt x="301" y="0" on="1"/>
        <pt x="301" y="169" on="1"/>
        <pt x="18" y="169" on="1"/>
        <pt x="18" y="237" on="1"/>
        <pt x="279" y="637" on="1"/>
        <pt x="396" y="637" on="1"/>
        <pt x="396" y="248" on="1"/>
        <pt x="479" y="248" on="1"/>
      </contour>
      <contour>
        <pt x="301" y="248" on="1"/>
        <pt x="301" y="410" on="1"/>
        <pt x="301" y="451" on="0"/>
        <pt x="306" y="538" on="1"/>
        <pt x="302" y="538" on="1"/>
        <pt x="298" y="531" on="0"/>
        <pt x="269" y="477" on="1"/>
        <pt x="265" y="471" on="0"/>
        <pt x="256" y="454" on="0"/>
        <pt x="250" y="443" on="1"/>
        <pt x="120" y="248" on="1"/>
      </contour>
    </TTGlyph>
    <TTGlyph name="four.lat" xMin="18" yMin="0" xMax="479" yMax="637">
      <contour>
        <pt x="479" y="169" on="1"/>
        <pt x="396" y="169" on="1"/>
        <pt x="396" y="0" on="1"/>
        <pt x="301" y="0" on="1"/>
        <pt x="301" y="169" on="1"/>
        <pt x="18" y="169" on="1"/>
        <pt x="18" y="237" on="1"/>
        <pt x="279" y="637" on="1"/>
        <pt x="396" y="637" on="1"/>
        <pt x="396" y="248" on="1"/>
        <pt x="479" y="248" on="1"/>
      </contour>
      <contour>
        <pt x="301" y="248" on="1"/>
        <pt x="301" y="410" on="1"/>
        <pt x="301" y="451" on="0"/>
        <pt x="306" y="538" on="1"/>
        <pt x="302" y="538" on="1"/>
        <pt x="298" y="531" on="0"/>
        <pt x="269" y="477" on="1"/>
        <pt x="265" y="471" on="0"/>
        <pt x="256" y="454" on="0"/>
        <pt x="250" y="443" on="1"/>
        <pt x="120" y="248" on="1"/>
      </contour>
    </TTGlyph>
    <TTGlyph name="fraction" xMin="-168" yMin="-12" xMax="255" yMax="667">
      <contour>
        <pt x="191" y="667" on="1"/>
        <pt x="255" y="667" on="1"/>
        <pt x="-104" y="-12" on="1"/>
        <pt x="-168" y="-12" on="1"/>
      </contour>
    </TTGlyph>
    <TTGlyph name="fraction.lat" xMin="-168" yMin="-12" xMax="255" yMax="667">
      <contour>
        <pt x="191" y="667" on="1"/>
        <pt x="255" y="667" on="1"/>
        <pt x="-104" y="-12" on="1"/>
        <pt x="-168" y="-12" on="1"/>
      </contour>
    </TTGlyph>
    <TTGlyph name="g" xMin="42" yMin="-220" xMax="500" yMax="501">
      <contour>
        <pt x="154" y="-220" on="0"/>
        <pt x="42" y="-153" on="0"/>
        <pt x="42" y="-91" on="1"/>
        <pt x="42" y="-60" on="0"/>
        <pt x="79" y="-5" on="0"/>
        <pt x="113" y="16" on="1"/>
        <pt x="113" y="20" on="1"/>
        <pt x="69" y="48" on="0"/>
        <pt x="69" y="101" on="1"/>
        <pt x="69" y="128" on="0"/>
        <pt x="100" y="176" on="0"/>
        <pt x="123" y="192" on="1"/>
        <pt x="123" y="196" on="1"/>
        <pt x="96" y="217" on="0"/>
        <pt x="59" y="285" on="0"/>
        <pt x="59" y="326" on="1"/>
        <pt x="59" y="379" on="0"/>
        <pt x="110" y="459" on="0"/>
        <pt x="197" y="501" on="0"/>
        <pt x="248" y="501" on="1"/>
        <pt x="286" y="501" on="0"/>
        <pt x="319" y="489" on="1"/>
        <pt x="492" y="489" on="1"/>
        <pt x="492" y="413" on="1"/>
        <pt x="398" y="413" on="1"/>
        <pt x="413" y="397" on="0"/>
        <pt x="431" y="350" on="0"/>
        <pt x="431" y="323" on="1"/>
        <pt x="431" y="245" on="0"/>
        <pt x="327" y="155" on="0"/>
        <pt x="248" y="155" on="1"/>
        <pt x="212" y="155" on="0"/>
        <pt x="179" y="170" on="1"/>
        <pt x="166" y="158" on="0"/>
        <pt x="152" y="135" on="0"/>
        <pt x="152" y="118" on="1"/>
        <pt x="152" y="95" on="0"/>
        <pt x="190" y="70" on="0"/>
        <pt x="234" y="70" on="1"/>
        <pt x="325" y="70" on="1"/>
        <pt x="413" y="70" on="0"/>
        <pt x="500" y="12" on="0"/>
        <pt x="500" y="-49" on="1"/>
        <pt x="500" y="-96" on="0"/>
        <pt x="437" y="-174" on="0"/>
        <pt x="321" y="-220" on="0"/>
        <pt x="245" y="-220" on="1"/>
      </contour>
      <contour>
        <pt x="288" y="220" on="0"/>
        <pt x="341" y="278" on="0"/>
        <pt x="341" y="326" on="1"/>
        <pt x="341" y="374" on="0"/>
        <pt x="288" y="430" on="0"/>
        <pt x="248" y="430" on="1"/>
        <pt x="208" y="430" on="0"/>
        <pt x="155" y="374" on="0"/>
        <pt x="155" y="326" on="1"/>
        <pt x="155" y="278" on="0"/>
        <pt x="208" y="220" on="0"/>
        <pt x="248" y="220" on="1"/>
      </contour>
      <contour>
        <pt x="301" y="-153" on="0"/>
        <pt x="366" y="-129" on="0"/>
        <pt x="402" y="-88" on="0"/>
        <pt x="402" y="-65" on="1"/>
        <pt x="402" y="-35" on="0"/>
        <pt x="357" y="-11" on="0"/>
        <pt x="311" y="-11" on="1"/>
        <pt x="236" y="-11" on="1"/>
        <pt x="199" y="-11" on="0"/>
        <pt x="171" y="-4" on="1"/>
        <pt x="128" y="-36" on="0"/>
        <pt x="128" y="-76" on="1"/>
        <pt x="128" y="-112" on="0"/>
        <pt x="198" y="-153" on="0"/>
        <pt x="260" y="-153" on="1"/>
      </contour>
    </TTGlyph>
    <TTGlyph name="gammalatin" xMin="12" yMin="-206" xMax="471" yMax="489">
      <contour>
        <pt x="291" y="45" on="1"/>
        <pt x="307" y="-36" on="0"/>
        <pt x="307" y="-97" on="1"/>
        <pt x="307" y="-144" on="0"/>
        <pt x="271" y="-206" on="0"/>
        <pt x="244" y="-206" on="1"/>
        <pt x="217" y="-206" on="0"/>
        <pt x="181" y="-144" on="0"/>
        <pt x="181" y="-97" on="1"/>
        <pt x="181" y="-36" on="0"/>
        <pt x="197" y="45" on="1"/>
        <pt x="185" y="45" on="1"/>
        <pt x="12" y="489" on="1"/>
        <pt x="115" y="489" on="1"/>
        <pt x="199" y="245" on="1"/>
        <pt x="209" y="213" on="0"/>
        <pt x="221" y="185" on="1"/>
        <pt x="239" y="135" on="0"/>
        <pt x="242" y="124" on="1"/>
        <pt x="246" y="124" on="1"/>
        <pt x="255" y="153" on="0"/>
        <pt x="268" y="185" on="1"/>
        <pt x="282" y="223" on="0"/>
        <pt x="289" y="245" on="1"/>
        <pt x="373" y="489" on="1"/>
        <pt x="471" y="489" on="1"/>
        <pt x="302" y="45" on="1"/>
      </contour>
    </TTGlyph>
    <TTGlyph name="gcaron" xMin="42" yMin="-220" xMax="500" yMax="750">
      <component glyphName="g" x="0" y="0" flags="0x0"/>
      <component glyphName="uni030C" x="264" y="0" flags="0x0"/>
    </TTGlyph>
    <TTGlyph name="gdotaccent" xMin="42" yMin="-220" xMax="500" yMax="702">
      <component glyphName="g" x="0" y="0" flags="0x0"/>
      <component glyphName="uni0307" x="264" y="0" flags="0x0"/>
    </TTGlyph>
    <TTGlyph name="germandbls" xMin="77" yMin="-12" xMax="564" yMax="719">
      <contour>
        <pt x="322" y="-12" on="0"/>
        <pt x="253" y="36" on="1"/>
        <pt x="291" y="106" on="1"/>
        <pt x="342" y="65" on="0"/>
        <pt x="394" y="65" on="1"/>
        <pt x="429" y="65" on="0"/>
        <pt x="470" y="106" on="0"/>
        <pt x="470" y="136" on="1"/>
        <pt x="470" y="168" on="0"/>
        <pt x="427" y="208" on="0"/>
        <pt x="384" y="230" on="1"/>
        <pt x="349" y="250" on="0"/>
        <pt x="308" y="279" on="0"/>
        <pt x="279" y="326" on="0"/>
        <pt x="279" y="360" on="1"/>
        <pt x="279" y="389" on="0"/>
        <pt x="300" y="433" on="0"/>
        <pt x="321" y="461" on="1"/>
        <pt x="342" y="488" on="0"/>
        <pt x="362" y="529" on="0"/>
        <pt x="362" y="556" on="1"/>
        <pt x="362" y="592" on="0"/>
        <pt x="321" y="638" on="0"/>
        <pt x="284" y="638" on="1"/>
        <pt x="233" y="638" on="0"/>
        <pt x="177" y="562" on="0"/>
        <pt x="177" y="491" on="1"/>
        <pt x="177" y="0" on="1"/>
        <pt x="77" y="0" on="1"/>
        <pt x="77" y="507" on="1"/>
        <pt x="77" y="604" on="0"/>
        <pt x="186" y="719" on="0"/>
        <pt x="285" y="719" on="1"/>
        <pt x="340" y="719" on="0"/>
        <pt x="419" y="678" on="0"/>
        <pt x="460" y="608" on="0"/>
        <pt x="460" y="567" on="1"/>
        <pt x="460" y="531" on="0"/>
        <pt x="434" y="479" on="0"/>
        <pt x="409" y="447" on="1"/>
        <pt x="391" y="424" on="0"/>
        <pt x="373" y="391" on="0"/>
        <pt x="373" y="372" on="1"/>
        <pt x="373" y="347" on="0"/>
        <pt x="409" y="315" on="0"/>
        <pt x="447" y="295" on="1"/>
        <pt x="484" y="275" on="0"/>
        <pt x="531" y="241" on="0"/>
        <pt x="564" y="184" on="0"/>
        <pt x="564" y="141" on="1"/>
        <pt x="564" y="75" on="0"/>
        <pt x="474" y="-12" on="0"/>
        <pt x="397" y="-12" on="1"/>
      </contour>
    </TTGlyph>
    <TTGlyph name="glottalstopreversedsupmod" xMin="23" yMin="389" xMax="301" yMax="864">
      <contour>
        <pt x="133" y="572" on="1"/>
        <pt x="78" y="611" on="0"/>
        <pt x="23" y="682" on="0"/>
        <pt x="23" y="733" on="1"/>
        <pt x="23" y="796" on="0"/>
        <pt x="107" y="864" on="0"/>
        <pt x="172" y="864" on="1"/>
        <pt x="250" y="864" on="0"/>
        <pt x="301" y="806" on="1"/>
        <pt x="264" y="759" on="1"/>
        <pt x="228" y="804" on="0"/>
        <pt x="179" y="804" on="1"/>
        <pt x="141" y="804" on="0"/>
        <pt x="97" y="765" on="0"/>
        <pt x="97" y="731" on="1"/>
        <pt x="97" y="694" on="0"/>
        <pt x="147" y="636" on="0"/>
        <pt x="206" y="601" on="1"/>
        <pt x="206" y="389" on="1"/>
        <pt x="133" y="389" on="1"/>
      </contour>
    </TTGlyph>
    <TTGlyph name="grave" xMin="116" yMin="573" xMax="331" yMax="794">
      <component glyphName="gravecomb" x="273" y="0" flags="0x0"/>
    </TTGlyph>
    <TTGlyph name="gravecomb" xMin="-157" yMin="573" xMax="58" yMax="794">
      <contour>
        <pt x="-157" y="727" on="1"/>
        <pt x="-87" y="794" on="1"/>
        <pt x="58" y="623" on="1"/>
        <pt x="7" y="573" on="1"/>
      </contour>
    </TTGlyph>
    <TTGlyph name="gravecomb.cap" xMin="-146" yMin="692" xMax="60" yMax="875">
      <contour>
        <pt x="-146" y="808" on="1"/>
        <pt x="-90" y="875" on="1"/>
        <pt x="60" y="743" on="1"/>
        <pt x="15" y="692" on="1"/>
      </contour>
    </TTGlyph>
    <TTGlyph name="greater" xMin="34" yMin="123" xMax="472" yMax="541">
      <contour>
        <pt x="34" y="209" on="1"/>
        <pt x="369" y="330" on="1"/>
        <pt x="369" y="334" on="1"/>
        <pt x="34" y="455" on="1"/>
        <pt x="34" y="541" on="1"/>
        <pt x="472" y="370" on="1"/>
        <pt x="472" y="294" on="1"/>
        <pt x="34" y="123" on="1"/>
      </contour>
    </TTGlyph>
    <TTGlyph name="greaterequal" xMin="34" yMin="0" xMax="472" yMax="541">
      <contour>
        <pt x="34" y="239" on="1"/>
        <pt x="233" y="304" on="1"/>
        <pt x="369" y="345" on="1"/>
        <pt x="369" y="349" on="1"/>
        <pt x="233" y="390" on="1"/>
        <pt x="34" y="455" on="1"/>
        <pt x="34" y="541" on="1"/>
        <pt x="472" y="391" on="1"/>
        <pt x="472" y="303" on="1"/>
        <pt x="34" y="153" on="1"/>
      </contour>
      <contour>
        <pt x="34" y="74" on="1"/>
        <pt x="472" y="74" on="1"/>
        <pt x="472" y="0" on="1"/>
        <pt x="34" y="0" on="1"/>
      </contour>
    </TTGlyph>
    <TTGlyph name="guillemotleft" xMin="46" yMin="63" xMax="390" yMax="441">
      <component glyphName="guilsinglleft" x="0" y="0" flags="0x0"/>
      <component glyphName="guilsinglleft" x="167" y="0" flags="0x0"/>
    </TTGlyph>
    <TTGlyph name="guillemotleft.lat" xMin="46" yMin="63" xMax="390" yMax="441">
      <contour>
        <pt x="46" y="215" on="1"/>
        <pt x="46" y="289" on="1"/>
        <pt x="182" y="441" on="1"/>
        <pt x="223" y="407" on="1"/>
        <pt x="107" y="252" on="1"/>
        <pt x="223" y="96" on="1"/>
        <pt x="182" y="63" on="1"/>
      </contour>
      <contour>
        <pt x="213" y="215" on="1"/>
        <pt x="213" y="289" on="1"/>
        <pt x="349" y="441" on="1"/>
        <pt x="390" y="407" on="1"/>
        <pt x="274" y="252" on="1"/>
        <pt x="390" y="96" on="1"/>
        <pt x="349" y="63" on="1"/>
      </contour>
    </TTGlyph>
    <TTGlyph name="guillemotright" xMin="54" yMin="63" xMax="398" yMax="441">
      <component glyphName="guilsinglright" x="0" y="0" flags="0x0"/>
      <component glyphName="guilsinglright" x="167" y="0" flags="0x0"/>
    </TTGlyph>
    <TTGlyph name="guillemotright.lat" xMin="54" yMin="63" xMax="398" yMax="441">
      <contour>
        <pt x="54" y="96" on="1"/>
        <pt x="170" y="252" on="1"/>
        <pt x="54" y="407" on="1"/>
        <pt x="95" y="441" on="1"/>
        <pt x="231" y="289" on="1"/>
        <pt x="231" y="215" on="1"/>
        <pt x="95" y="63" on="1"/>
      </contour>
      <contour>
        <pt x="221" y="96" on="1"/>
        <pt x="337" y="252" on="1"/>
        <pt x="221" y="407" on="1"/>
        <pt x="262" y="441" on="1"/>
        <pt x="398" y="289" on="1"/>
        <pt x="398" y="215" on="1"/>
        <pt x="262" y="63" on="1"/>
      </contour>
    </TTGlyph>
    <TTGlyph name="guilsinglleft" xMin="46" yMin="63" xMax="223" yMax="441">
      <contour>
        <pt x="46" y="215" on="1"/>
        <pt x="46" y="289" on="1"/>
        <pt x="182" y="441" on="1"/>
        <pt x="223" y="407" on="1"/>
        <pt x="107" y="252" on="1"/>
        <pt x="223" y="96" on="1"/>
        <pt x="182" y="63" on="1"/>
      </contour>
    </TTGlyph>
    <TTGlyph name="guilsinglleft.lat" xMin="46" yMin="63" xMax="223" yMax="441">
      <contour>
        <pt x="46" y="215" on="1"/>
        <pt x="46" y="289" on="1"/>
        <pt x="182" y="441" on="1"/>
        <pt x="223" y="407" on="1"/>
        <pt x="107" y="252" on="1"/>
        <pt x="223" y="96" on="1"/>
        <pt x="182" y="63" on="1"/>
      </contour>
    </TTGlyph>
    <TTGlyph name="guilsinglright" xMin="54" yMin="63" xMax="231" yMax="441">
      <contour>
        <pt x="54" y="96" on="1"/>
        <pt x="170" y="252" on="1"/>
        <pt x="54" y="407" on="1"/>
        <pt x="95" y="441" on="1"/>
        <pt x="231" y="289" on="1"/>
        <pt x="231" y="215" on="1"/>
        <pt x="95" y="63" on="1"/>
      </contour>
    </TTGlyph>
    <TTGlyph name="guilsinglright.lat" xMin="54" yMin="63" xMax="231" yMax="441">
      <contour>
        <pt x="54" y="96" on="1"/>
        <pt x="170" y="252" on="1"/>
        <pt x="54" y="407" on="1"/>
        <pt x="95" y="441" on="1"/>
        <pt x="231" y="289" on="1"/>
        <pt x="231" y="215" on="1"/>
        <pt x="95" y="63" on="1"/>
      </contour>
    </TTGlyph>
    <TTGlyph name="h" xMin="77" yMin="0" xMax="483" yMax="709">
      <contour>
        <pt x="77" y="709" on="1"/>
        <pt x="178" y="709" on="1"/>
        <pt x="178" y="521" on="1"/>
        <pt x="174" y="424" on="1"/>
        <pt x="212" y="460" on="0"/>
        <pt x="287" y="501" on="0"/>
        <pt x="333" y="501" on="1"/>
        <pt x="483" y="501" on="0"/>
        <pt x="483" y="308" on="1"/>
        <pt x="483" y="0" on="1"/>
        <pt x="382" y="0" on="1"/>
        <pt x="382" y="295" on="1"/>
        <pt x="382" y="358" on="0"/>
        <pt x="343" y="414" on="0"/>
        <pt x="299" y="414" on="1"/>
        <pt x="266" y="414" on="0"/>
        <pt x="214" y="383" on="0"/>
        <pt x="178" y="347" on="1"/>
        <pt x="178" y="0" on="1"/>
        <pt x="77" y="0" on="1"/>
      </contour>
    </TTGlyph>
    <TTGlyph name="hbar" xMin="5" yMin="0" xMax="483" yMax="709">
      <contour>
        <pt x="483" y="459" on="0"/>
        <pt x="483" y="266" on="1"/>
        <pt x="483" y="0" on="1"/>
        <pt x="382" y="0" on="1"/>
        <pt x="382" y="253" on="1"/>
        <pt x="382" y="316" on="0"/>
        <pt x="343" y="372" on="0"/>
        <pt x="299" y="372" on="1"/>
        <pt x="266" y="372" on="0"/>
        <pt x="214" y="341" on="0"/>
        <pt x="178" y="305" on="1"/>
        <pt x="178" y="0" on="1"/>
        <pt x="77" y="0" on="1"/>
        <pt x="77" y="567" on="1"/>
        <pt x="5" y="567" on="1"/>
        <pt x="5" y="616" on="1"/>
        <pt x="77" y="621" on="1"/>
        <pt x="77" y="709" on="1"/>
        <pt x="178" y="709" on="1"/>
        <pt x="178" y="621" on="1"/>
        <pt x="356" y="621" on="1"/>
        <pt x="356" y="567" on="1"/>
        <pt x="178" y="567" on="1"/>
        <pt x="178" y="479" on="1"/>
        <pt x="174" y="382" on="1"/>
        <pt x="212" y="418" on="0"/>
        <pt x="287" y="459" on="0"/>
        <pt x="333" y="459" on="1"/>
      </contour>
    </TTGlyph>
    <TTGlyph name="hungarumlaut" xMin="167" yMin="567" xMax="483" yMax="767">
      <component glyphName="uni030B" x="273" y="0" flags="0x0"/>
    </TTGlyph>
    <TTGlyph name="hyphen" xMin="42" yMin="214" xMax="276" yMax="289">
      <contour>
        <pt x="42" y="289" on="1"/>
        <pt x="276" y="289" on="1"/>
        <pt x="276" y="214" on="1"/>
        <pt x="42" y="214" on="1"/>
      </contour>
    </TTGlyph>
    <TTGlyph name="i" xMin="66" yMin="0" xMax="190" yMax="702">
      <component glyphName="dotlessi" x="0" y="0" flags="0x0"/>
      <component glyphName="uni0307" x="128" y="0" flags="0x0"/>
    </TTGlyph>
    <TTGlyph name="iacute" xMin="70" yMin="0" xMax="285" yMax="794">
      <component glyphName="dotlessi" x="0" y="0" flags="0x0"/>
      <component glyphName="acutecomb" x="128" y="0" flags="0x0"/>
    </TTGlyph>
    <TTGlyph name="icircumflex" xMin="-35" yMin="0" xMax="291" yMax="741">
      <component glyphName="dotlessi" x="0" y="0" flags="0x0"/>
      <component glyphName="uni0302" x="128" y="0" flags="0x0"/>
    </TTGlyph>
    <TTGlyph name="idieresis" xMin="-28" yMin="0" xMax="284" yMax="694">
      <component glyphName="dotlessi" x="0" y="0" flags="0x0"/>
      <component glyphName="uni0308" x="128" y="0" flags="0x0"/>
    </TTGlyph>
    <TTGlyph name="igrave" xMin="-29" yMin="0" xMax="186" yMax="794">
      <component glyphName="dotlessi" x="0" y="0" flags="0x0"/>
      <component glyphName="gravecomb" x="128" y="0" flags="0x0"/>
    </TTGlyph>
    <TTGlyph name="imacron" xMin="-9" yMin="0" xMax="265" yMax="666">
      <component glyphName="dotlessi" x="0" y="0" flags="0x0"/>
      <component glyphName="uni0304" x="128" y="0" flags="0x0"/>
    </TTGlyph>
    <TTGlyph name="infinity" xMin="39" yMin="137" xMax="752" yMax="519">
      <contour>
        <pt x="512" y="137" on="0"/>
        <pt x="419" y="196" on="0"/>
        <pt x="370" y="258" on="1"/>
        <pt x="366" y="258" on="1"/>
        <pt x="330" y="215" on="0"/>
        <pt x="249" y="158" on="0"/>
        <pt x="196" y="158" on="1"/>
        <pt x="153" y="158" on="0"/>
        <pt x="81" y="203" on="0"/>
        <pt x="39" y="278" on="0"/>
        <pt x="39" y="322" on="1"/>
        <pt x="39" y="405" on="0"/>
        <pt x="134" y="503" on="0"/>
        <pt x="210" y="503" on="1"/>
        <pt x="264" y="503" on="0"/>
        <pt x="344" y="447" on="0"/>
        <pt x="378" y="402" on="1"/>
        <pt x="382" y="402" on="1"/>
        <pt x="424" y="456" on="0"/>
        <pt x="518" y="519" on="0"/>
        <pt x="576" y="519" on="1"/>
        <pt x="626" y="519" on="0"/>
        <pt x="706" y="472" on="0"/>
        <pt x="752" y="389" on="0"/>
        <pt x="752" y="337" on="1"/>
        <pt x="752" y="277" on="0"/>
        <pt x="705" y="186" on="0"/>
        <pt x="624" y="137" on="0"/>
        <pt x="573" y="137" on="1"/>
      </contour>
      <contour>
        <pt x="619" y="232" on="0"/>
        <pt x="675" y="291" on="0"/>
        <pt x="675" y="334" on="1"/>
        <pt x="675" y="383" on="0"/>
        <pt x="616" y="443" on="0"/>
        <pt x="566" y="443" on="1"/>
        <pt x="489" y="443" on="0"/>
        <pt x="418" y="343" on="1"/>
        <pt x="462" y="286" on="0"/>
        <pt x="531" y="232" on="0"/>
        <pt x="573" y="232" on="1"/>
      </contour>
      <contour>
        <pt x="273" y="234" on="0"/>
        <pt x="330" y="318" on="1"/>
        <pt x="267" y="408" on="0"/>
        <pt x="202" y="408" on="1"/>
        <pt x="163" y="408" on="0"/>
        <pt x="116" y="363" on="0"/>
        <pt x="116" y="325" on="1"/>
        <pt x="116" y="287" on="0"/>
        <pt x="167" y="234" on="0"/>
        <pt x="205" y="234" on="1"/>
      </contour>
    </TTGlyph>
    <TTGlyph name="integral" xMin="49" yMin="-158" xMax="323" yMax="790">
      <contour>
        <pt x="66" y="-158" on="0"/>
        <pt x="49" y="-151" on="1"/>
        <pt x="60" y="-76" on="1"/>
        <pt x="72" y="-80" on="0"/>
        <pt x="95" y="-80" on="1"/>
        <pt x="134" y="-80" on="0"/>
        <pt x="161" y="-9" on="0"/>
        <pt x="161" y="72" on="1"/>
        <pt x="161" y="121" on="0"/>
        <pt x="151" y="226" on="0"/>
        <pt x="141" y="310" on="1"/>
        <pt x="120" y="470" on="0"/>
        <pt x="120" y="556" on="1"/>
        <pt x="120" y="669" on="0"/>
        <pt x="185" y="790" on="0"/>
        <pt x="274" y="790" on="1"/>
        <pt x="307" y="790" on="0"/>
        <pt x="323" y="783" on="1"/>
        <pt x="312" y="708" on="1"/>
        <pt x="300" y="712" on="0"/>
        <pt x="277" y="712" on="1"/>
        <pt x="239" y="712" on="0"/>
        <pt x="212" y="640" on="0"/>
        <pt x="212" y="559" on="1"/>
        <pt x="212" y="510" on="0"/>
        <pt x="222" y="405" on="0"/>
        <pt x="232" y="321" on="1"/>
        <pt x="242" y="240" on="0"/>
        <pt x="252" y="128" on="0"/>
        <pt x="252" y="76" on="1"/>
        <pt x="252" y="-37" on="0"/>
        <pt x="188" y="-158" on="0"/>
        <pt x="100" y="-158" on="1"/>
      </contour>
    </TTGlyph>
    <TTGlyph name="ismall" xMin="48" yMin="0" xMax="309" yMax="489">
      <contour>
        <pt x="48" y="81" on="1"/>
        <pt x="128" y="81" on="1"/>
        <pt x="128" y="408" on="1"/>
        <pt x="48" y="408" on="1"/>
        <pt x="48" y="489" on="1"/>
        <pt x="309" y="489" on="1"/>
        <pt x="309" y="408" on="1"/>
        <pt x="229" y="408" on="1"/>
        <pt x="229" y="81" on="1"/>
        <pt x="309" y="81" on="1"/>
        <pt x="309" y="0" on="1"/>
        <pt x="48" y="0" on="1"/>
      </contour>
    </TTGlyph>
    <TTGlyph name="j" xMin="-40" yMin="-211" xMax="191" yMax="702">
      <contour>
        <pt x="102" y="581" on="0"/>
        <pt x="67" y="615" on="0"/>
        <pt x="67" y="642" on="1"/>
        <pt x="67" y="668" on="0"/>
        <pt x="102" y="702" on="0"/>
        <pt x="129" y="702" on="1"/>
        <pt x="156" y="702" on="0"/>
        <pt x="191" y="668" on="0"/>
        <pt x="191" y="642" on="1"/>
        <pt x="191" y="615" on="0"/>
        <pt x="156" y="581" on="0"/>
        <pt x="129" y="581" on="1"/>
      </contour>
      <contour>
        <pt x="82" y="489" on="1"/>
        <pt x="183" y="489" on="1"/>
        <pt x="182" y="-38" on="1"/>
        <pt x="182" y="-211" on="0"/>
        <pt x="36" y="-211" on="1"/>
        <pt x="-7" y="-211" on="0"/>
        <pt x="-40" y="-198" on="1"/>
        <pt x="-21" y="-122" on="1"/>
        <pt x="5" y="-130" on="0"/>
        <pt x="23" y="-130" on="1"/>
        <pt x="56" y="-130" on="0"/>
        <pt x="81" y="-85" on="0"/>
        <pt x="81" y="-39" on="1"/>
      </contour>
    </TTGlyph>
    <TTGlyph name="j.sups" xMin="-28" yMin="247" xMax="136" yMax="856">
      <contour>
        <pt x="69" y="770" on="0"/>
        <pt x="42" y="794" on="0"/>
        <pt x="42" y="813" on="1"/>
        <pt x="42" y="832" on="0"/>
        <pt x="69" y="856" on="0"/>
        <pt x="89" y="856" on="1"/>
        <pt x="109" y="856" on="0"/>
        <pt x="136" y="832" on="0"/>
        <pt x="136" y="813" on="1"/>
        <pt x="136" y="794" on="0"/>
        <pt x="109" y="770" on="0"/>
        <pt x="89" y="770" on="1"/>
      </contour>
      <contour>
        <pt x="-4" y="247" on="0"/>
        <pt x="-28" y="255" on="1"/>
        <pt x="-14" y="312" on="1"/>
        <pt x="-1" y="307" on="0"/>
        <pt x="14" y="307" on="1"/>
        <pt x="36" y="307" on="0"/>
        <pt x="51" y="334" on="0"/>
        <pt x="51" y="364" on="1"/>
        <pt x="51" y="713" on="1"/>
        <pt x="125" y="713" on="1"/>
        <pt x="125" y="368" on="1"/>
        <pt x="125" y="247" on="0"/>
        <pt x="24" y="247" on="1"/>
      </contour>
    </TTGlyph>
    <TTGlyph name="k" xMin="77" yMin="0" xMax="502" yMax="709">
      <contour>
        <pt x="77" y="709" on="1"/>
        <pt x="176" y="709" on="1"/>
        <pt x="176" y="250" on="1"/>
        <pt x="179" y="250" on="1"/>
        <pt x="372" y="489" on="1"/>
        <pt x="483" y="489" on="1"/>
        <pt x="317" y="291" on="1"/>
        <pt x="502" y="0" on="1"/>
        <pt x="392" y="0" on="1"/>
        <pt x="259" y="222" on="1"/>
        <pt x="176" y="126" on="1"/>
        <pt x="176" y="0" on="1"/>
        <pt x="77" y="0" on="1"/>
      </contour>
    </TTGlyph>
    <TTGlyph name="l" xMin="77" yMin="-12" xMax="233" yMax="709">
      <contour>
        <pt x="125" y="-12" on="0"/>
        <pt x="77" y="52" on="0"/>
        <pt x="77" y="114" on="1"/>
        <pt x="77" y="709" on="1"/>
        <pt x="178" y="709" on="1"/>
        <pt x="178" y="108" on="1"/>
        <pt x="178" y="89" on="0"/>
        <pt x="192" y="71" on="0"/>
        <pt x="202" y="71" on="1"/>
        <pt x="211" y="71" on="0"/>
        <pt x="220" y="73" on="1"/>
        <pt x="233" y="-3" on="1"/>
        <pt x="210" y="-12" on="0"/>
        <pt x="178" y="-12" on="1"/>
      </contour>
    </TTGlyph>
    <TTGlyph name="lefttorightembed" xMin="-129" yMin="767" xMax="144" yMax="984">
      <contour>
        <pt x="14" y="792" on="1"/>
        <pt x="77" y="858" on="1"/>
        <pt x="1" y="858" on="1"/>
        <pt x="1" y="894" on="1"/>
        <pt x="77" y="894" on="1"/>
        <pt x="14" y="957" on="1"/>
        <pt x="39" y="984" on="1"/>
        <pt x="144" y="875" on="1"/>
        <pt x="39" y="767" on="1"/>
      </contour>
      <contour>
        <pt x="-129" y="894" on="1"/>
        <pt x="-41" y="894" on="1"/>
        <pt x="-41" y="858" on="1"/>
        <pt x="-129" y="858" on="1"/>
      </contour>
    </TTGlyph>
    <TTGlyph name="less" xMin="34" yMin="123" xMax="472" yMax="541">
      <contour>
        <pt x="34" y="294" on="1"/>
        <pt x="34" y="370" on="1"/>
        <pt x="472" y="541" on="1"/>
        <pt x="472" y="455" on="1"/>
        <pt x="137" y="334" on="1"/>
        <pt x="137" y="330" on="1"/>
        <pt x="472" y="209" on="1"/>
        <pt x="472" y="123" on="1"/>
      </contour>
    </TTGlyph>
    <TTGlyph name="lessequal" xMin="34" yMin="0" xMax="472" yMax="541">
      <contour>
        <pt x="34" y="303" on="1"/>
        <pt x="34" y="391" on="1"/>
        <pt x="472" y="541" on="1"/>
        <pt x="472" y="455" on="1"/>
        <pt x="273" y="390" on="1"/>
        <pt x="137" y="349" on="1"/>
        <pt x="137" y="345" on="1"/>
        <pt x="273" y="304" on="1"/>
        <pt x="472" y="239" on="1"/>
        <pt x="472" y="153" on="1"/>
      </contour>
      <contour>
        <pt x="34" y="74" on="1"/>
        <pt x="472" y="74" on="1"/>
        <pt x="472" y="0" on="1"/>
        <pt x="34" y="0" on="1"/>
      </contour>
    </TTGlyph>
    <TTGlyph name="litre" xMin="18" yMin="-12" xMax="423" yMax="721">
      <contour>
        <pt x="423" y="55" on="1"/>
        <pt x="390" y="25" on="0"/>
        <pt x="319" y="-12" on="0"/>
        <pt x="277" y="-12" on="1"/>
        <pt x="211" y="-12" on="0"/>
        <pt x="116" y="74" on="0"/>
        <pt x="108" y="151" on="1"/>
        <pt x="58" y="118" on="1"/>
        <pt x="18" y="181" on="1"/>
        <pt x="69" y="213" on="0"/>
        <pt x="107" y="241" on="1"/>
        <pt x="107" y="497" on="1"/>
        <pt x="107" y="610" on="0"/>
        <pt x="193" y="721" on="0"/>
        <pt x="265" y="721" on="1"/>
        <pt x="328" y="721" on="0"/>
        <pt x="405" y="637" on="0"/>
        <pt x="405" y="563" on="1"/>
        <pt x="405" y="471" on="0"/>
        <pt x="305" y="303" on="0"/>
        <pt x="206" y="223" on="1"/>
        <pt x="206" y="191" on="1"/>
        <pt x="206" y="131" on="0"/>
        <pt x="254" y="73" on="0"/>
        <pt x="292" y="73" on="1"/>
        <pt x="319" y="73" on="0"/>
        <pt x="362" y="96" on="0"/>
        <pt x="384" y="117" on="1"/>
      </contour>
      <contour>
        <pt x="241" y="645" on="0"/>
        <pt x="206" y="579" on="0"/>
        <pt x="206" y="513" on="1"/>
        <pt x="206" y="325" on="1"/>
        <pt x="320" y="439" on="0"/>
        <pt x="320" y="562" on="1"/>
        <pt x="320" y="604" on="0"/>
        <pt x="292" y="645" on="0"/>
        <pt x="268" y="645" on="1"/>
      </contour>
    </TTGlyph>
    <TTGlyph name="logicalnot" xMin="34" yMin="101" xMax="472" yMax="367">
      <contour>
        <pt x="394" y="293" on="1"/>
        <pt x="34" y="293" on="1"/>
        <pt x="34" y="367" on="1"/>
        <pt x="472" y="367" on="1"/>
        <pt x="472" y="101" on="1"/>
        <pt x="394" y="101" on="1"/>
      </contour>
    </TTGlyph>
    <TTGlyph name="lozenge" xMin="55" yMin="-10" xMax="471" yMax="670">
      <contour>
        <pt x="55" y="330" on="1"/>
        <pt x="219" y="670" on="1"/>
        <pt x="307" y="670" on="1"/>
        <pt x="471" y="330" on="1"/>
        <pt x="307" y="-10" on="1"/>
        <pt x="219" y="-10" on="1"/>
      </contour>
      <contour>
        <pt x="265" y="75" on="1"/>
        <pt x="325" y="204" on="1"/>
        <pt x="384" y="330" on="1"/>
        <pt x="325" y="455" on="1"/>
        <pt x="265" y="585" on="1"/>
        <pt x="261" y="585" on="1"/>
        <pt x="201" y="455" on="1"/>
        <pt x="142" y="330" on="1"/>
        <pt x="201" y="204" on="1"/>
        <pt x="261" y="75" on="1"/>
      </contour>
    </TTGlyph>
    <TTGlyph name="lslash" xMin="-7" yMin="-12" xMax="272" yMax="709">
      <contour>
        <pt x="217" y="71" on="0"/>
        <pt x="226" y="73" on="1"/>
        <pt x="239" y="-3" on="1"/>
        <pt x="216" y="-12" on="0"/>
        <pt x="184" y="-12" on="1"/>
        <pt x="131" y="-12" on="0"/>
        <pt x="83" y="52" on="0"/>
        <pt x="83" y="114" on="1"/>
        <pt x="83" y="315" on="1"/>
        <pt x="29" y="282" on="1"/>
        <pt x="-7" y="346" on="1"/>
        <pt x="83" y="400" on="1"/>
        <pt x="83" y="709" on="1"/>
        <pt x="184" y="709" on="1"/>
        <pt x="184" y="451" on="1"/>
        <pt x="236" y="483" on="1"/>
        <pt x="272" y="419" on="1"/>
        <pt x="184" y="367" on="1"/>
        <pt x="184" y="108" on="1"/>
        <pt x="184" y="89" on="0"/>
        <pt x="198" y="71" on="0"/>
        <pt x="208" y="71" on="1"/>
      </contour>
    </TTGlyph>
    <TTGlyph name="m" xMin="77" yMin="0" xMax="766" yMax="501">
      <contour>
        <pt x="77" y="489" on="1"/>
        <pt x="160" y="489" on="1"/>
        <pt x="168" y="421" on="1"/>
        <pt x="171" y="421" on="1"/>
        <pt x="207" y="458" on="0"/>
        <pt x="280" y="501" on="0"/>
        <pt x="322" y="501" on="1"/>
        <pt x="423" y="501" on="0"/>
        <pt x="457" y="411" on="1"/>
        <pt x="498" y="455" on="0"/>
        <pt x="573" y="501" on="0"/>
        <pt x="616" y="501" on="1"/>
        <pt x="691" y="501" on="0"/>
        <pt x="766" y="402" on="0"/>
        <pt x="766" y="308" on="1"/>
        <pt x="766" y="0" on="1"/>
        <pt x="665" y="0" on="1"/>
        <pt x="665" y="295" on="1"/>
        <pt x="665" y="358" on="0"/>
        <pt x="626" y="414" on="0"/>
        <pt x="583" y="414" on="1"/>
        <pt x="533" y="414" on="0"/>
        <pt x="472" y="347" on="1"/>
        <pt x="472" y="0" on="1"/>
        <pt x="371" y="0" on="1"/>
        <pt x="371" y="295" on="1"/>
        <pt x="371" y="358" on="0"/>
        <pt x="332" y="414" on="0"/>
        <pt x="289" y="414" on="1"/>
        <pt x="239" y="414" on="0"/>
        <pt x="178" y="347" on="1"/>
        <pt x="178" y="0" on="1"/>
        <pt x="77" y="0" on="1"/>
      </contour>
    </TTGlyph>
    <TTGlyph name="macron" xMin="136" yMin="598" xMax="410" yMax="666">
      <component glyphName="uni0304" x="273" y="0" flags="0x0"/>
    </TTGlyph>
    <TTGlyph name="minus" xMin="34" yMin="293" xMax="472" yMax="367">
      <contour>
        <pt x="34" y="367" on="1"/>
        <pt x="472" y="367" on="1"/>
        <pt x="472" y="293" on="1"/>
        <pt x="34" y="293" on="1"/>
      </contour>
    </TTGlyph>
    <TTGlyph name="multiply" xMin="49" yMin="122" xMax="456" yMax="537">
      <contour>
        <pt x="49" y="176" on="1"/>
        <pt x="200" y="330" on="1"/>
        <pt x="49" y="484" on="1"/>
        <pt x="102" y="537" on="1"/>
        <pt x="253" y="382" on="1"/>
        <pt x="404" y="537" on="1"/>
        <pt x="456" y="484" on="1"/>
        <pt x="305" y="330" on="1"/>
        <pt x="456" y="176" on="1"/>
        <pt x="404" y="122" on="1"/>
        <pt x="253" y="277" on="1"/>
        <pt x="102" y="122" on="1"/>
      </contour>
    </TTGlyph>
    <TTGlyph name="n" xMin="77" yMin="0" xMax="483" yMax="501">
      <contour>
        <pt x="77" y="489" on="1"/>
        <pt x="160" y="489" on="1"/>
        <pt x="168" y="421" on="1"/>
        <pt x="171" y="421" on="1"/>
        <pt x="210" y="459" on="0"/>
        <pt x="287" y="501" on="0"/>
        <pt x="333" y="501" on="1"/>
        <pt x="483" y="501" on="0"/>
        <pt x="483" y="308" on="1"/>
        <pt x="483" y="0" on="1"/>
        <pt x="382" y="0" on="1"/>
        <pt x="382" y="295" on="1"/>
        <pt x="382" y="358" on="0"/>
        <pt x="343" y="414" on="0"/>
        <pt x="299" y="414" on="1"/>
        <pt x="266" y="414" on="0"/>
        <pt x="214" y="383" on="0"/>
        <pt x="178" y="347" on="1"/>
        <pt x="178" y="0" on="1"/>
        <pt x="77" y="0" on="1"/>
      </contour>
    </TTGlyph>
    <TTGlyph name="nine" xMin="38" yMin="-12" xMax="459" yMax="649">
      <contour>
        <pt x="297" y="649" on="0"/>
        <pt x="400" y="580" on="0"/>
        <pt x="459" y="441" on="0"/>
        <pt x="459" y="340" on="1"/>
        <pt x="459" y="220" on="0"/>
        <pt x="392" y="62" on="0"/>
        <pt x="280" y="-12" on="0"/>
        <pt x="212" y="-12" on="1"/>
        <pt x="115" y="-12" on="0"/>
        <pt x="49" y="58" on="1"/>
        <pt x="104" y="120" on="1"/>
        <pt x="123" y="98" on="0"/>
        <pt x="178" y="71" on="0"/>
        <pt x="207" y="71" on="1"/>
        <pt x="276" y="71" on="0"/>
        <pt x="362" y="190" on="0"/>
        <pt x="365" y="322" on="1"/>
        <pt x="337" y="286" on="0"/>
        <pt x="259" y="245" on="0"/>
        <pt x="222" y="245" on="1"/>
        <pt x="137" y="245" on="0"/>
        <pt x="38" y="346" on="0"/>
        <pt x="38" y="442" on="1"/>
        <pt x="38" y="503" on="0"/>
        <pt x="91" y="597" on="0"/>
        <pt x="180" y="649" on="0"/>
        <pt x="233" y="649" on="1"/>
      </contour>
      <contour>
        <pt x="271" y="319" on="0"/>
        <pt x="335" y="358" on="0"/>
        <pt x="362" y="398" on="1"/>
        <pt x="354" y="484" on="0"/>
        <pt x="288" y="571" on="0"/>
        <pt x="234" y="571" on="1"/>
        <pt x="190" y="571" on="0"/>
        <pt x="132" y="501" on="0"/>
        <pt x="132" y="442" on="1"/>
        <pt x="132" y="383" on="0"/>
        <pt x="188" y="319" on="0"/>
        <pt x="240" y="319" on="1"/>
      </contour>
    </TTGlyph>
    <TTGlyph name="nine.heb" xMin="38" yMin="-12" xMax="459" yMax="649">
      <contour>
        <pt x="297" y="649" on="0"/>
        <pt x="400" y="580" on="0"/>
        <pt x="459" y="441" on="0"/>
        <pt x="459" y="340" on="1"/>
        <pt x="459" y="220" on="0"/>
        <pt x="392" y="62" on="0"/>
        <pt x="280" y="-12" on="0"/>
        <pt x="212" y="-12" on="1"/>
        <pt x="115" y="-12" on="0"/>
        <pt x="49" y="58" on="1"/>
        <pt x="104" y="120" on="1"/>
        <pt x="123" y="98" on="0"/>
        <pt x="178" y="71" on="0"/>
        <pt x="207" y="71" on="1"/>
        <pt x="276" y="71" on="0"/>
        <pt x="362" y="190" on="0"/>
        <pt x="365" y="322" on="1"/>
        <pt x="337" y="286" on="0"/>
        <pt x="259" y="245" on="0"/>
        <pt x="222" y="245" on="1"/>
        <pt x="137" y="245" on="0"/>
        <pt x="38" y="346" on="0"/>
        <pt x="38" y="442" on="1"/>
        <pt x="38" y="503" on="0"/>
        <pt x="91" y="597" on="0"/>
        <pt x="180" y="649" on="0"/>
        <pt x="233" y="649" on="1"/>
      </contour>
      <contour>
        <pt x="271" y="319" on="0"/>
        <pt x="335" y="358" on="0"/>
        <pt x="362" y="398" on="1"/>
        <pt x="354" y="484" on="0"/>
        <pt x="288" y="571" on="0"/>
        <pt x="234" y="571" on="1"/>
        <pt x="190" y="571" on="0"/>
        <pt x="132" y="501" on="0"/>
        <pt x="132" y="442" on="1"/>
        <pt x="132" y="383" on="0"/>
        <pt x="188" y="319" on="0"/>
        <pt x="240" y="319" on="1"/>
      </contour>
    </TTGlyph>
    <TTGlyph name="nine.lat" xMin="38" yMin="-12" xMax="459" yMax="649">
      <contour>
        <pt x="297" y="649" on="0"/>
        <pt x="400" y="580" on="0"/>
        <pt x="459" y="441" on="0"/>
        <pt x="459" y="340" on="1"/>
        <pt x="459" y="220" on="0"/>
        <pt x="392" y="62" on="0"/>
        <pt x="280" y="-12" on="0"/>
        <pt x="212" y="-12" on="1"/>
        <pt x="115" y="-12" on="0"/>
        <pt x="49" y="58" on="1"/>
        <pt x="104" y="120" on="1"/>
        <pt x="123" y="98" on="0"/>
        <pt x="178" y="71" on="0"/>
        <pt x="207" y="71" on="1"/>
        <pt x="276" y="71" on="0"/>
        <pt x="362" y="190" on="0"/>
        <pt x="365" y="322" on="1"/>
        <pt x="337" y="286" on="0"/>
        <pt x="259" y="245" on="0"/>
        <pt x="222" y="245" on="1"/>
        <pt x="137" y="245" on="0"/>
        <pt x="38" y="346" on="0"/>
        <pt x="38" y="442" on="1"/>
        <pt x="38" y="503" on="0"/>
        <pt x="91" y="597" on="0"/>
        <pt x="180" y="649" on="0"/>
        <pt x="233" y="649" on="1"/>
      </contour>
      <contour>
        <pt x="271" y="319" on="0"/>
        <pt x="335" y="358" on="0"/>
        <pt x="362" y="398" on="1"/>
        <pt x="354" y="484" on="0"/>
        <pt x="288" y="571" on="0"/>
        <pt x="234" y="571" on="1"/>
        <pt x="190" y="571" on="0"/>
        <pt x="132" y="501" on="0"/>
        <pt x="132" y="442" on="1"/>
        <pt x="132" y="383" on="0"/>
        <pt x="188" y="319" on="0"/>
        <pt x="240" y="319" on="1"/>
      </contour>
    </TTGlyph>
    <TTGlyph name="notequal" xMin="34" yMin="58" xMax="472" yMax="602">
      <contour>
        <pt x="133" y="183" on="1"/>
        <pt x="34" y="183" on="1"/>
        <pt x="34" y="257" on="1"/>
        <pt x="175" y="257" on="1"/>
        <pt x="261" y="403" on="1"/>
        <pt x="34" y="403" on="1"/>
        <pt x="34" y="477" on="1"/>
        <pt x="303" y="477" on="1"/>
        <pt x="378" y="602" on="1"/>
        <pt x="448" y="602" on="1"/>
        <pt x="373" y="477" on="1"/>
        <pt x="472" y="477" on="1"/>
        <pt x="472" y="403" on="1"/>
        <pt x="331" y="403" on="1"/>
        <pt x="245" y="257" on="1"/>
        <pt x="472" y="257" on="1"/>
        <pt x="472" y="183" on="1"/>
        <pt x="203" y="183" on="1"/>
        <pt x="128" y="58" on="1"/>
        <pt x="58" y="58" on="1"/>
      </contour>
    </TTGlyph>
    <TTGlyph name="ntilde" xMin="77" yMin="0" xMax="483" yMax="726">
      <component glyphName="n" x="0" y="0" flags="0x0"/>
      <component glyphName="tildecomb" x="299" y="0" flags="0x0"/>
    </TTGlyph>
    <TTGlyph name="numbersign" xMin="35" yMin="0" xMax="476" yMax="650">
      <contour>
        <pt x="113" y="199" on="1"/>
        <pt x="35" y="199" on="1"/>
        <pt x="35" y="267" on="1"/>
        <pt x="121" y="267" on="1"/>
        <pt x="138" y="404" on="1"/>
        <pt x="55" y="404" on="1"/>
        <pt x="55" y="472" on="1"/>
        <pt x="146" y="472" on="1"/>
        <pt x="169" y="650" on="1"/>
        <pt x="231" y="650" on="1"/>
        <pt x="209" y="472" on="1"/>
        <pt x="333" y="472" on="1"/>
        <pt x="356" y="650" on="1"/>
        <pt x="418" y="650" on="1"/>
        <pt x="396" y="472" on="1"/>
        <pt x="476" y="472" on="1"/>
        <pt x="476" y="404" on="1"/>
        <pt x="388" y="404" on="1"/>
        <pt x="371" y="267" on="1"/>
        <pt x="456" y="267" on="1"/>
        <pt x="456" y="199" on="1"/>
        <pt x="363" y="199" on="1"/>
        <pt x="339" y="0" on="1"/>
        <pt x="276" y="0" on="1"/>
        <pt x="300" y="199" on="1"/>
        <pt x="176" y="199" on="1"/>
        <pt x="152" y="0" on="1"/>
        <pt x="89" y="0" on="1"/>
      </contour>
      <contour>
        <pt x="308" y="267" on="1"/>
        <pt x="325" y="404" on="1"/>
        <pt x="201" y="404" on="1"/>
        <pt x="184" y="267" on="1"/>
      </contour>
    </TTGlyph>
    <TTGlyph name="numbersign.lat" xMin="35" yMin="0" xMax="476" yMax="650">
      <contour>
        <pt x="113" y="199" on="1"/>
        <pt x="35" y="199" on="1"/>
        <pt x="35" y="267" on="1"/>
        <pt x="121" y="267" on="1"/>
        <pt x="138" y="404" on="1"/>
        <pt x="55" y="404" on="1"/>
        <pt x="55" y="472" on="1"/>
        <pt x="146" y="472" on="1"/>
        <pt x="169" y="650" on="1"/>
        <pt x="231" y="650" on="1"/>
        <pt x="209" y="472" on="1"/>
        <pt x="333" y="472" on="1"/>
        <pt x="356" y="650" on="1"/>
        <pt x="418" y="650" on="1"/>
        <pt x="396" y="472" on="1"/>
        <pt x="476" y="472" on="1"/>
        <pt x="476" y="404" on="1"/>
        <pt x="388" y="404" on="1"/>
        <pt x="371" y="267" on="1"/>
        <pt x="456" y="267" on="1"/>
        <pt x="456" y="199" on="1"/>
        <pt x="363" y="199" on="1"/>
        <pt x="339" y="0" on="1"/>
        <pt x="276" y="0" on="1"/>
        <pt x="300" y="199" on="1"/>
        <pt x="176" y="199" on="1"/>
        <pt x="152" y="0" on="1"/>
        <pt x="89" y="0" on="1"/>
      </contour>
      <contour>
        <pt x="308" y="267" on="1"/>
        <pt x="325" y="404" on="1"/>
        <pt x="201" y="404" on="1"/>
        <pt x="184" y="267" on="1"/>
      </contour>
    </TTGlyph>
    <TTGlyph name="o" xMin="43" yMin="-12" xMax="503" yMax="501">
      <contour>
        <pt x="212" y="-12" on="0"/>
        <pt x="106" y="50" on="0"/>
        <pt x="43" y="166" on="0"/>
        <pt x="43" y="244" on="1"/>
        <pt x="43" y="323" on="0"/>
        <pt x="106" y="439" on="0"/>
        <pt x="211" y="501" on="0"/>
        <pt x="273" y="501" on="1"/>
        <pt x="335" y="501" on="0"/>
        <pt x="440" y="439" on="0"/>
        <pt x="503" y="323" on="0"/>
        <pt x="503" y="244" on="1"/>
        <pt x="503" y="166" on="0"/>
        <pt x="440" y="50" on="0"/>
        <pt x="334" y="-12" on="0"/>
        <pt x="273" y="-12" on="1"/>
      </contour>
      <contour>
        <pt x="331" y="71" on="0"/>
        <pt x="399" y="166" on="0"/>
        <pt x="399" y="244" on="1"/>
        <pt x="399" y="322" on="0"/>
        <pt x="330" y="418" on="0"/>
        <pt x="273" y="418" on="1"/>
        <pt x="216" y="418" on="0"/>
        <pt x="147" y="322" on="0"/>
        <pt x="147" y="244" on="1"/>
        <pt x="147" y="166" on="0"/>
        <pt x="215" y="71" on="0"/>
        <pt x="273" y="71" on="1"/>
      </contour>
    </TTGlyph>
    <TTGlyph name="o.sups" xMin="28" yMin="381" xMax="338" yMax="721">
      <contour>
        <pt x="141" y="381" on="0"/>
        <pt x="70" y="422" on="0"/>
        <pt x="28" y="499" on="0"/>
        <pt x="28" y="551" on="1"/>
        <pt x="28" y="603" on="0"/>
        <pt x="70" y="680" on="0"/>
        <pt x="141" y="721" on="0"/>
        <pt x="183" y="721" on="1"/>
        <pt x="225" y="721" on="0"/>
        <pt x="296" y="680" on="0"/>
        <pt x="338" y="603" on="0"/>
        <pt x="338" y="551" on="1"/>
        <pt x="338" y="499" on="0"/>
        <pt x="296" y="422" on="0"/>
        <pt x="225" y="381" on="0"/>
        <pt x="183" y="381" on="1"/>
      </contour>
      <contour>
        <pt x="220" y="441" on="0"/>
        <pt x="262" y="501" on="0"/>
        <pt x="262" y="551" on="1"/>
        <pt x="262" y="601" on="0"/>
        <pt x="221" y="661" on="0"/>
        <pt x="183" y="661" on="1"/>
        <pt x="146" y="661" on="0"/>
        <pt x="104" y="601" on="0"/>
        <pt x="104" y="551" on="1"/>
        <pt x="104" y="501" on="0"/>
        <pt x="146" y="441" on="0"/>
        <pt x="183" y="441" on="1"/>
      </contour>
    </TTGlyph>
    <TTGlyph name="oacute" xMin="43" yMin="-12" xMax="503" yMax="794">
      <component glyphName="o" x="0" y="0" flags="0x0"/>
      <component glyphName="acutecomb" x="273" y="0" flags="0x0"/>
    </TTGlyph>
    <TTGlyph name="obreve" xMin="43" yMin="-12" xMax="503" yMax="734">
      <component glyphName="o" x="0" y="0" flags="0x0"/>
      <component glyphName="uni0306" x="273" y="0" flags="0x0"/>
    </TTGlyph>
    <TTGlyph name="ocircumflex" xMin="43" yMin="-12" xMax="503" yMax="741">
      <component glyphName="o" x="0" y="0" flags="0x0"/>
      <component glyphName="uni0302" x="273" y="0" flags="0x0"/>
    </TTGlyph>
    <TTGlyph name="odieresis" xMin="43" yMin="-12" xMax="503" yMax="694">
      <component glyphName="o" x="0" y="0" flags="0x0"/>
      <component glyphName="uni0308" x="273" y="0" flags="0x0"/>
    </TTGlyph>
    <TTGlyph name="oe" xMin="43" yMin="-12" xMax="797" yMax="501">
      <contour>
        <pt x="204" y="-12" on="0"/>
        <pt x="103" y="49" on="0"/>
        <pt x="43" y="166" on="0"/>
        <pt x="43" y="244" on="1"/>
        <pt x="43" y="323" on="0"/>
        <pt x="104" y="439" on="0"/>
        <pt x="206" y="501" on="0"/>
        <pt x="267" y="501" on="1"/>
        <pt x="322" y="501" on="0"/>
        <pt x="412" y="443" on="0"/>
        <pt x="439" y="389" on="1"/>
        <pt x="468" y="442" on="0"/>
        <pt x="555" y="501" on="0"/>
        <pt x="606" y="501" on="1"/>
        <pt x="696" y="501" on="0"/>
        <pt x="797" y="374" on="0"/>
        <pt x="797" y="268" on="1"/>
        <pt x="797" y="242" on="0"/>
        <pt x="793" y="218" on="1"/>
        <pt x="483" y="218" on="1"/>
        <pt x="487" y="150" on="0"/>
        <pt x="568" y="69" on="0"/>
        <pt x="626" y="69" on="1"/>
        <pt x="657" y="69" on="0"/>
        <pt x="712" y="89" on="0"/>
        <pt x="742" y="108" on="1"/>
        <pt x="778" y="40" on="1"/>
        <pt x="700" y="-12" on="0"/>
        <pt x="613" y="-12" on="1"/>
        <pt x="560" y="-12" on="0"/>
        <pt x="469" y="47" on="0"/>
        <pt x="440" y="99" on="1"/>
        <pt x="381" y="-12" on="0"/>
        <pt x="265" y="-12" on="1"/>
      </contour>
      <contour>
        <pt x="709" y="283" on="1"/>
        <pt x="709" y="349" on="0"/>
        <pt x="654" y="422" on="0"/>
        <pt x="603" y="422" on="1"/>
        <pt x="556" y="422" on="0"/>
        <pt x="490" y="347" on="0"/>
        <pt x="483" y="283" on="1"/>
      </contour>
      <contour>
        <pt x="322" y="71" on="0"/>
        <pt x="389" y="166" on="0"/>
        <pt x="389" y="244" on="1"/>
        <pt x="389" y="322" on="0"/>
        <pt x="322" y="418" on="0"/>
        <pt x="267" y="418" on="1"/>
        <pt x="213" y="418" on="0"/>
        <pt x="146" y="322" on="0"/>
        <pt x="146" y="244" on="1"/>
        <pt x="146" y="166" on="0"/>
        <pt x="213" y="71" on="0"/>
        <pt x="267" y="71" on="1"/>
      </contour>
    </TTGlyph>
    <TTGlyph name="ograve" xMin="43" yMin="-12" xMax="503" yMax="794">
      <component glyphName="o" x="0" y="0" flags="0x0"/>
      <component glyphName="gravecomb" x="273" y="0" flags="0x0"/>
    </TTGlyph>
    <TTGlyph name="omacron" xMin="43" yMin="-12" xMax="503" yMax="666">
      <component glyphName="o" x="0" y="0" flags="0x0"/>
      <component glyphName="uni0304" x="273" y="0" flags="0x0"/>
    </TTGlyph>
    <TTGlyph name="one" xMin="76" yMin="0" xMax="449" yMax="637">
      <contour>
        <pt x="76" y="83" on="1"/>
        <pt x="220" y="83" on="1"/>
        <pt x="220" y="523" on="1"/>
        <pt x="103" y="523" on="1"/>
        <pt x="103" y="587" on="1"/>
        <pt x="188" y="602" on="0"/>
        <pt x="245" y="637" on="1"/>
        <pt x="321" y="637" on="1"/>
        <pt x="321" y="83" on="1"/>
        <pt x="449" y="83" on="1"/>
        <pt x="449" y="0" on="1"/>
        <pt x="76" y="0" on="1"/>
      </contour>
    </TTGlyph>
    <TTGlyph name="one.heb" xMin="76" yMin="0" xMax="449" yMax="637">
      <contour>
        <pt x="76" y="83" on="1"/>
        <pt x="220" y="83" on="1"/>
        <pt x="220" y="523" on="1"/>
        <pt x="103" y="523" on="1"/>
        <pt x="103" y="587" on="1"/>
        <pt x="188" y="602" on="0"/>
        <pt x="245" y="637" on="1"/>
        <pt x="321" y="637" on="1"/>
        <pt x="321" y="83" on="1"/>
        <pt x="449" y="83" on="1"/>
        <pt x="449" y="0" on="1"/>
        <pt x="76" y="0" on="1"/>
      </contour>
    </TTGlyph>
    <TTGlyph name="one.lat" xMin="76" yMin="0" xMax="449" yMax="637">
      <contour>
        <pt x="76" y="83" on="1"/>
        <pt x="220" y="83" on="1"/>
        <pt x="220" y="523" on="1"/>
        <pt x="103" y="523" on="1"/>
        <pt x="103" y="587" on="1"/>
        <pt x="188" y="602" on="0"/>
        <pt x="245" y="637" on="1"/>
        <pt x="321" y="637" on="1"/>
        <pt x="321" y="83" on="1"/>
        <pt x="449" y="83" on="1"/>
        <pt x="449" y="0" on="1"/>
        <pt x="76" y="0" on="1"/>
      </contour>
    </TTGlyph>
    <TTGlyph name="one.pnumlat" xMin="47" yMin="0" xMax="265" yMax="637">
      <contour>
        <pt x="164" y="523" on="1"/>
        <pt x="47" y="523" on="1"/>
        <pt x="47" y="587" on="1"/>
        <pt x="132" y="602" on="0"/>
        <pt x="189" y="637" on="1"/>
        <pt x="265" y="637" on="1"/>
        <pt x="265" y="0" on="1"/>
        <pt x="164" y="0" on="1"/>
      </contour>
    </TTGlyph>
    <TTGlyph name="onehalf" xMin="180" yMin="-12" xMax="603" yMax="667">
      <contour>
        <pt x="539" y="667" on="1"/>
        <pt x="603" y="667" on="1"/>
        <pt x="244" y="-12" on="1"/>
        <pt x="180" y="-12" on="1"/>
      </contour>
    </TTGlyph>
    <TTGlyph name="onehalf.lat" xMin="74" yMin="-12" xMax="773" yMax="667">
      <contour>
        <pt x="539" y="667" on="1"/>
        <pt x="603" y="667" on="1"/>
        <pt x="244" y="-12" on="1"/>
        <pt x="180" y="-12" on="1"/>
      </contour>
      <contour>
        <pt x="160" y="435" on="1"/>
        <pt x="74" y="435" on="1"/>
        <pt x="74" y="484" on="1"/>
        <pt x="108" y="490" on="0"/>
        <pt x="152" y="508" on="0"/>
        <pt x="175" y="525" on="1"/>
        <pt x="237" y="525" on="1"/>
        <pt x="237" y="135" on="1"/>
        <pt x="160" y="135" on="1"/>
      </contour>
      <contour>
        <pt x="499" y="43" on="1"/>
        <pt x="598" y="130" on="0"/>
        <pt x="680" y="223" on="0"/>
        <pt x="680" y="262" on="1"/>
        <pt x="680" y="297" on="0"/>
        <pt x="642" y="338" on="0"/>
        <pt x="610" y="338" on="1"/>
        <pt x="568" y="338" on="0"/>
        <pt x="530" y="284" on="1"/>
        <pt x="485" y="325" on="1"/>
        <pt x="510" y="361" on="0"/>
        <pt x="581" y="402" on="0"/>
        <pt x="621" y="402" on="1"/>
        <pt x="682" y="402" on="0"/>
        <pt x="755" y="335" on="0"/>
        <pt x="755" y="274" on="1"/>
        <pt x="755" y="241" on="0"/>
        <pt x="722" y="176" on="0"/>
        <pt x="670" y="115" on="0"/>
        <pt x="622" y="65" on="1"/>
        <pt x="773" y="65" on="1"/>
        <pt x="773" y="0" on="1"/>
        <pt x="499" y="0" on="1"/>
      </contour>
    </TTGlyph>
    <TTGlyph name="onequarter" xMin="192" yMin="-12" xMax="615" yMax="667">
      <contour>
        <pt x="551" y="667" on="1"/>
        <pt x="615" y="667" on="1"/>
        <pt x="256" y="-12" on="1"/>
        <pt x="192" y="-12" on="1"/>
      </contour>
    </TTGlyph>
</ttFont>
